STARTFONT 2.3
FONT -FontForge-Source Code Pro-Book-R-Normal--16-160-72-72-M-100-ISO10646-1
SIZE 16 72 72  2
FONTBOUNDINGBOX 18 27 -5 -7
COMMENT "Generated by fontforge, http://fontforge.sourceforge.net"
COMMENT "Copyright 2010, 2012 Adobe Systems Incorporated (http://www.adobe.com/), with Reserved Font Name `Source'."
STARTPROPERTIES 42
FOUNDRY "FontForge"
FAMILY_NAME "Source Code Pro"
WEIGHT_NAME "Book"
SLANT "R"
SETWIDTH_NAME "Normal"
ADD_STYLE_NAME ""
PIXEL_SIZE 16
POINT_SIZE 160
RESOLUTION_X 72
RESOLUTION_Y 72
SPACING "M"
AVERAGE_WIDTH 100
CHARSET_REGISTRY "ISO10646"
CHARSET_ENCODING "1"
FONTNAME_REGISTRY ""
CHARSET_COLLECTIONS "ASCII ISOLatin1Encoding ISO8859-2 ISO8859-9 ISO8859-4 ISO10646-1"
BITS_PER_PIXEL 2
FONT_NAME "SourceCodePro-It"
FACE_NAME "Source Code Pro Italic"
COPYRIGHT "Copyright 2010, 2012 Adobe Systems Incorporated (http://www.adobe.com/), with Reserved Font Name `Source'."
FONT_VERSION "1.050;PS 1.000;hotconv 16.6.51;makeotf.lib2.5.65220"
FONT_ASCENT 12
FONT_DESCENT 4
UNDERLINE_POSITION -2
UNDERLINE_THICKNESS 1
X_HEIGHT 7
CAP_HEIGHT 9
RAW_ASCENT 750
RAW_DESCENT 250
ITALIC_ANGLE 5056
NORM_SPACE 10
RELATIVE_WEIGHT 40
RELATIVE_SETWIDTH 50
SUPERSCRIPT_X 1
SUPERSCRIPT_Y 5
SUPERSCRIPT_SIZE 9
SUBSCRIPT_X 0
SUBSCRIPT_Y 1
SUBSCRIPT_SIZE 9
FIGURE_WIDTH 10
AVG_LOWERCASE_WIDTH 100
AVG_UPPERCASE_WIDTH 100
ENDPROPERTIES
CHARS 1269
STARTCHAR space
ENCODING 32
SWIDTH 600 0
DWIDTH 10 0
BBX 1 1 0 0
BITMAP
00
ENDCHAR
STARTCHAR exclam
ENCODING 33
SWIDTH 600 0
DWIDTH 10 0
BBX 4 10 3 0
BITMAP
09
0D
1C
18
24
20
00
00
B0
E0
ENDCHAR
STARTCHAR quotedbl
ENCODING 34
SWIDTH 600 0
DWIDTH 10 0
BBX 7 5 2 6
BITMAP
2C38
3874
3470
3060
6090
ENDCHAR
STARTCHAR numbersign
ENCODING 35
SWIDTH 600 0
DWIDTH 10 0
BBX 8 10 1 0
BITMAP
0208
0608
3FFE
0820
0820
1460
FFF8
2080
6080
9140
ENDCHAR
STARTCHAR dollar
ENCODING 36
SWIDTH 600 0
DWIDTH 10 0
BBX 7 13 1 -1
BITMAP
0050
0090
0BE4
281C
2800
1E00
06D0
0074
0028
A074
2FE0
0900
0800
ENDCHAR
STARTCHAR percent
ENCODING 37
SWIDTH 600 0
DWIDTH 10 0
BBX 11 10 -1 0
BITMAP
0B8018
249060
305180
31C100
1E4000
014BD0
061860
282060
602490
001F40
ENDCHAR
STARTCHAR ampersand
ENCODING 38
SWIDTH 600 0
DWIDTH 10 0
BBX 9 10 0 0
BITMAP
01B800
034C00
061C00
066400
078080
1E8180
70D300
A07900
A07D00
2F9640
ENDCHAR
STARTCHAR quotesingle
ENCODING 39
SWIDTH 600 0
DWIDTH 10 0
BBX 3 5 4 6
BITMAP
38
38
74
70
60
ENDCHAR
STARTCHAR parenleft
ENCODING 40
SWIDTH 600 0
DWIDTH 10 0
BBX 6 15 3 -3
BITMAP
0060
01C0
0600
1C00
2400
7000
A000
9000
9000
9000
9000
6000
7000
2800
0800
ENDCHAR
STARTCHAR parenright
ENCODING 41
SWIDTH 600 0
DWIDTH 10 0
BBX 6 15 1 -4
BITMAP
0900
0340
0180
00C0
00D0
0090
0090
00D0
00C0
0280
0300
0A00
2800
E000
4000
ENDCHAR
STARTCHAR asterisk
ENCODING 42
SWIDTH 600 0
DWIDTH 10 0
BBX 8 7 1 2
BITMAP
0080
0180
6599
1BE4
0BC0
1890
2060
ENDCHAR
STARTCHAR plus
ENCODING 43
SWIDTH 600 0
DWIDTH 10 0
BBX 8 7 1 2
BITMAP
0240
0240
0240
BFFD
0240
0240
0240
ENDCHAR
STARTCHAR comma
ENCODING 44
SWIDTH 600 0
DWIDTH 10 0
BBX 5 6 1 -4
BITMAP
0B40
0F40
0340
0B00
2D00
6000
ENDCHAR
STARTCHAR hyphen
ENCODING 45
SWIDTH 600 0
DWIDTH 10 0
BBX 8 1 1 5
BITMAP
BFFD
ENDCHAR
STARTCHAR period
ENCODING 46
SWIDTH 600 0
DWIDTH 10 0
BBX 3 3 3 0
BITMAP
B0
F4
E0
ENDCHAR
STARTCHAR slash
ENCODING 47
SWIDTH 600 0
DWIDTH 10 0
BBX 9 14 0 -3
BITMAP
0000C0
000240
000700
000900
001800
003400
00A000
00C000
024000
070000
090000
180000
340000
A00000
ENDCHAR
STARTCHAR zero
ENCODING 48
SWIDTH 600 0
DWIDTH 10 0
BBX 8 10 1 0
BITMAP
06F4
1D1C
3009
A00A
D28A
D349
C00D
D028
A070
2F80
ENDCHAR
STARTCHAR one
ENCODING 49
SWIDTH 600 0
DWIDTH 10 0
BBX 8 10 0 0
BITMAP
01B8
01B8
0034
0030
0070
00A0
0090
00D0
00C0
7FFE
ENDCHAR
STARTCHAR two
ENCODING 50
SWIDTH 600 0
DWIDTH 10 0
BBX 8 10 0 0
BITMAP
02F8
0A0A
0007
0006
000D
0028
00A0
0740
1D00
7FFF
ENDCHAR
STARTCHAR three
ENCODING 51
SWIDTH 600 0
DWIDTH 10 0
BBX 8 10 0 0
BITMAP
02FD
0607
0003
001A
02F4
001D
000A
000A
741D
1BE4
ENDCHAR
STARTCHAR four
ENCODING 52
SWIDTH 600 0
DWIDTH 10 0
BBX 9 10 0 0
BITMAP
000B00
002B00
00A600
028A00
0A0D00
240C00
BFFF40
001800
002800
002400
ENDCHAR
STARTCHAR five
ENCODING 53
SWIDTH 600 0
DWIDTH 10 0
BBX 9 10 0 0
BITMAP
03FF80
060000
0A0000
090000
0EF800
050A00
000700
000600
741D00
1BE400
ENDCHAR
STARTCHAR six
ENCODING 54
SWIDTH 600 0
DWIDTH 10 0
BBX 8 10 1 0
BITMAP
02F9
1D06
3400
6000
97E4
F42C
D00C
901C
7474
1F90
ENDCHAR
STARTCHAR seven
ENCODING 55
SWIDTH 600 0
DWIDTH 10 0
BBX 7 10 2 0
BITMAP
FFFC
0024
0090
0280
0700
0D00
1C00
2400
3400
7000
ENDCHAR
STARTCHAR eight
ENCODING 56
SWIDTH 600 0
DWIDTH 10 0
BBX 8 10 1 0
BITMAP
06F4
1D1D
1809
080D
1FA8
75A0
D024
D01C
A078
2FD0
ENDCHAR
STARTCHAR nine
ENCODING 57
SWIDTH 600 0
DWIDTH 10 0
BBX 8 10 1 0
BITMAP
0BE4
281C
7009
600A
746E
1F99
000C
0028
91A0
7F40
ENDCHAR
STARTCHAR colon
ENCODING 58
SWIDTH 600 0
DWIDTH 10 0
BBX 4 9 3 0
BITMAP
2D
3D
28
00
00
00
B0
F4
E0
ENDCHAR
STARTCHAR semicolon
ENCODING 59
SWIDTH 600 0
DWIDTH 10 0
BBX 6 13 1 -4
BITMAP
02D0
03D0
0280
0000
0000
0000
0000
0B40
0F40
0340
0B00
2D00
6000
ENDCHAR
STARTCHAR less
ENCODING 60
SWIDTH 600 0
DWIDTH 10 0
BBX 6 9 2 1
BITMAP
0020
01D0
0A00
7400
D000
7400
0A00
01D0
0020
ENDCHAR
STARTCHAR equal
ENCODING 61
SWIDTH 600 0
DWIDTH 10 0
BBX 8 5 1 3
BITMAP
BFFD
0000
0000
0000
BFFD
ENDCHAR
STARTCHAR greater
ENCODING 62
SWIDTH 600 0
DWIDTH 10 0
BBX 7 9 1 1
BITMAP
5000
2800
0740
00A0
0028
00A0
0740
2800
5000
ENDCHAR
STARTCHAR question
ENCODING 63
SWIDTH 600 0
DWIDTH 10 0
BBX 7 10 2 0
BITMAP
1BE0
3474
0030
0190
0A00
1800
0000
0000
3800
7800
ENDCHAR
STARTCHAR at
ENCODING 64
SWIDTH 600 0
DWIDTH 10 0
BBX 9 12 0 -2
BITMAP
00BE40
0741C0
0D0080
240080
301BC0
60E580
924280
924B40
61F600
700000
291800
0BE400
ENDCHAR
STARTCHAR A
ENCODING 65
SWIDTH 600 0
DWIDTH 10 0
BBX 8 10 0 0
BITMAP
0038
00AC
00CC
024D
0709
0909
1FFE
3406
A007
D007
ENDCHAR
STARTCHAR B
ENCODING 66
SWIDTH 600 0
DWIDTH 10 0
BBX 9 10 0 0
BITMAP
07FE00
0A0780
090280
0D0740
1EB900
1D5A00
280340
240340
341A00
7FE400
ENDCHAR
STARTCHAR C
ENCODING 67
SWIDTH 600 0
DWIDTH 10 0
BBX 8 10 1 0
BITMAP
01FD
0A47
2800
7400
A000
A000
A000
A000
3818
0BE0
ENDCHAR
STARTCHAR D
ENCODING 68
SWIDTH 600 0
DWIDTH 10 0
BBX 9 10 0 0
BITMAP
0BF900
0D0B40
0D0280
1C01C0
1801C0
280280
340340
300700
706D00
BFE000
ENDCHAR
STARTCHAR E
ENCODING 69
SWIDTH 600 0
DWIDTH 10 0
BBX 9 10 1 0
BITMAP
0FFF40
1C0000
180000
280000
3FF800
300000
700000
A00000
A00000
FFF800
ENDCHAR
STARTCHAR F
ENCODING 70
SWIDTH 600 0
DWIDTH 10 0
BBX 9 10 1 0
BITMAP
0BFF80
0D0000
0C0000
180000
2FFC00
240000
340000
700000
600000
A00000
ENDCHAR
STARTCHAR G
ENCODING 71
SWIDTH 600 0
DWIDTH 10 0
BBX 8 10 1 0
BITMAP
02F9
1E06
3800
7000
9000
D0BE
D009
A00C
741C
1BE4
ENDCHAR
STARTCHAR H
ENCODING 72
SWIDTH 600 0
DWIDTH 10 0
BBX 10 10 0 0
BITMAP
0A00D0
0D01C0
0C01C0
1C0280
2FFF40
240340
340700
700700
600A00
A00D00
ENDCHAR
STARTCHAR I
ENCODING 73
SWIDTH 600 0
DWIDTH 10 0
BBX 9 10 0 0
BITMAP
07FFC0
003400
007000
006000
00A000
00D000
00C000
01C000
028000
7FFC00
ENDCHAR
STARTCHAR J
ENCODING 74
SWIDTH 600 0
DWIDTH 10 0
BBX 9 10 0 0
BITMAP
03FF80
000340
000300
000700
000A00
000900
000D00
001C00
747400
2F9000
ENDCHAR
STARTCHAR K
ENCODING 75
SWIDTH 600 0
DWIDTH 10 0
BBX 10 10 0 0
BITMAP
0700D0
0A0740
091D00
0D7400
1DE000
1F7400
282800
241C00
340A00
700700
ENDCHAR
STARTCHAR L
ENCODING 76
SWIDTH 600 0
DWIDTH 10 0
BBX 7 10 1 0
BITMAP
0600
0A00
0D00
0D00
1C00
1800
2800
3400
3000
7FFC
ENDCHAR
STARTCHAR M
ENCODING 77
SWIDTH 600 0
DWIDTH 10 0
BBX 10 10 0 0
BITMAP
0B01D0
0F03C0
1E4AC0
1A4D80
2A6640
25B340
31D300
704700
600A00
900900
ENDCHAR
STARTCHAR N
ENCODING 78
SWIDTH 600 0
DWIDTH 10 0
BBX 10 10 0 0
BITMAP
0B00D0
0B40C0
0E8180
1DC280
18D240
28A340
347300
303A00
702E00
601D00
ENDCHAR
STARTCHAR O
ENCODING 79
SWIDTH 600 0
DWIDTH 10 0
BBX 9 10 0 0
BITMAP
01BD00
0B4740
1C01C0
2801C0
3401C0
7001C0
700280
300700
281D00
0BE400
ENDCHAR
STARTCHAR P
ENCODING 80
SWIDTH 600 0
DWIDTH 10 0
BBX 8 10 1 0
BITMAP
1FF9
1C0B
2803
2407
341E
7FE4
6000
A000
D000
D000
ENDCHAR
STARTCHAR Q
ENCODING 81
SWIDTH 600 0
DWIDTH 10 0
BBX 9 13 0 -3
BITMAP
01BD00
0B4740
1C01C0
2801C0
3001C0
7001C0
700280
300700
281D00
0BE400
028000
00D000
006E00
ENDCHAR
STARTCHAR R
ENCODING 82
SWIDTH 600 0
DWIDTH 10 0
BBX 9 10 0 0
BITMAP
07FE00
0A0780
0D0280
0D0280
1C0B00
1FF800
287000
343400
301C00
700D00
ENDCHAR
STARTCHAR S
ENCODING 83
SWIDTH 600 0
DWIDTH 10 0
BBX 8 10 1 0
BITMAP
07F4
1D1D
2800
1D00
0B80
01B0
0028
4028
D074
6F90
ENDCHAR
STARTCHAR T
ENCODING 84
SWIDTH 600 0
DWIDTH 10 0
BBX 9 10 1 0
BITMAP
7FFFC0
00D000
01C000
018000
028000
034000
030000
070000
0A0000
0A0000
ENDCHAR
STARTCHAR U
ENCODING 85
SWIDTH 600 0
DWIDTH 10 0
BBX 9 10 1 0
BITMAP
280340
340300
300700
700A00
A00900
900D00
D01C00
D02800
A07400
2F9000
ENDCHAR
STARTCHAR V
ENCODING 86
SWIDTH 600 0
DWIDTH 10 0
BBX 8 10 2 0
BITMAP
D00A
D00D
9028
A030
A0A0
61C0
6240
7700
3900
3800
ENDCHAR
STARTCHAR W
ENCODING 87
SWIDTH 600 0
DWIDTH 10 0
BBX 9 10 1 0
BITMAP
A000C0
A00180
904240
92C300
92C600
D9C900
DC9C00
D89800
F0A800
E0B400
ENDCHAR
STARTCHAR X
ENCODING 88
SWIDTH 600 0
DWIDTH 10 0
BBX 10 10 0 0
BITMAP
0A01D0
070340
034A00
019800
00F000
01F000
077400
0D2800
241C00
A00A00
ENDCHAR
STARTCHAR Y
ENCODING 89
SWIDTH 600 0
DWIDTH 10 0
BBX 8 10 2 0
BITMAP
D00A
A01C
6034
3090
2680
1F00
0D00
1C00
1800
2800
ENDCHAR
STARTCHAR Z
ENCODING 90
SWIDTH 600 0
DWIDTH 10 0
BBX 10 10 0 0
BITMAP
0FFFD0
000380
000A00
002800
007000
01D000
074000
0D0000
380000
BFFF00
ENDCHAR
STARTCHAR bracketleft
ENCODING 91
SWIDTH 600 0
DWIDTH 10 0
BBX 7 14 2 -3
BITMAP
07FC
0900
0900
0C00
0C00
1800
1400
2400
3000
3000
6000
5000
9000
FF40
ENDCHAR
STARTCHAR backslash
ENCODING 92
SWIDTH 600 0
DWIDTH 10 0
BBX 4 14 3 -3
BITMAP
C0
90
90
60
30
30
24
24
18
18
0C
0C
09
09
ENDCHAR
STARTCHAR bracketright
ENCODING 93
SWIDTH 600 0
DWIDTH 10 0
BBX 8 14 0 -3
BITMAP
03FD
000C
000C
0018
0014
0024
0030
0030
0060
0050
0090
00C0
00C0
BF80
ENDCHAR
STARTCHAR asciicircum
ENCODING 94
SWIDTH 600 0
DWIDTH 10 0
BBX 6 6 2 4
BITMAP
0E00
1B00
2640
7180
90D0
C060
ENDCHAR
STARTCHAR underscore
ENCODING 95
SWIDTH 600 0
DWIDTH 10 0
BBX 9 1 -1 -2
BITMAP
7FFF40
ENDCHAR
STARTCHAR grave
ENCODING 96
SWIDTH 600 0
DWIDTH 10 0
BBX 3 3 4 9
BITMAP
60
74
18
ENDCHAR
STARTCHAR a
ENCODING 97
SWIDTH 600 0
DWIDTH 10 0
BBX 8 8 1 0
BITMAP
0BE6
281E
7009
D00C
C01C
D018
E0B8
6E64
ENDCHAR
STARTCHAR b
ENCODING 98
SWIDTH 600 0
DWIDTH 10 0
BBX 9 11 0 0
BITMAP
070000
060000
0A0000
0DBD00
0E4740
1C0280
180280
240340
340700
381D00
67E400
ENDCHAR
STARTCHAR c
ENCODING 99
SWIDTH 600 0
DWIDTH 10 0
BBX 8 8 1 0
BITMAP
06F8
2D09
7000
9000
D000
A000
7428
1BE0
ENDCHAR
STARTCHAR d
ENCODING 100
SWIDTH 600 0
DWIDTH 10 0
BBX 9 11 1 0
BITMAP
000240
000340
000700
0BE700
281E00
700D00
D00D00
C01C00
D01800
E0B800
6E6400
ENDCHAR
STARTCHAR e
ENCODING 101
SWIDTH 600 0
DWIDTH 10 0
BBX 8 8 1 0
BITMAP
07E4
291C
6009
BFFD
D000
D000
B424
2FE0
ENDCHAR
STARTCHAR f
ENCODING 102
SWIDTH 600 0
DWIDTH 10 0
BBX 8 11 2 0
BITMAP
01BE
0741
0A00
FFF8
0D00
1C00
1800
2800
2400
3400
7000
ENDCHAR
STARTCHAR g
ENCODING 103
SWIDTH 600 0
DWIDTH 10 0
BBX 9 11 0 -3
BITMAP
02F980
0E0780
280340
340300
340700
340A00
2D6A00
064900
000C00
507800
6F9000
ENDCHAR
STARTCHAR h
ENCODING 104
SWIDTH 600 0
DWIDTH 10 0
BBX 9 11 0 0
BITMAP
070000
060000
0A0000
0D6E00
0E4340
1D0240
180340
240300
340700
300A00
700900
ENDCHAR
STARTCHAR i
ENCODING 105
SWIDTH 600 0
DWIDTH 10 0
BBX 7 11 1 0
BITMAP
01D0
01D0
0000
7F80
0280
0240
0300
0700
0600
0700
02F4
ENDCHAR
STARTCHAR j
ENCODING 106
SWIDTH 600 0
DWIDTH 10 0
BBX 8 14 0 -3
BITMAP
000E
000D
0000
0BFC
0018
0028
0034
0034
0070
0060
00A0
00D0
4280
BE00
ENDCHAR
STARTCHAR k
ENCODING 107
SWIDTH 600 0
DWIDTH 10 0
BBX 8 11 1 0
BITMAP
0D00
1C00
1800
280A
3428
30E0
77C0
7DD0
B460
D034
C01C
ENDCHAR
STARTCHAR l
ENCODING 108
SWIDTH 600 0
DWIDTH 10 0
BBX 5 11 2 0
BITMAP
BF00
0700
0600
0900
0D00
0C00
1800
2800
2400
2840
1F80
ENDCHAR
STARTCHAR m
ENCODING 109
SWIDTH 600 0
DWIDTH 10 0
BBX 9 8 0 0
BITMAP
2AD780
28B5C0
34A1C0
309180
70D280
A0C340
A18300
D28700
ENDCHAR
STARTCHAR n
ENCODING 110
SWIDTH 600 0
DWIDTH 10 0
BBX 9 8 0 0
BITMAP
0C6E00
0E4340
1D0240
280340
240300
340700
300A00
700900
ENDCHAR
STARTCHAR o
ENCODING 111
SWIDTH 600 0
DWIDTH 10 0
BBX 9 8 0 0
BITMAP
02F800
0E0B00
280340
340240
700340
300700
281D00
0BE000
ENDCHAR
STARTCHAR p
ENCODING 112
SWIDTH 600 0
DWIDTH 10 0
BBX 9 11 0 -3
BITMAP
0CBD00
1E4740
1C0280
280280
240340
340700
791D00
67E400
A00000
900000
D00000
ENDCHAR
STARTCHAR q
ENCODING 113
SWIDTH 600 0
DWIDTH 10 0
BBX 8 11 1 -3
BITMAP
0BE6
281E
700D
D00C
C01C
D018
E0B8
6E64
0030
0070
0060
ENDCHAR
STARTCHAR r
ENCODING 114
SWIDTH 600 0
DWIDTH 10 0
BBX 8 8 1 0
BITMAP
0C6E
1D80
1D00
2800
2400
3400
3000
7000
ENDCHAR
STARTCHAR s
ENCODING 115
SWIDTH 600 0
DWIDTH 10 0
BBX 7 8 1 0
BITMAP
0BE4
281C
3400
1E40
01B0
0028
E034
2FD0
ENDCHAR
STARTCHAR t
ENCODING 116
SWIDTH 600 0
DWIDTH 10 0
BBX 8 11 1 0
BITMAP
0240
0300
0700
BFFE
0A00
0D00
0C00
1C00
1800
1D14
0BE4
ENDCHAR
STARTCHAR u
ENCODING 117
SWIDTH 600 0
DWIDTH 10 0
BBX 8 8 1 0
BITMAP
300A
7009
A00D
A00C
D01C
C028
D1A8
7E24
ENDCHAR
STARTCHAR v
ENCODING 118
SWIDTH 600 0
DWIDTH 10 0
BBX 8 8 1 0
BITMAP
A007
7009
3018
3434
28A0
18C0
1E40
0F00
ENDCHAR
STARTCHAR w
ENCODING 119
SWIDTH 600 0
DWIDTH 10 0
BBX 10 8 0 0
BITMAP
706060
70B090
71B1C0
727280
333300
363600
383900
383C00
ENDCHAR
STARTCHAR x
ENCODING 120
SWIDTH 600 0
DWIDTH 10 0
BBX 9 8 0 0
BITMAP
090340
070A00
026800
01E000
02E000
0A3000
1C2800
700D00
ENDCHAR
STARTCHAR y
ENCODING 121
SWIDTH 600 0
DWIDTH 10 0
BBX 10 11 -1 -3
BITMAP
060070
0700D0
034180
024340
018A00
01DC00
00E400
00A000
01C000
074000
7D0000
ENDCHAR
STARTCHAR z
ENCODING 122
SWIDTH 600 0
DWIDTH 10 0
BBX 9 8 0 0
BITMAP
0FFF40
000A00
002800
00A000
028000
0A0000
280000
7FFE00
ENDCHAR
STARTCHAR braceleft
ENCODING 123
SWIDTH 600 0
DWIDTH 10 0
BBX 8 14 2 -3
BITMAP
01BD
0280
0300
0600
0600
1D00
F400
1800
0800
1800
2400
3000
3400
1F80
ENDCHAR
STARTCHAR bar
ENCODING 124
SWIDTH 600 0
DWIDTH 10 0
BBX 2 16 4 -4
BITMAP
90
90
90
90
90
90
90
90
90
90
90
90
90
90
90
90
ENDCHAR
STARTCHAR braceright
ENCODING 125
SWIDTH 600 0
DWIDTH 10 0
BBX 8 14 0 -3
BITMAP
07E0
0024
0024
0030
0060
0060
003E
00A0
00C0
0180
0180
0240
0740
BD00
ENDCHAR
STARTCHAR asciitilde
ENCODING 126
SWIDTH 600 0
DWIDTH 10 0
BBX 7 2 1 4
BITMAP
2E48
91F4
ENDCHAR
STARTCHAR uni00A0
ENCODING 160
SWIDTH 600 0
DWIDTH 10 0
BBX 1 1 0 0
BITMAP
00
ENDCHAR
STARTCHAR exclamdown
ENCODING 161
SWIDTH 600 0
DWIDTH 10 0
BBX 4 11 2 -3
BITMAP
0B
0B
00
00
0C
08
18
24
34
30
70
ENDCHAR
STARTCHAR cent
ENCODING 162
SWIDTH 600 0
DWIDTH 10 0
BBX 7 12 1 -1
BITMAP
0020
0050
06F8
1D84
3480
7080
7180
7140
3664
1BE0
0200
0600
ENDCHAR
STARTCHAR sterling
ENCODING 163
SWIDTH 600 0
DWIDTH 10 0
BBX 9 10 0 0
BITMAP
00BE00
028280
030000
030000
2FFC00
034000
030000
060000
180000
7FFD00
ENDCHAR
STARTCHAR currency
ENCODING 164
SWIDTH 600 0
DWIDTH 10 0
BBX 9 8 0 1
BITMAP
080080
0EBA80
0A4A00
0C0700
1C0600
0D1D00
2BE900
500200
ENDCHAR
STARTCHAR yen
ENCODING 165
SWIDTH 600 0
DWIDTH 10 0
BBX 9 10 1 0
BITMAP
240340
180A00
0C1800
093000
069000
BFFD00
034000
FFFC00
070000
0A0000
ENDCHAR
STARTCHAR brokenbar
ENCODING 166
SWIDTH 600 0
DWIDTH 10 0
BBX 2 16 4 -4
BITMAP
90
90
90
90
90
90
90
00
00
90
90
90
90
90
90
90
ENDCHAR
STARTCHAR section
ENCODING 167
SWIDTH 600 0
DWIDTH 10 0
BBX 7 12 1 -1
BITMAP
02E4
0A18
0900
1F40
35A0
7028
3418
0A28
02E0
0090
91D0
2F40
ENDCHAR
STARTCHAR dieresis
ENCODING 168
SWIDTH 600 0
DWIDTH 10 0
BBX 5 2 3 9
BITMAP
71C0
71C0
ENDCHAR
STARTCHAR copyright
ENCODING 169
SWIDTH 600 0
DWIDTH 10 0
BBX 10 10 0 0
BITMAP
01BE00
0A4280
240080
21B850
574450
861080
92E080
500240
341900
0BE400
ENDCHAR
STARTCHAR ordfeminine
ENCODING 170
SWIDTH 600 0
DWIDTH 10 0
BBX 5 5 3 6
BITMAP
2E80
A1C0
C180
C240
B940
ENDCHAR
STARTCHAR guillemotleft
ENCODING 171
SWIDTH 600 0
DWIDTH 10 0
BBX 8 6 1 1
BITMAP
0509
2824
A0E0
A0D0
3060
1424
ENDCHAR
STARTCHAR logicalnot
ENCODING 172
SWIDTH 600 0
DWIDTH 10 0
BBX 8 4 1 2
BITMAP
BFFD
0009
0009
0009
ENDCHAR
STARTCHAR uni00AD
ENCODING 173
SWIDTH 600 0
DWIDTH 10 0
BBX 8 1 1 5
BITMAP
BFFD
ENDCHAR
STARTCHAR registered
ENCODING 174
SWIDTH 600 0
DWIDTH 10 0
BBX 7 7 2 5
BITMAP
07E0
2824
2788
5B88
5954
6060
1F80
ENDCHAR
STARTCHAR macron
ENCODING 175
SWIDTH 600 0
DWIDTH 10 0
BBX 5 1 3 10
BITMAP
7FC0
ENDCHAR
STARTCHAR degree
ENCODING 176
SWIDTH 600 0
DWIDTH 10 0
BBX 5 4 3 7
BITMAP
1F40
6180
6240
2E00
ENDCHAR
STARTCHAR plusminus
ENCODING 177
SWIDTH 600 0
DWIDTH 10 0
BBX 8 9 1 0
BITMAP
0240
0240
0240
BFFD
0240
0240
0240
0000
BFFD
ENDCHAR
STARTCHAR two.sups
ENCODING 178
SWIDTH 600 0
DWIDTH 10 0
BBX 5 7 3 6
BITMAP
1F40
2180
0180
0200
0900
6400
FF00
ENDCHAR
STARTCHAR three.sups
ENCODING 179
SWIDTH 600 0
DWIDTH 10 0
BBX 5 7 3 6
BITMAP
2F40
1180
0240
1E00
0240
8240
7E00
ENDCHAR
STARTCHAR acute
ENCODING 180
SWIDTH 600 0
DWIDTH 10 0
BBX 3 3 5 9
BITMAP
18
74
80
ENDCHAR
STARTCHAR uni00B5
ENCODING 181
SWIDTH 600 0
DWIDTH 10 0
BBX 9 11 0 -3
BITMAP
0C0280
1C0240
180340
280300
340600
340A00
746900
6F8700
900000
D00000
C00000
ENDCHAR
STARTCHAR paragraph
ENCODING 182
SWIDTH 600 0
DWIDTH 10 0
BBX 8 12 1 -2
BITMAP
06EA
2FD9
7FDD
BFDC
BF98
3FA8
0A64
0034
0070
0070
00A0
0090
ENDCHAR
STARTCHAR periodcentered
ENCODING 183
SWIDTH 600 0
DWIDTH 10 0
BBX 3 3 3 4
BITMAP
38
B8
74
ENDCHAR
STARTCHAR cedilla
ENCODING 184
SWIDTH 600 0
DWIDTH 10 0
BBX 4 5 1 -5
BITMAP
08
1D
0A
09
74
ENDCHAR
STARTCHAR one.sups
ENCODING 185
SWIDTH 600 0
DWIDTH 10 0
BBX 5 6 3 6
BITMAP
1B00
0600
0900
0900
0C00
FF80
ENDCHAR
STARTCHAR ordmasculine
ENCODING 186
SWIDTH 600 0
DWIDTH 10 0
BBX 5 5 3 6
BITMAP
2F40
A1C0
C0C0
D280
7E00
ENDCHAR
STARTCHAR guillemotright
ENCODING 187
SWIDTH 600 0
DWIDTH 10 0
BBX 7 6 1 1
BITMAP
2050
2430
1C28
2C28
60A0
8140
ENDCHAR
STARTCHAR onequarter
ENCODING 188
SWIDTH 600 0
DWIDTH 10 0
BBX 11 10 -1 0
BITMAP
0B4018
030060
030180
060100
090000
014240
060540
281880
602FD0
000140
ENDCHAR
STARTCHAR onehalf
ENCODING 189
SWIDTH 600 0
DWIDTH 10 0
BBX 11 10 -1 0
BITMAP
0B4018
030060
030180
060100
090000
0147C0
060490
280180
600600
002FD0
ENDCHAR
STARTCHAR threequarters
ENCODING 190
SWIDTH 600 0
DWIDTH 10 0
BBX 11 10 -1 0
BITMAP
0B8018
05C060
074180
118100
1F4000
014240
060540
281880
602FD0
000140
ENDCHAR
STARTCHAR questiondown
ENCODING 191
SWIDTH 600 0
DWIDTH 10 0
BBX 6 11 1 -3
BITMAP
01D0
01D0
0000
0000
0240
0700
1D00
6000
D000
D180
7E40
ENDCHAR
STARTCHAR Agrave
ENCODING 192
SWIDTH 600 0
DWIDTH 10 0
BBX 8 14 0 0
BITMAP
0060
0034
0008
0000
0038
00AC
00CC
024D
0709
0909
1FFE
3406
A007
D007
ENDCHAR
STARTCHAR Aacute
ENCODING 193
SWIDTH 600 0
DWIDTH 10 0
BBX 8 14 0 0
BITMAP
0002
000A
0024
0000
0038
00AC
00CC
024D
0709
0909
1FFE
3406
A007
D007
ENDCHAR
STARTCHAR Acircumflex
ENCODING 194
SWIDTH 600 0
DWIDTH 10 0
BBX 9 13 0 0
BITMAP
002E00
009240
000000
003800
00AC00
00CC00
024D00
070900
090900
1FFE00
340600
A00700
D00700
ENDCHAR
STARTCHAR Atilde
ENCODING 195
SWIDTH 600 0
DWIDTH 10 0
BBX 9 13 0 0
BITMAP
00F8C0
014B40
000000
003800
00AC00
00CC00
024D00
070900
090900
1FFE00
340600
A00700
D00700
ENDCHAR
STARTCHAR Adieresis
ENCODING 196
SWIDTH 600 0
DWIDTH 10 0
BBX 9 13 0 0
BITMAP
009240
009240
000000
003800
00AC00
00CC00
024D00
070900
090900
1FFE00
340600
A00700
D00700
ENDCHAR
STARTCHAR Aring
ENCODING 197
SWIDTH 600 0
DWIDTH 10 0
BBX 8 15 0 0
BITMAP
001D
0022
0022
002D
0000
0038
00AC
00CC
024D
0709
0909
1FFE
3406
A007
D007
ENDCHAR
STARTCHAR AE
ENCODING 198
SWIDTH 600 0
DWIDTH 10 0
BBX 12 10 -1 0
BITMAP
000FFD
002B00
007600
009A00
018BE0
030C00
0BFC00
181800
342800
A02FE0
ENDCHAR
STARTCHAR Ccedilla
ENCODING 199
SWIDTH 600 0
DWIDTH 10 0
BBX 8 15 1 -5
BITMAP
01FD
0A47
2800
7400
A000
A000
A000
A000
3818
0BE0
0200
0700
0240
0740
1900
ENDCHAR
STARTCHAR Egrave
ENCODING 200
SWIDTH 600 0
DWIDTH 10 0
BBX 9 14 1 0
BITMAP
008000
00B000
002400
000000
0FFF40
1C0000
180000
280000
3FF800
300000
700000
A00000
A00000
FFF800
ENDCHAR
STARTCHAR Eacute
ENCODING 201
SWIDTH 600 0
DWIDTH 10 0
BBX 9 14 1 0
BITMAP
000600
001D00
002400
000000
0FFF40
1C0000
180000
280000
3FF800
300000
700000
A00000
A00000
FFF800
ENDCHAR
STARTCHAR Ecircumflex
ENCODING 202
SWIDTH 600 0
DWIDTH 10 0
BBX 9 13 1 0
BITMAP
007C00
018600
000000
0FFF40
1C0000
180000
280000
3FF800
300000
700000
A00000
A00000
FFF800
ENDCHAR
STARTCHAR Edieresis
ENCODING 203
SWIDTH 600 0
DWIDTH 10 0
BBX 9 13 1 0
BITMAP
01C700
018600
000000
0FFF40
1C0000
180000
280000
3FF800
300000
700000
A00000
A00000
FFF800
ENDCHAR
STARTCHAR Igrave
ENCODING 204
SWIDTH 600 0
DWIDTH 10 0
BBX 9 14 0 0
BITMAP
006000
003400
000800
000000
07FFC0
003400
007000
006000
00A000
00D000
00C000
01C000
028000
7FFC00
ENDCHAR
STARTCHAR Iacute
ENCODING 205
SWIDTH 600 0
DWIDTH 10 0
BBX 9 14 0 0
BITMAP
000200
000A00
002400
000000
07FFC0
003400
007000
006000
00A000
00D000
00C000
01C000
028000
7FFC00
ENDCHAR
STARTCHAR Icircumflex
ENCODING 206
SWIDTH 600 0
DWIDTH 10 0
BBX 9 13 0 0
BITMAP
002E00
009240
000000
07FFC0
003400
007000
006000
00A000
00D000
00C000
01C000
028000
7FFC00
ENDCHAR
STARTCHAR Idieresis
ENCODING 207
SWIDTH 600 0
DWIDTH 10 0
BBX 9 13 0 0
BITMAP
009240
009240
000000
07FFC0
003400
007000
006000
00A000
00D000
00C000
01C000
028000
7FFC00
ENDCHAR
STARTCHAR Eth
ENCODING 208
SWIDTH 600 0
DWIDTH 10 0
BBX 9 10 0 0
BITMAP
07F900
0A0740
0D01C0
0C01C0
7FD0C0
1801C0
280280
340740
301D00
7FE400
ENDCHAR
STARTCHAR Ntilde
ENCODING 209
SWIDTH 600 0
DWIDTH 10 0
BBX 10 13 0 0
BITMAP
00F8C0
014B40
000000
0B00D0
0B40C0
0E8180
1DC280
18D240
28A340
347300
303A00
702E00
601D00
ENDCHAR
STARTCHAR Ograve
ENCODING 210
SWIDTH 600 0
DWIDTH 10 0
BBX 9 14 0 0
BITMAP
006000
003400
000800
000000
01BD00
0B4740
1C01C0
2801C0
3401C0
7001C0
700280
300700
281D00
0BE400
ENDCHAR
STARTCHAR Oacute
ENCODING 211
SWIDTH 600 0
DWIDTH 10 0
BBX 9 14 0 0
BITMAP
000200
000A00
002400
000000
01BD00
0B4740
1C01C0
2801C0
3401C0
7001C0
700280
300700
281D00
0BE400
ENDCHAR
STARTCHAR Ocircumflex
ENCODING 212
SWIDTH 600 0
DWIDTH 10 0
BBX 9 13 0 0
BITMAP
002E00
009240
000000
01BD00
0B4740
1C01C0
2801C0
3401C0
7001C0
700280
300700
281D00
0BE400
ENDCHAR
STARTCHAR Otilde
ENCODING 213
SWIDTH 600 0
DWIDTH 10 0
BBX 9 13 0 0
BITMAP
00F8C0
014B40
000000
01BD00
0B4740
1C01C0
2801C0
3401C0
7001C0
700280
300700
281D00
0BE400
ENDCHAR
STARTCHAR Odieresis
ENCODING 214
SWIDTH 600 0
DWIDTH 10 0
BBX 9 13 0 0
BITMAP
009240
009240
000000
01BD00
0B4740
1C01C0
2801C0
3401C0
7001C0
700280
300700
281D00
0BE400
ENDCHAR
STARTCHAR multiply
ENCODING 215
SWIDTH 600 0
DWIDTH 10 0
BBX 6 6 2 2
BITMAP
C060
71C0
1E00
1F00
71D0
C060
ENDCHAR
STARTCHAR Oslash
ENCODING 216
SWIDTH 600 0
DWIDTH 10 0
BBX 10 12 0 -1
BITMAP
000010
01BDA0
0B4780
1C07C0
281DC0
3071C0
71C1C0
774280
3D0700
381D00
DBE400
400000
ENDCHAR
STARTCHAR Ugrave
ENCODING 217
SWIDTH 600 0
DWIDTH 10 0
BBX 9 14 1 0
BITMAP
018000
00D000
002000
000000
280340
340300
300700
700A00
A00900
900D00
D01C00
D02800
A07400
2F9000
ENDCHAR
STARTCHAR Uacute
ENCODING 218
SWIDTH 600 0
DWIDTH 10 0
BBX 9 14 1 0
BITMAP
000800
002800
009000
000000
280340
340300
300700
700A00
A00900
900D00
D01C00
D02800
A07400
2F9000
ENDCHAR
STARTCHAR Ucircumflex
ENCODING 219
SWIDTH 600 0
DWIDTH 10 0
BBX 9 13 1 0
BITMAP
00B800
024900
000000
280340
340300
300700
700A00
A00900
900D00
D01C00
D02800
A07400
2F9000
ENDCHAR
STARTCHAR Udieresis
ENCODING 220
SWIDTH 600 0
DWIDTH 10 0
BBX 9 13 1 0
BITMAP
024900
024900
000000
280340
340300
300700
700A00
A00900
900D00
D01C00
D02800
A07400
2F9000
ENDCHAR
STARTCHAR Yacute
ENCODING 221
SWIDTH 600 0
DWIDTH 10 0
BBX 8 14 2 0
BITMAP
0020
01E0
0240
0000
D00A
A01C
6034
3090
2680
1F00
0D00
1C00
1800
2800
ENDCHAR
STARTCHAR Thorn
ENCODING 222
SWIDTH 600 0
DWIDTH 10 0
BBX 9 10 0 0
BITMAP
070000
0BFE00
090740
0D0180
0C0180
1C0280
281B00
2FF800
340000
700000
ENDCHAR
STARTCHAR germandbls
ENCODING 223
SWIDTH 600 0
DWIDTH 10 0
BBX 9 11 0 0
BITMAP
01BD00
034700
0A0300
0D0A00
0C2800
1C3000
282800
240B00
340240
714740
71BD00
ENDCHAR
STARTCHAR agrave
ENCODING 224
SWIDTH 600 0
DWIDTH 10 0
BBX 8 12 1 0
BITMAP
0180
00D0
0020
0000
0BE6
281E
7009
D00C
C01C
D018
E0B8
6E64
ENDCHAR
STARTCHAR aacute
ENCODING 225
SWIDTH 600 0
DWIDTH 10 0
BBX 8 12 1 0
BITMAP
0008
0078
0090
0000
0BE6
281E
7009
D00C
C01C
D018
E0B8
6E64
ENDCHAR
STARTCHAR acircumflex
ENCODING 226
SWIDTH 600 0
DWIDTH 10 0
BBX 8 12 1 0
BITMAP
00B4
029C
0609
0000
0BE6
281E
7009
D00C
C01C
D018
E0B8
6E64
ENDCHAR
STARTCHAR atilde
ENCODING 227
SWIDTH 600 0
DWIDTH 10 0
BBX 8 12 1 0
BITMAP
0041
07A3
092D
0000
0BE6
281E
7009
D00C
C01C
D018
E0B8
6E64
ENDCHAR
STARTCHAR adieresis
ENCODING 228
SWIDTH 600 0
DWIDTH 10 0
BBX 8 11 1 0
BITMAP
034D
034D
0000
0BE6
281E
7009
D00C
C01C
D018
E0B8
6E64
ENDCHAR
STARTCHAR aring
ENCODING 229
SWIDTH 600 0
DWIDTH 10 0
BBX 8 13 1 0
BITMAP
00B4
0198
0258
01F0
0000
0BE6
281E
7009
D00C
C01C
D018
E0B8
6E64
ENDCHAR
STARTCHAR ae
ENCODING 230
SWIDTH 600 0
DWIDTH 10 0
BBX 11 8 -1 0
BITMAP
07E2E0
043D24
002818
06BAB4
2D3550
703000
71B450
2E5F90
ENDCHAR
STARTCHAR ccedilla
ENCODING 231
SWIDTH 600 0
DWIDTH 10 0
BBX 8 13 1 -5
BITMAP
06F8
2D09
7000
9000
D000
A000
7428
1BE0
0600
0A00
0300
0700
2900
ENDCHAR
STARTCHAR egrave
ENCODING 232
SWIDTH 600 0
DWIDTH 10 0
BBX 8 12 1 0
BITMAP
0180
00D0
0060
0000
07E4
291C
6009
BFFD
D000
D000
B424
2FE0
ENDCHAR
STARTCHAR eacute
ENCODING 233
SWIDTH 600 0
DWIDTH 10 0
BBX 8 12 1 0
BITMAP
0018
0074
0090
0000
07E4
291C
6009
BFFD
D000
D000
B424
2FE0
ENDCHAR
STARTCHAR ecircumflex
ENCODING 234
SWIDTH 600 0
DWIDTH 10 0
BBX 8 12 1 0
BITMAP
00F4
0298
0508
0000
07E4
291C
6009
BFFD
D000
D000
B424
2FE0
ENDCHAR
STARTCHAR edieresis
ENCODING 235
SWIDTH 600 0
DWIDTH 10 0
BBX 8 11 1 0
BITMAP
030C
071C
0000
07E4
291C
6009
BFFD
D000
D000
B424
2FE0
ENDCHAR
STARTCHAR igrave
ENCODING 236
SWIDTH 600 0
DWIDTH 10 0
BBX 7 12 1 0
BITMAP
0240
01C0
0090
0000
7F80
0280
0240
0300
0700
0600
0700
02F4
ENDCHAR
STARTCHAR iacute
ENCODING 237
SWIDTH 600 0
DWIDTH 10 0
BBX 7 12 1 0
BITMAP
0014
00B4
0180
0000
7F80
0280
0240
0300
0700
0600
0700
02F4
ENDCHAR
STARTCHAR icircumflex
ENCODING 238
SWIDTH 600 0
DWIDTH 10 0
BBX 7 12 1 0
BITMAP
01E0
0764
0808
0000
7F80
0280
0240
0300
0700
0600
0700
02F4
ENDCHAR
STARTCHAR idieresis
ENCODING 239
SWIDTH 600 0
DWIDTH 10 0
BBX 7 11 1 0
BITMAP
0618
0A28
0000
7F80
0280
0240
0300
0700
0600
0700
02F4
ENDCHAR
STARTCHAR eth
ENCODING 240
SWIDTH 600 0
DWIDTH 10 0
BBX 9 11 0 0
BITMAP
009040
003E40
01AA00
000340
06FA40
1D0780
340280
700340
700700
381D00
1BE400
ENDCHAR
STARTCHAR ntilde
ENCODING 241
SWIDTH 600 0
DWIDTH 10 0
BBX 9 12 0 0
BITMAP
001040
01E5C0
024B40
000000
0C6E00
0E4340
1D0240
280340
240300
340700
300A00
700900
ENDCHAR
STARTCHAR ograve
ENCODING 242
SWIDTH 600 0
DWIDTH 10 0
BBX 9 12 0 0
BITMAP
006000
007400
001800
000000
02F800
0E0B00
280340
340240
700340
300700
281D00
0BE000
ENDCHAR
STARTCHAR oacute
ENCODING 243
SWIDTH 600 0
DWIDTH 10 0
BBX 9 12 0 0
BITMAP
000600
001D00
002000
000000
02F800
0E0B00
280340
340240
700340
300700
281D00
0BE000
ENDCHAR
STARTCHAR ocircumflex
ENCODING 244
SWIDTH 600 0
DWIDTH 10 0
BBX 9 12 0 0
BITMAP
003C00
00DA00
024200
000000
02F800
0E0B00
280340
340240
700340
300700
281D00
0BE000
ENDCHAR
STARTCHAR otilde
ENCODING 245
SWIDTH 600 0
DWIDTH 10 0
BBX 9 12 0 0
BITMAP
004040
01B580
020B00
000000
02F800
0E0B00
280340
340240
700340
300700
281D00
0BE000
ENDCHAR
STARTCHAR odieresis
ENCODING 246
SWIDTH 600 0
DWIDTH 10 0
BBX 9 11 0 0
BITMAP
01C700
01C700
000000
02F800
0E0B00
280340
340240
700340
300700
281D00
0BE000
ENDCHAR
STARTCHAR divide
ENCODING 247
SWIDTH 600 0
DWIDTH 10 0
BBX 8 9 1 1
BITMAP
0240
0240
0000
0000
BFFD
0000
0000
0240
0240
ENDCHAR
STARTCHAR oslash
ENCODING 248
SWIDTH 600 0
DWIDTH 10 0
BBX 9 8 0 0
BITMAP
02F9C0
0E0B40
282F40
30A240
728340
3A0700
3C1D00
ABE400
ENDCHAR
STARTCHAR ugrave
ENCODING 249
SWIDTH 600 0
DWIDTH 10 0
BBX 8 12 1 0
BITMAP
0280
01D0
0060
0000
300A
7009
A00D
A00C
D01C
C028
D1A8
7E24
ENDCHAR
STARTCHAR uacute
ENCODING 250
SWIDTH 600 0
DWIDTH 10 0
BBX 8 12 1 0
BITMAP
0018
0074
0080
0000
300A
7009
A00D
A00C
D01C
C028
D1A8
7E24
ENDCHAR
STARTCHAR ucircumflex
ENCODING 251
SWIDTH 600 0
DWIDTH 10 0
BBX 8 12 1 0
BITMAP
00F0
0368
0908
0000
300A
7009
A00D
A00C
D01C
C028
D1A8
7E24
ENDCHAR
STARTCHAR udieresis
ENCODING 252
SWIDTH 600 0
DWIDTH 10 0
BBX 8 11 1 0
BITMAP
071C
071C
0000
300A
7009
A00D
A00C
D01C
C028
D1A8
7E24
ENDCHAR
STARTCHAR yacute
ENCODING 253
SWIDTH 600 0
DWIDTH 10 0
BBX 10 15 -1 -3
BITMAP
000180
000740
001800
000000
060070
0700D0
034180
024340
018A00
01DC00
00E400
00A000
01C000
074000
7D0000
ENDCHAR
STARTCHAR thorn
ENCODING 254
SWIDTH 600 0
DWIDTH 10 0
BBX 9 14 0 -3
BITMAP
070000
060000
0A0000
0DBD00
0E4740
1C0280
280280
240340
340700
391D00
67E400
A00000
900000
D00000
ENDCHAR
STARTCHAR ydieresis
ENCODING 255
SWIDTH 600 0
DWIDTH 10 0
BBX 10 14 -1 -3
BITMAP
0071C0
006180
000000
060070
0700D0
034180
024340
018A00
01DC00
00E400
00A000
01C000
074000
7D0000
ENDCHAR
STARTCHAR Amacron
ENCODING 256
SWIDTH 600 0
DWIDTH 10 0
BBX 9 13 0 0
BITMAP
00BF40
000000
000000
003800
00AC00
00CC00
024D00
070900
090900
1FFE00
340600
A00700
D00700
ENDCHAR
STARTCHAR amacron
ENCODING 257
SWIDTH 600 0
DWIDTH 10 0
BBX 8 11 1 0
BITMAP
03FC
0000
0000
0BE6
281E
7009
D00C
C01C
D018
E0B8
6E64
ENDCHAR
STARTCHAR Abreve
ENCODING 258
SWIDTH 600 0
DWIDTH 10 0
BBX 9 13 0 0
BITMAP
008180
007E00
000000
003800
00AC00
00CC00
024D00
070900
090900
1FFE00
340600
A00700
D00700
ENDCHAR
STARTCHAR abreve
ENCODING 259
SWIDTH 600 0
DWIDTH 10 0
BBX 8 12 1 0
BITMAP
0206
0349
01F4
0000
0BE6
281E
7009
D00C
C01C
D018
E0B8
6E64
ENDCHAR
STARTCHAR Aogonek
ENCODING 260
SWIDTH 600 0
DWIDTH 10 0
BBX 8 14 0 -4
BITMAP
0038
00AC
00CC
024D
0709
0909
1FFE
3406
A007
D007
0009
0014
0024
001E
ENDCHAR
STARTCHAR aogonek
ENCODING 261
SWIDTH 600 0
DWIDTH 10 0
BBX 8 12 1 -4
BITMAP
0BE6
281E
7009
D00C
C01C
D018
E0B8
6E64
0060
0180
0280
01F0
ENDCHAR
STARTCHAR Cacute
ENCODING 262
SWIDTH 600 0
DWIDTH 10 0
BBX 8 14 1 0
BITMAP
0006
001D
0024
0000
01FD
0A47
2800
7400
A000
A000
A000
A000
3818
0BE0
ENDCHAR
STARTCHAR cacute
ENCODING 263
SWIDTH 600 0
DWIDTH 10 0
BBX 8 12 1 0
BITMAP
0009
0038
0090
0000
06F8
2D09
7000
9000
D000
A000
7428
1BE0
ENDCHAR
STARTCHAR Ccircumflex
ENCODING 264
SWIDTH 600 0
DWIDTH 10 0
BBX 8 13 1 0
BITMAP
007D
0186
0000
01FD
0A47
2800
7400
A000
A000
A000
A000
3818
0BE0
ENDCHAR
STARTCHAR ccircumflex
ENCODING 265
SWIDTH 600 0
DWIDTH 10 0
BBX 8 12 1 0
BITMAP
00B4
029C
0205
0000
06F8
2D09
7000
9000
D000
A000
7428
1BE0
ENDCHAR
STARTCHAR Cdotaccent
ENCODING 266
SWIDTH 600 0
DWIDTH 10 0
BBX 8 13 1 0
BITMAP
0024
0024
0000
01FD
0A47
2800
7400
A000
A000
A000
A000
3818
0BE0
ENDCHAR
STARTCHAR cdotaccent
ENCODING 267
SWIDTH 600 0
DWIDTH 10 0
BBX 8 11 1 0
BITMAP
0070
00B0
0000
06F8
2D09
7000
9000
D000
A000
7428
1BE0
ENDCHAR
STARTCHAR Ccaron
ENCODING 268
SWIDTH 600 0
DWIDTH 10 0
BBX 9 13 1 0
BITMAP
008240
007900
000000
01FD00
0A4700
280000
740000
A00000
A00000
A00000
A00000
381800
0BE000
ENDCHAR
STARTCHAR ccaron
ENCODING 269
SWIDTH 600 0
DWIDTH 10 0
BBX 8 12 1 0
BITMAP
0206
019D
00B4
0000
06F8
2D09
7000
9000
D000
A000
7428
1BE0
ENDCHAR
STARTCHAR Dcaron
ENCODING 270
SWIDTH 600 0
DWIDTH 10 0
BBX 9 13 0 0
BITMAP
009240
003D00
000000
0BF900
0D0B40
0D0280
1C01C0
1801C0
280280
340340
300700
706D00
BFE000
ENDCHAR
STARTCHAR dcaron
ENCODING 271
SWIDTH 600 0
DWIDTH 10 0
BBX 12 13 0 0
BITMAP
00000A
000009
0001CC
000198
000280
02F740
0E0B00
280700
340A00
700A00
700D00
346C00
1F9C00
ENDCHAR
STARTCHAR Dcroat
ENCODING 272
SWIDTH 600 0
DWIDTH 10 0
BBX 9 10 0 0
BITMAP
07F900
0A0740
0D01C0
0C01C0
7FD0C0
1801C0
280280
340740
301D00
7FE400
ENDCHAR
STARTCHAR dcroat
ENCODING 273
SWIDTH 600 0
DWIDTH 10 0
BBX 11 11 0 0
BITMAP
000090
002AF4
0001C0
02FA80
0E0B80
280340
340300
700700
300A00
382E00
1B9900
ENDCHAR
STARTCHAR Emacron
ENCODING 274
SWIDTH 600 0
DWIDTH 10 0
BBX 9 13 1 0
BITMAP
01FE00
000000
000000
0FFF40
1C0000
180000
280000
3FF800
300000
700000
A00000
A00000
FFF800
ENDCHAR
STARTCHAR emacron
ENCODING 275
SWIDTH 600 0
DWIDTH 10 0
BBX 8 11 1 0
BITMAP
03FC
0000
0000
07E4
291C
6009
BFFD
D000
D000
B424
2FE0
ENDCHAR
STARTCHAR Ebreve
ENCODING 276
SWIDTH 600 0
DWIDTH 10 0
BBX 9 13 1 0
BITMAP
018200
00BD00
000000
0FFF40
1C0000
180000
280000
3FF800
300000
700000
A00000
A00000
FFF800
ENDCHAR
STARTCHAR ebreve
ENCODING 277
SWIDTH 600 0
DWIDTH 10 0
BBX 8 12 1 0
BITMAP
0606
035C
01F4
0000
07E4
291C
6009
BFFD
D000
D000
B424
2FE0
ENDCHAR
STARTCHAR Edotaccent
ENCODING 278
SWIDTH 600 0
DWIDTH 10 0
BBX 9 13 1 0
BITMAP
002400
003400
000000
0FFF40
1C0000
180000
280000
3FF800
300000
700000
A00000
A00000
FFF800
ENDCHAR
STARTCHAR edotaccent
ENCODING 279
SWIDTH 600 0
DWIDTH 10 0
BBX 8 11 1 0
BITMAP
00A0
00A0
0000
07E4
291C
6009
BFFD
D000
D000
B424
2FE0
ENDCHAR
STARTCHAR Eogonek
ENCODING 280
SWIDTH 600 0
DWIDTH 10 0
BBX 9 14 1 -4
BITMAP
0FFF40
1C0000
180000
280000
3FF800
300000
700000
A00000
A00000
FFF800
005000
018000
028000
01F000
ENDCHAR
STARTCHAR eogonek
ENCODING 281
SWIDTH 600 0
DWIDTH 10 0
BBX 8 12 1 -4
BITMAP
07E4
291C
6009
BFFD
D000
D000
B424
2FE0
0180
0300
0300
02E0
ENDCHAR
STARTCHAR Ecaron
ENCODING 282
SWIDTH 600 0
DWIDTH 10 0
BBX 9 13 1 0
BITMAP
008240
007900
000000
0FFF40
1C0000
180000
280000
3FF800
300000
700000
A00000
A00000
FFF800
ENDCHAR
STARTCHAR ecaron
ENCODING 283
SWIDTH 600 0
DWIDTH 10 0
BBX 8 12 1 0
BITMAP
0205
0258
00F0
0000
07E4
291C
6009
BFFD
D000
D000
B424
2FE0
ENDCHAR
STARTCHAR Gcircumflex
ENCODING 284
SWIDTH 600 0
DWIDTH 10 0
BBX 8 13 1 0
BITMAP
00AC
0246
0000
02F9
1E06
3800
7000
9000
D0BE
D009
A00C
741C
1BE4
ENDCHAR
STARTCHAR gcircumflex
ENCODING 285
SWIDTH 600 0
DWIDTH 10 0
BBX 9 15 0 -3
BITMAP
002D00
00A700
018240
000000
02F980
0E0780
280340
340300
340700
340A00
2D6A00
064900
000C00
507800
6F9000
ENDCHAR
STARTCHAR Gbreve
ENCODING 286
SWIDTH 600 0
DWIDTH 10 0
BBX 8 13 1 0
BITMAP
0146
00B9
0000
02F9
1E06
3800
7000
9000
D0BE
D009
A00C
741C
1BE4
ENDCHAR
STARTCHAR gbreve
ENCODING 287
SWIDTH 600 0
DWIDTH 10 0
BBX 9 15 0 -3
BITMAP
008180
00D240
007D00
000000
02F980
0E0780
280340
340300
340700
340A00
2D6A00
064900
000C00
507800
6F9000
ENDCHAR
STARTCHAR Gdotaccent
ENCODING 288
SWIDTH 600 0
DWIDTH 10 0
BBX 8 13 1 0
BITMAP
0034
0034
0000
02F9
1E06
3800
7000
9000
D0BE
D009
A00C
741C
1BE4
ENDCHAR
STARTCHAR gdotaccent
ENCODING 289
SWIDTH 600 0
DWIDTH 10 0
BBX 9 14 0 -3
BITMAP
002C00
002800
000000
02F980
0E0780
280340
340300
340700
340A00
2D6A00
064900
000C00
507800
6F9000
ENDCHAR
STARTCHAR uni0122
ENCODING 290
SWIDTH 600 0
DWIDTH 10 0
BBX 8 14 1 -4
BITMAP
02F9
1E06
3800
7000
9000
D0BE
D009
A00C
741C
1BE4
0000
0740
0280
1E00
ENDCHAR
STARTCHAR uni0123
ENCODING 291
SWIDTH 600 0
DWIDTH 10 0
BBX 9 15 0 -3
BITMAP
000900
003400
002400
000000
02F980
0E0780
280340
340300
340700
340A00
2D6A00
064900
000C00
507800
6F9000
ENDCHAR
STARTCHAR Hcircumflex
ENCODING 292
SWIDTH 600 0
DWIDTH 10 0
BBX 10 13 0 0
BITMAP
002E00
009240
000000
0A00D0
0D01C0
0C01C0
1C0280
2FFF40
240340
340700
700700
600A00
A00D00
ENDCHAR
STARTCHAR hcircumflex
ENCODING 293
SWIDTH 600 0
DWIDTH 10 0
BBX 9 14 0 0
BITMAP
07C000
186000
000000
070000
060000
0A0000
0D6E00
0E4340
1D0240
180340
240300
340700
300A00
700900
ENDCHAR
STARTCHAR Hbar
ENCODING 294
SWIDTH 600 0
DWIDTH 10 0
BBX 10 10 0 0
BITMAP
0900D0
7FFFF0
1C0180
180280
2FFF40
340340
340700
700600
600A00
A00D00
ENDCHAR
STARTCHAR hbar
ENCODING 295
SWIDTH 600 0
DWIDTH 10 0
BBX 9 11 0 0
BITMAP
070000
2FFC00
090000
0D7E00
0E4340
1D0340
280340
240700
340700
300A00
700900
ENDCHAR
STARTCHAR Itilde
ENCODING 296
SWIDTH 600 0
DWIDTH 10 0
BBX 9 13 0 0
BITMAP
00F8C0
014B40
000000
07FFC0
003400
007000
006000
00A000
00D000
00C000
01C000
028000
7FFC00
ENDCHAR
STARTCHAR itilde
ENCODING 297
SWIDTH 600 0
DWIDTH 10 0
BBX 8 12 1 0
BITMAP
0100
0AC9
0878
0000
7F80
0280
0240
0300
0700
0600
0700
02F4
ENDCHAR
STARTCHAR Imacron
ENCODING 298
SWIDTH 600 0
DWIDTH 10 0
BBX 9 13 0 0
BITMAP
00BF40
000000
000000
07FFC0
003400
007000
006000
00A000
00D000
00C000
01C000
028000
7FFC00
ENDCHAR
STARTCHAR imacron
ENCODING 299
SWIDTH 600 0
DWIDTH 10 0
BBX 7 11 1 0
BITMAP
0BF8
0000
0000
7F80
0280
0240
0300
0700
0600
0700
02F4
ENDCHAR
STARTCHAR Ibreve
ENCODING 300
SWIDTH 600 0
DWIDTH 10 0
BBX 9 13 0 0
BITMAP
008180
007E00
000000
07FFC0
003400
007000
006000
00A000
00D000
00C000
01C000
028000
7FFC00
ENDCHAR
STARTCHAR ibreve
ENCODING 301
SWIDTH 600 0
DWIDTH 10 0
BBX 8 12 1 0
BITMAP
0909
0A18
02E0
0000
7F80
0280
0240
0300
0700
0600
0700
02F4
ENDCHAR
STARTCHAR Iogonek
ENCODING 302
SWIDTH 600 0
DWIDTH 10 0
BBX 9 14 0 -4
BITMAP
07FFC0
003400
007000
006000
00A000
00D000
00C000
01C000
028000
7FFC00
020000
080000
0C0000
0B8000
ENDCHAR
STARTCHAR iogonek
ENCODING 303
SWIDTH 600 0
DWIDTH 10 0
BBX 7 15 1 -4
BITMAP
01D0
01D0
0000
7F80
0280
0240
0300
0700
0600
0700
02F4
0090
0240
0340
02E0
ENDCHAR
STARTCHAR Idotaccent
ENCODING 304
SWIDTH 600 0
DWIDTH 10 0
BBX 9 13 0 0
BITMAP
001C00
001C00
000000
07FFC0
003400
007000
006000
00A000
00D000
00C000
01C000
028000
7FFC00
ENDCHAR
STARTCHAR dotlessi
ENCODING 305
SWIDTH 600 0
DWIDTH 10 0
BBX 7 8 1 0
BITMAP
7F80
0280
0240
0300
0700
0600
0700
02F4
ENDCHAR
STARTCHAR IJ
ENCODING 306
SWIDTH 600 0
DWIDTH 10 0
BBX 9 13 0 -3
BITMAP
0701C0
0A0180
0A0280
0D0340
0C0300
1C0700
280A00
240A00
340D00
700C00
001C00
002800
01E000
ENDCHAR
STARTCHAR ij
ENCODING 307
SWIDTH 600 0
DWIDTH 10 0
BBX 8 14 1 -3
BITMAP
0E0A
0D0E
0000
181C
2828
3424
3034
7030
6070
A0A0
D090
00D0
01C0
0F40
ENDCHAR
STARTCHAR Jcircumflex
ENCODING 308
SWIDTH 600 0
DWIDTH 10 0
BBX 9 13 0 0
BITMAP
002E00
009240
000000
03FF80
000340
000300
000700
000A00
000900
000D00
001C00
747400
2F9000
ENDCHAR
STARTCHAR jcircumflex
ENCODING 309
SWIDTH 600 0
DWIDTH 10 0
BBX 9 15 0 -3
BITMAP
001F00
003640
009080
000000
0BFC00
001800
002800
003400
003400
007000
006000
00A000
00D000
428000
BE0000
ENDCHAR
STARTCHAR uni0136
ENCODING 310
SWIDTH 600 0
DWIDTH 10 0
BBX 10 14 0 -4
BITMAP
0700D0
0A0740
091D00
0D7400
1DE000
1F7400
282800
241C00
340A00
700700
000000
01D000
009000
078000
ENDCHAR
STARTCHAR uni0137
ENCODING 311
SWIDTH 600 0
DWIDTH 10 0
BBX 8 15 1 -4
BITMAP
0D00
1C00
1800
280A
3428
30E0
77C0
7DD0
B460
D034
C01C
0000
0A00
0340
2D00
ENDCHAR
STARTCHAR kgreenlandic
ENCODING 312
SWIDTH 600 0
DWIDTH 10 0
BBX 8 8 1 0
BITMAP
240A
3428
31E0
77C0
BDD0
A070
D034
C01C
ENDCHAR
STARTCHAR Lacute
ENCODING 313
SWIDTH 600 0
DWIDTH 10 0
BBX 7 14 1 0
BITMAP
0060
01D0
0200
0000
0600
0A00
0D00
0D00
1C00
1800
2800
3400
3000
7FFC
ENDCHAR
STARTCHAR lacute
ENCODING 314
SWIDTH 600 0
DWIDTH 10 0
BBX 6 15 2 0
BITMAP
0060
01E0
0240
0000
BF00
0700
0600
0900
0D00
0C00
1800
2800
2400
2840
1F80
ENDCHAR
STARTCHAR uni013B
ENCODING 315
SWIDTH 600 0
DWIDTH 10 0
BBX 7 14 1 -4
BITMAP
0600
0A00
0D00
0D00
1C00
1800
2800
3400
3000
7FFC
0000
0340
0280
0E00
ENDCHAR
STARTCHAR uni013C
ENCODING 316
SWIDTH 600 0
DWIDTH 10 0
BBX 5 15 2 -4
BITMAP
BF00
0700
0600
0900
0D00
0C00
1800
2800
2400
2840
1F80
0000
0A00
0700
2900
ENDCHAR
STARTCHAR Lcaron
ENCODING 317
SWIDTH 600 0
DWIDTH 10 0
BBX 8 13 1 0
BITMAP
000A
0009
000C
0608
0A00
0D00
0D00
1C00
1800
2800
3400
3000
7FFC
ENDCHAR
STARTCHAR lcaron
ENCODING 318
SWIDTH 600 0
DWIDTH 10 0
BBX 7 13 2 0
BITMAP
000C
0018
BF18
0724
0600
0900
0D00
0C00
1800
2800
2400
2840
1F80
ENDCHAR
STARTCHAR Ldot
ENCODING 319
SWIDTH 600 0
DWIDTH 10 0
BBX 8 10 1 0
BITMAP
0600
0A00
0D00
0D00
1C0A
180E
2800
3400
3000
7FFC
ENDCHAR
STARTCHAR ldot
ENCODING 320
SWIDTH 600 0
DWIDTH 10 0
BBX 9 11 1 0
BITMAP
7F8000
034000
030000
070000
0A0000
090380
0D0380
1C0000
1C0000
1C1000
0BD000
ENDCHAR
STARTCHAR Lslash
ENCODING 321
SWIDTH 600 0
DWIDTH 10 0
BBX 7 10 1 0
BITMAP
0600
0A00
0D00
0D18
1EE0
6D00
B800
3400
3000
7FFC
ENDCHAR
STARTCHAR lslash
ENCODING 322
SWIDTH 600 0
DWIDTH 10 0
BBX 6 11 2 0
BITMAP
BF00
0700
0600
0A60
0F40
BC00
5800
2800
2400
2840
1F80
ENDCHAR
STARTCHAR Nacute
ENCODING 323
SWIDTH 600 0
DWIDTH 10 0
BBX 10 14 0 0
BITMAP
000200
000A00
002400
000000
0B00D0
0B40C0
0E8180
1DC280
18D240
28A340
347300
303A00
702E00
601D00
ENDCHAR
STARTCHAR nacute
ENCODING 324
SWIDTH 600 0
DWIDTH 10 0
BBX 9 12 0 0
BITMAP
000200
001E00
002400
000000
0C6E00
0E4340
1D0240
280340
240300
340700
300A00
700900
ENDCHAR
STARTCHAR uni0145
ENCODING 325
SWIDTH 600 0
DWIDTH 10 0
BBX 10 14 0 -4
BITMAP
0B00D0
0B40C0
0E8180
1DC280
18D240
28A340
347300
303A00
702E00
601D00
000000
038000
018000
0E0000
ENDCHAR
STARTCHAR uni0146
ENCODING 326
SWIDTH 600 0
DWIDTH 10 0
BBX 9 12 0 -4
BITMAP
0C6E00
0E4340
1D0240
280340
240300
340700
300A00
700900
000000
038000
01C000
0E4000
ENDCHAR
STARTCHAR Ncaron
ENCODING 327
SWIDTH 600 0
DWIDTH 10 0
BBX 10 13 0 0
BITMAP
009180
003D00
000000
0B00D0
0B40C0
0E8180
1DC280
18D240
28A340
347300
303A00
702E00
601D00
ENDCHAR
STARTCHAR ncaron
ENCODING 328
SWIDTH 600 0
DWIDTH 10 0
BBX 9 12 0 0
BITMAP
008180
00A700
003C00
000000
0C6E00
0E4340
1D0240
280340
240300
340700
300A00
700900
ENDCHAR
STARTCHAR napostrophe
ENCODING 329
SWIDTH 600 0
DWIDTH 10 0
BBX 10 11 0 0
BITMAP
2D0000
3D0000
0D0000
798BD0
91A4A0
0280A0
0340A0
0300D0
0700C0
0601C0
0A0180
ENDCHAR
STARTCHAR Eng
ENCODING 330
SWIDTH 600 0
DWIDTH 10 0
BBX 9 10 0 0
BITMAP
0ABE00
0F4780
0C01C0
1C01C0
2801C0
240280
340340
700700
700D00
A0F800
ENDCHAR
STARTCHAR eng
ENCODING 331
SWIDTH 600 0
DWIDTH 10 0
BBX 9 11 0 -3
BITMAP
0C6E00
0E4340
1D0240
280340
240300
340700
300A00
700900
000D00
001C00
00F400
ENDCHAR
STARTCHAR Omacron
ENCODING 332
SWIDTH 600 0
DWIDTH 10 0
BBX 9 13 0 0
BITMAP
00BF40
000000
000000
01BD00
0B4740
1C01C0
2801C0
3401C0
7001C0
700280
300700
281D00
0BE400
ENDCHAR
STARTCHAR omacron
ENCODING 333
SWIDTH 600 0
DWIDTH 10 0
BBX 9 11 0 0
BITMAP
01FF00
000000
000000
02F800
0E0B00
280340
340240
700340
300700
281D00
0BE000
ENDCHAR
STARTCHAR Obreve
ENCODING 334
SWIDTH 600 0
DWIDTH 10 0
BBX 9 13 0 0
BITMAP
008180
007E00
000000
01BD00
0B4740
1C01C0
2801C0
3401C0
7001C0
700280
300700
281D00
0BE400
ENDCHAR
STARTCHAR obreve
ENCODING 335
SWIDTH 600 0
DWIDTH 10 0
BBX 9 12 0 0
BITMAP
018140
01C700
00B900
000000
02F800
0E0B00
280340
340240
700340
300700
281D00
0BE000
ENDCHAR
STARTCHAR Ohungarumlaut
ENCODING 336
SWIDTH 600 0
DWIDTH 10 0
BBX 10 14 0 0
BITMAP
000850
0025C0
006200
000000
01BD00
0B4740
1C01C0
2801C0
3401C0
7001C0
700280
300700
281D00
0BE400
ENDCHAR
STARTCHAR ohungarumlaut
ENCODING 337
SWIDTH 600 0
DWIDTH 10 0
BBX 9 12 0 0
BITMAP
001880
003280
009200
000000
02F800
0E0B00
280340
340240
700340
300700
281D00
0BE000
ENDCHAR
STARTCHAR OE
ENCODING 338
SWIDTH 600 0
DWIDTH 10 0
BBX 11 10 0 0
BITMAP
01BFF4
0A5C00
281800
342400
702F80
A03000
A07000
706000
389000
1BFF80
ENDCHAR
STARTCHAR oe
ENCODING 339
SWIDTH 600 0
DWIDTH 10 0
BBX 10 8 0 0
BITMAP
1B8B80
34A490
A0A060
D0BFD0
C09000
C0D000
D2A040
7D2E40
ENDCHAR
STARTCHAR Racute
ENCODING 340
SWIDTH 600 0
DWIDTH 10 0
BBX 9 14 0 0
BITMAP
000200
000E00
002400
000000
07FE00
0A0780
0D0280
0D0280
1C0B00
1FF800
287000
343400
301C00
700D00
ENDCHAR
STARTCHAR racute
ENCODING 341
SWIDTH 600 0
DWIDTH 10 0
BBX 8 12 1 0
BITMAP
0009
0028
0060
0000
0C6E
1D80
1D00
2800
2400
3400
3000
7000
ENDCHAR
STARTCHAR uni0156
ENCODING 342
SWIDTH 600 0
DWIDTH 10 0
BBX 9 14 0 -4
BITMAP
07FE00
0A0780
0D0280
0D0280
1C0B00
1FF800
287000
343400
301C00
700D00
000000
028000
01C000
0A4000
ENDCHAR
STARTCHAR uni0157
ENCODING 343
SWIDTH 600 0
DWIDTH 10 0
BBX 9 12 0 -4
BITMAP
031B80
076000
074000
0A0000
090000
0D0000
0C0000
1C0000
000000
280000
1C0000
A40000
ENDCHAR
STARTCHAR Rcaron
ENCODING 344
SWIDTH 600 0
DWIDTH 10 0
BBX 9 13 0 0
BITMAP
009180
003D00
000000
07FE00
0A0780
0D0280
0D0280
1C0B00
1FF800
287000
343400
301C00
700D00
ENDCHAR
STARTCHAR rcaron
ENCODING 345
SWIDTH 600 0
DWIDTH 10 0
BBX 8 12 1 0
BITMAP
0242
01DD
00B4
0000
0C6E
1D80
1D00
2800
2400
3400
3000
7000
ENDCHAR
STARTCHAR Sacute
ENCODING 346
SWIDTH 600 0
DWIDTH 10 0
BBX 8 14 1 0
BITMAP
0008
0078
0090
0000
07F4
1D1D
2800
1D00
0B80
01B0
0028
4028
D074
6F90
ENDCHAR
STARTCHAR sacute
ENCODING 347
SWIDTH 600 0
DWIDTH 10 0
BBX 7 12 1 0
BITMAP
0018
0074
0080
0000
0BE4
281C
3400
1E40
01B0
0028
E034
2FD0
ENDCHAR
STARTCHAR Scircumflex
ENCODING 348
SWIDTH 600 0
DWIDTH 10 0
BBX 8 13 1 0
BITMAP
01F4
0608
0000
07F4
1D1D
2800
1D00
0B80
01B0
0028
4028
D074
6F90
ENDCHAR
STARTCHAR scircumflex
ENCODING 349
SWIDTH 600 0
DWIDTH 10 0
BBX 7 12 1 0
BITMAP
00F0
0368
0908
0000
0BE4
281C
3400
1E40
01B0
0028
E034
2FD0
ENDCHAR
STARTCHAR uni015E
ENCODING 350
SWIDTH 600 0
DWIDTH 10 0
BBX 8 15 1 -5
BITMAP
07F4
1D1D
2800
1D00
0B80
01B0
0028
4028
D074
6F90
0500
0E00
0700
0A00
3800
ENDCHAR
STARTCHAR uni015F
ENCODING 351
SWIDTH 600 0
DWIDTH 10 0
BBX 7 13 1 -5
BITMAP
0BE4
281C
3400
1E40
01B0
0028
E034
2FD0
0500
0E00
0700
0600
3800
ENDCHAR
STARTCHAR Scaron
ENCODING 352
SWIDTH 600 0
DWIDTH 10 0
BBX 8 13 1 0
BITMAP
0209
01F4
0000
07F4
1D1D
2800
1D00
0B80
01B0
0028
4028
D074
6F90
ENDCHAR
STARTCHAR scaron
ENCODING 353
SWIDTH 600 0
DWIDTH 10 0
BBX 8 12 1 0
BITMAP
0605
0268
01E0
0000
0BE4
281C
3400
1E40
01B0
0028
E034
2FD0
ENDCHAR
STARTCHAR uni0162
ENCODING 354
SWIDTH 600 0
DWIDTH 10 0
BBX 9 15 1 -5
BITMAP
7FFFC0
00D000
01C000
018000
028000
034000
030000
070000
0A0000
0A0000
080000
1D0000
0A0000
090000
740000
ENDCHAR
STARTCHAR uni0163
ENCODING 355
SWIDTH 600 0
DWIDTH 10 0
BBX 8 16 1 -5
BITMAP
0240
0300
0700
BFFE
0A00
0D00
0C00
1C00
1800
1D14
0BE4
0200
0740
0280
0240
1E00
ENDCHAR
STARTCHAR Tcaron
ENCODING 356
SWIDTH 600 0
DWIDTH 10 0
BBX 9 13 1 0
BITMAP
024600
00F400
000000
7FFFC0
00D000
01C000
018000
028000
034000
030000
070000
0A0000
0A0000
ENDCHAR
STARTCHAR tcaron
ENCODING 357
SWIDTH 600 0
DWIDTH 10 0
BBX 8 13 1 0
BITMAP
000A
0009
024C
0308
0700
BFFE
0A00
0D00
0C00
1C00
1800
1D14
0BE4
ENDCHAR
STARTCHAR Tbar
ENCODING 358
SWIDTH 600 0
DWIDTH 10 0
BBX 9 10 1 0
BITMAP
7FFFC0
00D000
01C000
018000
2FF800
034000
030000
070000
0A0000
0A0000
ENDCHAR
STARTCHAR tbar
ENCODING 359
SWIDTH 600 0
DWIDTH 10 0
BBX 9 11 0 0
BITMAP
009000
00C000
01C000
2FFF80
028000
034000
7FFE00
070000
060000
074500
02F900
ENDCHAR
STARTCHAR Utilde
ENCODING 360
SWIDTH 600 0
DWIDTH 10 0
BBX 9 13 1 0
BITMAP
03E300
052D00
000000
280340
340300
300700
700A00
A00900
900D00
D01C00
D02800
A07400
2F9000
ENDCHAR
STARTCHAR utilde
ENCODING 361
SWIDTH 600 0
DWIDTH 10 0
BBX 8 12 1 0
BITMAP
0101
06D6
083C
0000
300A
7009
A00D
A00C
D01C
C028
D1A8
7E24
ENDCHAR
STARTCHAR Umacron
ENCODING 362
SWIDTH 600 0
DWIDTH 10 0
BBX 9 13 1 0
BITMAP
02FD00
000000
000000
280340
340300
300700
700A00
A00900
900D00
D01C00
D02800
A07400
2F9000
ENDCHAR
STARTCHAR umacron
ENCODING 363
SWIDTH 600 0
DWIDTH 10 0
BBX 8 11 1 0
BITMAP
07FC
0000
0000
300A
7009
A00D
A00C
D01C
C028
D1A8
7E24
ENDCHAR
STARTCHAR Ubreve
ENCODING 364
SWIDTH 600 0
DWIDTH 10 0
BBX 9 13 1 0
BITMAP
020600
01F800
000000
280340
340300
300700
700A00
A00900
900D00
D01C00
D02800
A07400
2F9000
ENDCHAR
STARTCHAR ubreve
ENCODING 365
SWIDTH 600 0
DWIDTH 10 0
BBX 8 12 1 0
BITMAP
0605
071C
02E4
0000
300A
7009
A00D
A00C
D01C
C028
D1A8
7E24
ENDCHAR
STARTCHAR Uring
ENCODING 366
SWIDTH 600 0
DWIDTH 10 0
BBX 9 15 1 0
BITMAP
007400
008800
008800
00B400
000000
280340
340300
300700
700A00
A00900
900D00
D01C00
D02800
A07400
2F9000
ENDCHAR
STARTCHAR uring
ENCODING 367
SWIDTH 600 0
DWIDTH 10 0
BBX 8 13 1 0
BITMAP
00F4
0258
0264
01E0
0000
300A
7009
A00D
A00C
D01C
C028
D1A8
7E24
ENDCHAR
STARTCHAR Uhungarumlaut
ENCODING 368
SWIDTH 600 0
DWIDTH 10 0
BBX 9 14 1 0
BITMAP
002140
009700
018800
000000
280340
340300
300700
700A00
A00900
900D00
D01C00
D02800
A07400
2F9000
ENDCHAR
STARTCHAR uhungarumlaut
ENCODING 369
SWIDTH 600 0
DWIDTH 10 0
BBX 8 12 1 0
BITMAP
0062
00CA
0248
0000
300A
7009
A00D
A00C
D01C
C028
D1A8
7E24
ENDCHAR
STARTCHAR Uogonek
ENCODING 370
SWIDTH 600 0
DWIDTH 10 0
BBX 9 14 1 -4
BITMAP
280340
340300
300700
700A00
A00900
A00D00
D00C00
D01800
902400
299000
090000
200000
300000
2E0000
ENDCHAR
STARTCHAR uogonek
ENCODING 371
SWIDTH 600 0
DWIDTH 10 0
BBX 8 12 1 -4
BITMAP
300A
7009
A00D
A00C
D01C
C028
D1A8
7E24
0050
0140
0240
01E0
ENDCHAR
STARTCHAR Wcircumflex
ENCODING 372
SWIDTH 600 0
DWIDTH 10 0
BBX 9 13 1 0
BITMAP
00B800
020900
000000
A000C0
A00180
904240
92C300
92C600
D9C900
DC9C00
D89800
F0A800
E0B400
ENDCHAR
STARTCHAR wcircumflex
ENCODING 373
SWIDTH 600 0
DWIDTH 10 0
BBX 10 12 0 0
BITMAP
007C00
00D900
024200
000000
706060
70B090
71B1C0
727280
333300
363600
383900
383C00
ENDCHAR
STARTCHAR Ycircumflex
ENCODING 374
SWIDTH 600 0
DWIDTH 10 0
BBX 8 13 2 0
BITMAP
07D0
1820
0000
D00A
A01C
6034
3090
2680
1F00
0D00
1C00
1800
2800
ENDCHAR
STARTCHAR ycircumflex
ENCODING 375
SWIDTH 600 0
DWIDTH 10 0
BBX 10 15 -1 -3
BITMAP
001F00
003640
009080
000000
060070
0700D0
034180
024340
018A00
01DC00
00E400
00A000
01C000
074000
7D0000
ENDCHAR
STARTCHAR Ydieresis
ENCODING 376
SWIDTH 600 0
DWIDTH 10 0
BBX 8 13 2 0
BITMAP
0D30
0C30
0000
D00A
A01C
6034
3090
2680
1F00
0D00
1C00
1800
2800
ENDCHAR
STARTCHAR Zacute
ENCODING 377
SWIDTH 600 0
DWIDTH 10 0
BBX 10 14 0 0
BITMAP
000200
001E00
002400
000000
0FFFD0
000380
000A00
002800
007000
01D000
074000
0D0000
380000
BFFF00
ENDCHAR
STARTCHAR zacute
ENCODING 378
SWIDTH 600 0
DWIDTH 10 0
BBX 9 12 0 0
BITMAP
000600
001D00
002000
000000
0FFF40
000A00
002800
00A000
028000
0A0000
280000
7FFE00
ENDCHAR
STARTCHAR Zdotaccent
ENCODING 379
SWIDTH 600 0
DWIDTH 10 0
BBX 10 13 0 0
BITMAP
002800
002800
000000
0FFFD0
000380
000A00
002800
007000
01D000
074000
0D0000
380000
BFFF00
ENDCHAR
STARTCHAR zdotaccent
ENCODING 380
SWIDTH 600 0
DWIDTH 10 0
BBX 9 11 0 0
BITMAP
003800
003800
000000
0FFF40
000A00
002800
00A000
028000
0A0000
280000
7FFE00
ENDCHAR
STARTCHAR Zcaron
ENCODING 381
SWIDTH 600 0
DWIDTH 10 0
BBX 10 13 0 0
BITMAP
009240
007D00
000000
0FFFD0
000380
000A00
002800
007000
01D000
074000
0D0000
380000
BFFF00
ENDCHAR
STARTCHAR zcaron
ENCODING 382
SWIDTH 600 0
DWIDTH 10 0
BBX 9 12 0 0
BITMAP
018240
00DA00
007800
000000
0FFF40
000A00
002800
00A000
028000
0A0000
280000
7FFE00
ENDCHAR
STARTCHAR longs
ENCODING 383
SWIDTH 600 0
DWIDTH 10 0
BBX 8 11 2 0
BITMAP
01BE
0741
0A00
FE00
0D00
1C00
1C00
2800
2400
3400
7000
ENDCHAR
STARTCHAR uni0180
ENCODING 384
SWIDTH 600 0
DWIDTH 10 0
BBX 9 11 0 0
BITMAP
070000
2FFC00
090000
0DBD00
0E4740
1C0280
280280
240340
340700
381D00
67E400
ENDCHAR
STARTCHAR uni018A
ENCODING 394
SWIDTH 600 0
DWIDTH 10 0
BBX 10 10 0 0
BITMAP
06F900
1DD780
34C1D0
61C0D0
6280D0
3640C0
0341C0
070340
061D00
0BE400
ENDCHAR
STARTCHAR uni018F
ENCODING 399
SWIDTH 600 0
DWIDTH 10 0
BBX 8 10 1 0
BITMAP
06F8
191E
0007
0007
0007
FFFE
C009
D01C
A074
2F80
ENDCHAR
STARTCHAR uni0192
ENCODING 402
SWIDTH 600 0
DWIDTH 10 0
BBX 11 12 -1 -2
BITMAP
0002F4
000A00
000C00
01FFC0
002400
003000
006000
00A000
00D000
01C000
024000
7E0000
ENDCHAR
STARTCHAR uni0193
ENCODING 403
SWIDTH 600 0
DWIDTH 10 0
BBX 10 13 1 0
BITMAP
0002D0
000300
000600
02FE00
1E0700
380000
700000
900000
D0BE00
D00900
A00C00
741C00
1BE400
ENDCHAR
STARTCHAR Ohorn
ENCODING 416
SWIDTH 600 0
DWIDTH 10 0
BBX 10 12 0 0
BITMAP
000020
000030
01BE90
0B4740
1C01C0
2801C0
3401C0
7001C0
700280
300700
281D00
0BE400
ENDCHAR
STARTCHAR ohorn
ENCODING 417
SWIDTH 600 0
DWIDTH 10 0
BBX 10 10 0 0
BITMAP
000050
000090
02FA40
0E0B00
280340
340240
700340
300700
281D00
0BE400
ENDCHAR
STARTCHAR Uhorn
ENCODING 431
SWIDTH 600 0
DWIDTH 10 0
BBX 11 13 1 0
BITMAP
000024
000024
000060
280380
340300
300700
700A00
A00A00
900D00
D01D00
D02C00
A07400
2F9000
ENDCHAR
STARTCHAR uhorn
ENCODING 432
SWIDTH 600 0
DWIDTH 10 0
BBX 10 11 1 0
BITMAP
000050
000090
0001D0
300B40
700A00
A00D00
A00C00
D01C00
C02800
D1A800
7E2400
ENDCHAR
STARTCHAR uni01C2
ENCODING 450
SWIDTH 600 0
DWIDTH 10 0
BBX 8 14 1 -3
BITMAP
00A0
0090
00D0
01C0
0180
7FFD
0240
0340
FFF8
0600
0A00
0D00
0C00
1C00
ENDCHAR
STARTCHAR uni01CD
ENCODING 461
SWIDTH 600 0
DWIDTH 10 0
BBX 9 13 0 0
BITMAP
009180
003D00
000000
003800
00AC00
00CC00
024D00
070900
090900
1FFE00
340600
A00700
D00700
ENDCHAR
STARTCHAR uni01CE
ENCODING 462
SWIDTH 600 0
DWIDTH 10 0
BBX 8 12 1 0
BITMAP
0206
029C
00F0
0000
0BE6
281E
7009
D00C
C01C
D018
E0B8
6E64
ENDCHAR
STARTCHAR uni01CF
ENCODING 463
SWIDTH 600 0
DWIDTH 10 0
BBX 9 13 0 0
BITMAP
009180
003D00
000000
07FFC0
003400
007000
006000
00A000
00D000
00C000
01C000
028000
7FFC00
ENDCHAR
STARTCHAR uni01D0
ENCODING 464
SWIDTH 600 0
DWIDTH 10 0
BBX 7 12 1 0
BITMAP
0508
0364
02E0
0000
7F80
0280
0240
0300
0700
0600
0700
02F4
ENDCHAR
STARTCHAR uni01D1
ENCODING 465
SWIDTH 600 0
DWIDTH 10 0
BBX 9 13 0 0
BITMAP
009180
003D00
000000
01BD00
0B4740
1C01C0
2801C0
3401C0
7001C0
700280
300700
281D00
0BE400
ENDCHAR
STARTCHAR uni01D2
ENCODING 466
SWIDTH 600 0
DWIDTH 10 0
BBX 9 12 0 0
BITMAP
018140
009A00
007800
000000
02F800
0E0B00
280340
340240
700340
300700
281D00
0BE000
ENDCHAR
STARTCHAR uni01D3
ENCODING 467
SWIDTH 600 0
DWIDTH 10 0
BBX 9 13 1 0
BITMAP
024600
00F400
000000
280340
340300
300700
700A00
A00900
900D00
D01C00
D02800
A07400
2F9000
ENDCHAR
STARTCHAR uni01D4
ENCODING 468
SWIDTH 600 0
DWIDTH 10 0
BBX 8 12 1 0
BITMAP
0605
0368
01E0
0000
300A
7009
A00D
A00C
D01C
C028
D1A8
7E24
ENDCHAR
STARTCHAR uni01D5
ENCODING 469
SWIDTH 600 0
DWIDTH 10 0
BBX 9 15 1 0
BITMAP
02FE00
000000
024800
000000
000000
280340
340300
300700
700A00
A00900
900D00
D01C00
D02800
A07400
2F9000
ENDCHAR
STARTCHAR uni01D6
ENCODING 470
SWIDTH 600 0
DWIDTH 10 0
BBX 8 13 1 0
BITMAP
02FD
0000
0218
0000
0000
300A
7009
A00D
A00C
D01C
C028
D1A8
7E24
ENDCHAR
STARTCHAR uni01D7
ENCODING 471
SWIDTH 600 0
DWIDTH 10 0
BBX 9 15 1 0
BITMAP
000800
002400
024800
000000
000000
280340
340300
300700
700A00
A00900
900D00
D01C00
D02800
A07400
2F9000
ENDCHAR
STARTCHAR uni01D8
ENCODING 472
SWIDTH 600 0
DWIDTH 10 0
BBX 8 13 1 0
BITMAP
0018
0020
0218
0000
0000
300A
7009
A00D
A00C
D01C
C028
D1A8
7E24
ENDCHAR
STARTCHAR uni01D9
ENCODING 473
SWIDTH 600 0
DWIDTH 10 0
BBX 9 15 1 0
BITMAP
008500
00B800
024800
000000
000000
280340
340300
300700
700A00
A00900
900D00
D01C00
D02800
A07400
2F9000
ENDCHAR
STARTCHAR uni01DA
ENCODING 474
SWIDTH 600 0
DWIDTH 10 0
BBX 8 13 1 0
BITMAP
0249
00B4
0218
0000
0000
300A
7009
A00D
A00C
D01C
C028
D1A8
7E24
ENDCHAR
STARTCHAR uni01DB
ENCODING 475
SWIDTH 600 0
DWIDTH 10 0
BBX 9 15 1 0
BITMAP
009000
002000
024800
000000
000000
280340
340300
300700
700A00
A00900
900D00
D01C00
D02800
A07400
2F9000
ENDCHAR
STARTCHAR uni01DC
ENCODING 476
SWIDTH 600 0
DWIDTH 10 0
BBX 8 13 1 0
BITMAP
0080
0050
0218
0000
0000
300A
7009
A00D
A00C
D01C
C028
D1A8
7E24
ENDCHAR
STARTCHAR uni01E2
ENCODING 482
SWIDTH 600 0
DWIDTH 10 0
BBX 12 13 -1 0
BITMAP
0003FC
000000
000000
000FFD
002B00
007600
009A00
018BE0
030C00
0BFC00
181800
342800
A02FE0
ENDCHAR
STARTCHAR uni01E3
ENCODING 483
SWIDTH 600 0
DWIDTH 10 0
BBX 11 11 -1 0
BITMAP
007FC0
000000
000000
07E2E0
043D24
002818
06BAB4
2D3550
703000
71B450
2E5F90
ENDCHAR
STARTCHAR Gcaron
ENCODING 486
SWIDTH 600 0
DWIDTH 10 0
BBX 8 13 1 0
BITMAP
0186
00B8
0000
02F9
1E06
3800
7000
9000
D0BE
D009
A00C
741C
1BE4
ENDCHAR
STARTCHAR gcaron
ENCODING 487
SWIDTH 600 0
DWIDTH 10 0
BBX 9 15 0 -3
BITMAP
008180
00A700
003C00
000000
02F980
0E0780
280340
340300
340700
340A00
2D6A00
064900
000C00
507800
6F9000
ENDCHAR
STARTCHAR uni01EA
ENCODING 490
SWIDTH 600 0
DWIDTH 10 0
BBX 9 14 0 -4
BITMAP
01BD00
0B4740
1C01C0
2801C0
3401C0
7001C0
700280
300700
281D00
0BE400
020000
080000
0C0000
0B8000
ENDCHAR
STARTCHAR uni01EB
ENCODING 491
SWIDTH 600 0
DWIDTH 10 0
BBX 9 12 0 -4
BITMAP
02F800
0E0B00
280340
340240
700340
300700
281D00
0BE400
060000
080000
0C0000
0B8000
ENDCHAR
STARTCHAR uni01F4
ENCODING 500
SWIDTH 600 0
DWIDTH 10 0
BBX 8 14 1 0
BITMAP
0005
002D
0060
0000
02F9
1E06
3800
7000
9000
D0BE
D009
A00C
741C
1BE4
ENDCHAR
STARTCHAR uni01F5
ENCODING 501
SWIDTH 600 0
DWIDTH 10 0
BBX 9 15 0 -3
BITMAP
000200
001E00
002400
000000
02F980
0E0780
280340
340300
340700
340A00
2D6A00
064900
000C00
507800
6F9000
ENDCHAR
STARTCHAR uni01F8
ENCODING 504
SWIDTH 600 0
DWIDTH 10 0
BBX 10 14 0 0
BITMAP
006000
003400
000800
000000
0B00D0
0B40C0
0E8180
1DC280
18D240
28A340
347300
303A00
702E00
601D00
ENDCHAR
STARTCHAR uni01F9
ENCODING 505
SWIDTH 600 0
DWIDTH 10 0
BBX 9 12 0 0
BITMAP
006000
003400
000800
000000
0C6E00
0E4340
1D0240
280340
240300
340700
300A00
700900
ENDCHAR
STARTCHAR Aringacute
ENCODING 506
SWIDTH 600 0
DWIDTH 10 0
BBX 9 15 0 0
BITMAP
000740
001500
002200
002D00
000000
003800
00AC00
00CC00
024D00
070900
090900
1FFE00
340600
A00700
D00700
ENDCHAR
STARTCHAR aringacute
ENCODING 507
SWIDTH 600 0
DWIDTH 10 0
BBX 8 14 1 0
BITMAP
0004
0028
00F4
0158
01F4
0000
0BE6
281E
7009
D00C
C01C
D028
E0B8
6E64
ENDCHAR
STARTCHAR AEacute
ENCODING 508
SWIDTH 600 0
DWIDTH 10 0
BBX 12 14 -1 0
BITMAP
000008
000078
000090
000000
000FFD
002B00
007600
009A00
018BE0
030C00
0BFC00
181800
342800
A02FE0
ENDCHAR
STARTCHAR aeacute
ENCODING 509
SWIDTH 600 0
DWIDTH 10 0
BBX 11 12 -1 0
BITMAP
000180
000740
000800
000000
07E2E0
043D24
002818
06BAB4
2D3550
703000
71B450
2E5F90
ENDCHAR
STARTCHAR Oslashacute
ENCODING 510
SWIDTH 600 0
DWIDTH 10 0
BBX 10 15 0 -1
BITMAP
000200
000A00
002400
000010
01BDA0
0B4780
1C07C0
281DC0
3071C0
71C1C0
774280
3D0700
381D00
DBE400
400000
ENDCHAR
STARTCHAR oslashacute
ENCODING 511
SWIDTH 600 0
DWIDTH 10 0
BBX 9 12 0 0
BITMAP
000600
001D00
002000
000000
02F9C0
0E0B40
282F40
30A240
728340
3A0700
3C1D00
ABE400
ENDCHAR
STARTCHAR uni0218
ENCODING 536
SWIDTH 600 0
DWIDTH 10 0
BBX 8 14 1 -4
BITMAP
07F4
1D1D
2800
1D00
0B80
01B0
0028
4028
D074
6F90
0000
0A00
0700
2900
ENDCHAR
STARTCHAR uni0219
ENCODING 537
SWIDTH 600 0
DWIDTH 10 0
BBX 7 12 1 -4
BITMAP
0BE4
281C
3400
1E40
01B0
0028
E034
2FD0
0000
0A00
0700
2900
ENDCHAR
STARTCHAR uni021A
ENCODING 538
SWIDTH 600 0
DWIDTH 10 0
BBX 9 14 1 -4
BITMAP
7FFFC0
00D000
01C000
018000
028000
034000
030000
070000
0A0000
0A0000
000000
1D0000
0A0000
780000
ENDCHAR
STARTCHAR uni021B
ENCODING 539
SWIDTH 600 0
DWIDTH 10 0
BBX 8 15 1 -4
BITMAP
0240
0300
0700
BFFE
0A00
0D00
0C00
1C00
1800
1D14
0BE4
0000
0340
0280
0E00
ENDCHAR
STARTCHAR uni0237
ENCODING 567
SWIDTH 600 0
DWIDTH 10 0
BBX 7 11 0 -3
BITMAP
0BFC
0018
0028
0034
0034
0070
0060
00A0
00D0
4280
BE00
ENDCHAR
STARTCHAR uni0243
ENCODING 579
SWIDTH 600 0
DWIDTH 10 0
BBX 9 10 0 0
BITMAP
07FE00
0A0780
090280
0D0740
1FF800
180B00
FFC340
340340
341A00
7FE400
ENDCHAR
STARTCHAR uni0250
ENCODING 592
SWIDTH 600 0
DWIDTH 10 0
BBX 8 8 1 0
BITMAP
32F8
790D
700D
A168
BE90
D000
A060
6F90
ENDCHAR
STARTCHAR uni0251
ENCODING 593
SWIDTH 600 0
DWIDTH 10 0
BBX 8 8 1 0
BITMAP
0BE6
281E
7009
D00C
C01C
D018
E0B8
6E64
ENDCHAR
STARTCHAR uni0252
ENCODING 594
SWIDTH 600 0
DWIDTH 10 0
BBX 9 8 0 0
BITMAP
0CBD00
0E4740
1C0280
280280
240340
340700
381D00
67E400
ENDCHAR
STARTCHAR uni0253
ENCODING 595
SWIDTH 600 0
DWIDTH 10 0
BBX 9 11 0 0
BITMAP
01B800
074000
0A0000
0DBD00
0E4740
1C0280
180280
240340
340700
381D00
67E400
ENDCHAR
STARTCHAR uni0254
ENCODING 596
SWIDTH 600 0
DWIDTH 10 0
BBX 9 8 0 0
BITMAP
06F800
191A00
000700
000340
000700
000A00
606C00
2FE000
ENDCHAR
STARTCHAR uni0255
ENCODING 597
SWIDTH 600 0
DWIDTH 10 0
BBX 8 9 1 -1
BITMAP
06F8
2909
7000
9000
D2F4
AA18
7828
ABE0
8000
ENDCHAR
STARTCHAR uni0256
ENCODING 598
SWIDTH 600 0
DWIDTH 10 0
BBX 9 14 1 -3
BITMAP
000240
000340
000700
0BE700
281E00
700D00
D00D00
C01C00
D01C00
E0B800
6E7400
003400
003400
002D00
ENDCHAR
STARTCHAR uni0257
ENCODING 599
SWIDTH 600 0
DWIDTH 10 0
BBX 10 11 1 0
BITMAP
0001F0
000340
000300
0BE700
281E00
700D00
D00D00
C01C00
D01800
E0B800
6E6400
ENDCHAR
STARTCHAR uni0258
ENCODING 600
SWIDTH 600 0
DWIDTH 10 0
BBX 8 8 1 0
BITMAP
0BE4
341C
A00D
BFFD
000D
002C
90B4
6F90
ENDCHAR
STARTCHAR uni0259
ENCODING 601
SWIDTH 600 0
DWIDTH 10 0
BBX 8 8 1 0
BITMAP
1BE4
242C
000D
0009
FFFD
C01C
E074
6F90
ENDCHAR
STARTCHAR uni025A
ENCODING 602
SWIDTH 600 0
DWIDTH 10 0
BBX 10 8 0 0
BITMAP
1BE000
147400
002F80
06F8E0
692400
C07000
A1D000
2F4000
ENDCHAR
STARTCHAR uni025B
ENCODING 603
SWIDTH 600 0
DWIDTH 10 0
BBX 8 8 1 0
BITMAP
0BF4
3819
3400
1FC0
A000
D000
E014
2FE0
ENDCHAR
STARTCHAR uni025C
ENCODING 604
SWIDTH 600 0
DWIDTH 10 0
BBX 7 8 1 0
BITMAP
1BF4
141C
0028
0BE0
0028
0018
D074
6F90
ENDCHAR
STARTCHAR uni025E
ENCODING 606
SWIDTH 600 0
DWIDTH 10 0
BBX 9 8 0 0
BITMAP
02FE00
0E0740
280700
34BC00
700A00
340700
291E00
0BF400
ENDCHAR
STARTCHAR uni025F
ENCODING 607
SWIDTH 600 0
DWIDTH 10 0
BBX 9 11 0 -3
BITMAP
0BFC00
001C00
002800
002800
0FFF80
003000
007000
00A000
00D000
42C000
BE0000
ENDCHAR
STARTCHAR uni0260
ENCODING 608
SWIDTH 600 0
DWIDTH 10 0
BBX 11 13 0 -3
BITMAP
000078
0000D0
02F980
0A0780
1C0240
340300
340700
340600
281E00
0BD900
000C00
506800
6F9000
ENDCHAR
STARTCHAR uni0261
ENCODING 609
SWIDTH 600 0
DWIDTH 10 0
BBX 9 11 0 -3
BITMAP
02F980
0E0780
280340
340300
340700
340A00
2D6A00
064900
000C00
507800
6F9000
ENDCHAR
STARTCHAR uni0262
ENCODING 610
SWIDTH 600 0
DWIDTH 10 0
BBX 8 8 1 0
BITMAP
06F8
2909
7000
D000
D0FC
D01C
7428
1BE0
ENDCHAR
STARTCHAR uni0263
ENCODING 611
SWIDTH 600 0
DWIDTH 10 0
BBX 8 11 1 -3
BITMAP
6007
700D
3428
2470
1890
0D80
0F00
1B00
3340
7300
2E00
ENDCHAR
STARTCHAR uni0264
ENCODING 612
SWIDTH 600 0
DWIDTH 10 0
BBX 8 8 1 0
BITMAP
7D2E
07E0
07C0
1CA0
3470
6070
70A0
2F80
ENDCHAR
STARTCHAR uni0265
ENCODING 613
SWIDTH 600 0
DWIDTH 10 0
BBX 8 11 1 -3
BITMAP
300A
7009
A00D
A00C
D01C
C028
D1A4
7E34
0030
0070
00A0
ENDCHAR
STARTCHAR uni0266
ENCODING 614
SWIDTH 600 0
DWIDTH 10 0
BBX 9 11 0 0
BITMAP
01B800
074000
0A0000
0D6E00
0E4340
1D0240
180340
240300
340700
300A00
700900
ENDCHAR
STARTCHAR uni0267
ENCODING 615
SWIDTH 600 0
DWIDTH 10 0
BBX 9 14 0 -3
BITMAP
01B800
074000
0A0000
0D6E00
0E4340
1D0240
180340
240300
340700
300A00
700900
000D00
001C00
00F400
ENDCHAR
STARTCHAR uni0268
ENCODING 616
SWIDTH 600 0
DWIDTH 10 0
BBX 7 11 1 0
BITMAP
01D0
01D0
0000
7F80
0280
0340
BFF8
0700
0600
0700
02F4
ENDCHAR
STARTCHAR uni026A
ENCODING 618
SWIDTH 600 0
DWIDTH 10 0
BBX 9 8 0 0
BITMAP
0FFF40
00A000
00A000
00D000
00C000
01C000
028000
7FFC00
ENDCHAR
STARTCHAR uni026B
ENCODING 619
SWIDTH 600 0
DWIDTH 10 0
BBX 7 11 1 0
BITMAP
2FC0
01C0
0180
0644
3B64
63E0
0600
0A00
0900
0A10
07E0
ENDCHAR
STARTCHAR uni026C
ENCODING 620
SWIDTH 600 0
DWIDTH 10 0
BBX 7 11 1 0
BITMAP
2FC0
01C0
0280
7A40
9740
7FF4
0600
0A00
0900
0A10
07E0
ENDCHAR
STARTCHAR uni026D
ENCODING 621
SWIDTH 600 0
DWIDTH 10 0
BBX 5 14 2 -3
BITMAP
BF00
0700
0600
0A00
0D00
0C00
1C00
2800
2400
3400
7000
7000
7040
2F40
ENDCHAR
STARTCHAR uni026E
ENCODING 622
SWIDTH 600 0
DWIDTH 10 0
BBX 10 14 0 -3
BITMAP
060000
090000
0D0000
0FFFD0
180240
281900
246000
34FD00
300B00
700300
A00700
000A00
181C00
0BE400
ENDCHAR
STARTCHAR uni026F
ENCODING 623
SWIDTH 600 0
DWIDTH 10 0
BBX 10 8 0 0
BITMAP
2870D0
34A1C0
309180
70D280
60C240
A18340
A38B00
B9E600
ENDCHAR
STARTCHAR uni0270
ENCODING 624
SWIDTH 600 0
DWIDTH 10 0
BBX 9 11 0 -3
BITMAP
2860C0
34A1C0
309180
70D280
A0C340
A18300
A78B00
B9EA00
000A00
000900
000C00
ENDCHAR
STARTCHAR uni0271
ENCODING 625
SWIDTH 600 0
DWIDTH 10 0
BBX 9 11 0 -3
BITMAP
2AD780
28B5C0
34A1C0
309180
70D280
A0C340
A18300
D28700
000600
000900
007800
ENDCHAR
STARTCHAR uni0272
ENCODING 626
SWIDTH 600 0
DWIDTH 10 0
BBX 11 11 -2 -3
BITMAP
00C6E0
00E434
01D024
028034
024030
034070
0300A0
070090
0A0000
0D0000
780000
ENDCHAR
STARTCHAR uni0273
ENCODING 627
SWIDTH 600 0
DWIDTH 10 0
BBX 9 11 0 -3
BITMAP
086E00
0E4340
1D0240
280340
240300
340700
300A00
700900
000D00
000D00
000B40
ENDCHAR
STARTCHAR uni0274
ENCODING 628
SWIDTH 600 0
DWIDTH 10 0
BBX 8 8 1 0
BITMAP
280D
3C0C
3A1C
7718
A268
91A4
D0F0
C0B0
ENDCHAR
STARTCHAR uni0275
ENCODING 629
SWIDTH 600 0
DWIDTH 10 0
BBX 9 8 0 0
BITMAP
02F800
0D0700
240240
3FFF40
700340
300700
281D00
0BE000
ENDCHAR
STARTCHAR uni0276
ENCODING 630
SWIDTH 600 0
DWIDTH 10 0
BBX 10 8 0 0
BITMAP
07FFE0
292400
703400
A03F80
D06000
D0A000
A09000
2FFF80
ENDCHAR
STARTCHAR uni0278
ENCODING 632
SWIDTH 600 0
DWIDTH 10 0
BBX 9 14 0 -3
BITMAP
002800
002400
003400
06F900
1DA740
34A280
60D1C0
A0D280
61C340
369A00
1BF400
034000
030000
070000
ENDCHAR
STARTCHAR uni0279
ENCODING 633
SWIDTH 600 0
DWIDTH 10 0
BBX 8 8 0 0
BITMAP
0006
000A
0009
000D
001C
0028
01A8
7E24
ENDCHAR
STARTCHAR uni027A
ENCODING 634
SWIDTH 600 0
DWIDTH 10 0
BBX 9 11 0 0
BITMAP
000280
000340
000340
000700
000600
000A00
000D00
000C00
002C00
01A800
7E2400
ENDCHAR
STARTCHAR uni027B
ENCODING 635
SWIDTH 600 0
DWIDTH 10 0
BBX 7 11 0 -3
BITMAP
0028
0024
0034
0030
0070
00A0
01D0
7D90
00C0
00D0
00B8
ENDCHAR
STARTCHAR uni027D
ENCODING 637
SWIDTH 600 0
DWIDTH 10 0
BBX 8 11 1 -3
BITMAP
0C6E
1D80
1D00
2800
2400
3400
7000
7000
A000
7040
2F80
ENDCHAR
STARTCHAR uni027E
ENCODING 638
SWIDTH 600 0
DWIDTH 10 0
BBX 8 8 1 0
BITMAP
02FE
0A40
1C00
2800
2400
3400
3000
7000
ENDCHAR
STARTCHAR uni0280
ENCODING 640
SWIDTH 600 0
DWIDTH 10 0
BBX 7 8 1 0
BITMAP
1FF4
281C
240C
3428
7FE0
70D0
A0A0
9030
ENDCHAR
STARTCHAR uni0281
ENCODING 641
SWIDTH 600 0
DWIDTH 10 0
BBX 7 8 1 0
BITMAP
341C
181C
0D28
1FF4
7434
D030
A070
6FE0
ENDCHAR
STARTCHAR uni0282
ENCODING 642
SWIDTH 600 0
DWIDTH 10 0
BBX 8 11 0 -3
BITMAP
02F9
0A07
0D00
0790
006C
000A
380D
7BF4
A000
A000
7C00
ENDCHAR
STARTCHAR uni0283
ENCODING 643
SWIDTH 600 0
DWIDTH 10 0
BBX 10 14 0 -3
BITMAP
000BE0
002810
003400
003000
007000
00A000
00A000
00D000
01C000
01C000
028000
024000
470000
BD0000
ENDCHAR
STARTCHAR uni0284
ENCODING 644
SWIDTH 600 0
DWIDTH 10 0
BBX 10 14 0 -3
BITMAP
000BE0
002810
003400
007000
007000
00A000
2FFF40
00D000
01C000
018000
028000
034000
470000
BD0000
ENDCHAR
STARTCHAR uni0287
ENCODING 647
SWIDTH 600 0
DWIDTH 10 0
BBX 8 11 0 -3
BITMAP
0BE0
0428
0028
0028
0034
0030
0070
7FFF
0090
00D0
00C0
ENDCHAR
STARTCHAR uni0288
ENCODING 648
SWIDTH 600 0
DWIDTH 10 0
BBX 8 14 1 -3
BITMAP
0240
0300
0700
BFFE
0A00
0D00
0C00
1C00
1800
2800
3400
3400
3810
1FE0
ENDCHAR
STARTCHAR uni0289
ENCODING 649
SWIDTH 600 0
DWIDTH 10 0
BBX 9 8 0 0
BITMAP
0A0340
0D0300
0D0700
BFFFC0
180900
280D00
286C00
1F9C00
ENDCHAR
STARTCHAR uni028A
ENCODING 650
SWIDTH 600 0
DWIDTH 10 0
BBX 8 8 1 0
BITMAP
7D3F
1824
701C
900C
D01C
D028
A0B0
2F80
ENDCHAR
STARTCHAR uni028B
ENCODING 651
SWIDTH 600 0
DWIDTH 10 0
BBX 8 8 1 0
BITMAP
3078
700D
A009
A00D
D01C
D028
A0B0
2F80
ENDCHAR
STARTCHAR uni028C
ENCODING 652
SWIDTH 600 0
DWIDTH 10 0
BBX 8 8 0 0
BITMAP
00B4
01E4
0258
061C
0D0C
280D
300A
A006
ENDCHAR
STARTCHAR uni028D
ENCODING 653
SWIDTH 600 0
DWIDTH 10 0
BBX 10 8 -1 0
BITMAP
02C1D0
03C390
069690
0D9990
1C9C90
24A890
30B0A0
6050A0
ENDCHAR
STARTCHAR uni028E
ENCODING 654
SWIDTH 600 0
DWIDTH 10 0
BBX 10 11 0 0
BITMAP
0002F0
000A00
002800
007000
00B400
01A400
031800
090C00
180D00
340900
A00600
ENDCHAR
STARTCHAR uni028F
ENCODING 655
SWIDTH 600 0
DWIDTH 10 0
BBX 7 8 2 0
BITMAP
D028
A060
71C0
3740
2D00
1C00
2800
2800
ENDCHAR
STARTCHAR uni0290
ENCODING 656
SWIDTH 600 0
DWIDTH 10 0
BBX 9 11 0 -3
BITMAP
0FFF40
000A00
002800
00A000
028000
0A0000
280000
7FFE00
000D00
000D00
000B40
ENDCHAR
STARTCHAR uni0291
ENCODING 657
SWIDTH 600 0
DWIDTH 10 0
BBX 9 10 0 -2
BITMAP
0FFF40
000A00
002800
00A000
028780
0A18C0
282180
7FFE00
008000
008000
ENDCHAR
STARTCHAR uni0292
ENCODING 658
SWIDTH 600 0
DWIDTH 10 0
BBX 9 11 0 -3
BITMAP
0BFF40
000900
006000
028000
0BF400
002C00
000D00
000D00
001C00
D07400
6F8000
ENDCHAR
STARTCHAR uni0294
ENCODING 660
SWIDTH 600 0
DWIDTH 10 0
BBX 7 11 2 0
BITMAP
2FE0
A074
0028
0028
0070
02C0
1D00
1800
2800
3400
3000
ENDCHAR
STARTCHAR uni0295
ENCODING 661
SWIDTH 600 0
DWIDTH 10 0
BBX 7 11 2 0
BITMAP
0BE4
381C
A000
A000
7000
2800
0A00
0A00
0D00
0C00
1C00
ENDCHAR
STARTCHAR uni0298
ENCODING 664
SWIDTH 600 0
DWIDTH 10 0
BBX 8 11 1 0
BITMAP
02F4
0E1D
2806
7006
A286
928A
D009
D00C
9028
70B0
2F80
ENDCHAR
STARTCHAR uni0299
ENCODING 665
SWIDTH 600 0
DWIDTH 10 0
BBX 7 8 1 0
BITMAP
2FF8
281C
341C
3FF0
7028
6018
A074
FFD0
ENDCHAR
STARTCHAR uni029C
ENCODING 668
SWIDTH 600 0
DWIDTH 10 0
BBX 9 8 0 0
BITMAP
0D0280
1C0340
180340
2FFF00
240A00
340A00
300D00
700D00
ENDCHAR
STARTCHAR uni029D
ENCODING 669
SWIDTH 600 0
DWIDTH 10 0
BBX 8 15 0 -4
BITMAP
000E
000D
0000
0BFC
0018
0028
0024
0034
0070
0060
00A0
7ED0
D2D0
7E70
0020
ENDCHAR
STARTCHAR uni029E
ENCODING 670
SWIDTH 600 0
DWIDTH 10 0
BBX 9 11 0 -3
BITMAP
280240
0D0340
0A0700
036E00
02EA00
074900
1D0D00
B01C00
001800
002800
003400
ENDCHAR
STARTCHAR uni029F
ENCODING 671
SWIDTH 600 0
DWIDTH 10 0
BBX 7 8 1 0
BITMAP
0D00
0C00
1C00
1800
2800
2400
3400
7FF8
ENDCHAR
STARTCHAR uni02A1
ENCODING 673
SWIDTH 600 0
DWIDTH 10 0
BBX 8 11 1 0
BITMAP
0BF8
281D
000A
0009
0028
0190
BFFC
0A00
0A00
0D00
0C00
ENDCHAR
STARTCHAR uni02A2
ENCODING 674
SWIDTH 600 0
DWIDTH 10 0
BBX 8 11 1 0
BITMAP
06F9
0E07
2800
2800
1C00
0A40
7FFC
0240
0340
0300
0700
ENDCHAR
STARTCHAR uni02A4
ENCODING 676
SWIDTH 600 0
DWIDTH 10 0
BBX 12 14 -1 -3
BITMAP
000A00
000900
000C00
07DFFD
1D3818
282870
3434D0
703240
7077E0
34A074
1EA034
000070
0061A0
002F40
ENDCHAR
STARTCHAR uni02A6
ENCODING 678
SWIDTH 600 0
DWIDTH 10 0
BBX 8 11 1 0
BITMAP
0400
1800
2800
FFFE
30D1
70D0
A074
901D
D009
A01D
6FE4
ENDCHAR
STARTCHAR uni02A7
ENCODING 679
SWIDTH 600 0
DWIDTH 10 0
BBX 10 14 1 -3
BITMAP
0902E0
0D0B00
0C0E00
7FFD00
281C00
241C00
342800
703400
703400
707000
2E6000
00A000
00D000
0B8000
ENDCHAR
STARTCHAR h.sups
ENCODING 688
SWIDTH 600 0
DWIDTH 10 0
BBX 6 8 3 5
BITMAP
2400
2000
3780
74D0
60C0
90C0
8180
4040
ENDCHAR
STARTCHAR j.sups
ENCODING 690
SWIDTH 600 0
DWIDTH 10 0
BBX 6 10 2 4
BITMAP
00A0
0000
0000
1FC0
0080
0180
0240
0300
4600
B900
ENDCHAR
STARTCHAR r.sups
ENCODING 691
SWIDTH 600 0
DWIDTH 10 0
BBX 5 6 4 5
BITMAP
6B40
7400
9000
8000
C000
4000
ENDCHAR
STARTCHAR w.sups
ENCODING 695
SWIDTH 600 0
DWIDTH 10 0
BBX 8 5 2 6
BITMAP
9249
5688
59A4
68A0
70D0
ENDCHAR
STARTCHAR y.sups
ENCODING 696
SWIDTH 600 0
DWIDTH 10 0
BBX 7 7 2 4
BITMAP
1824
0860
0C80
0940
0600
0D00
B400
ENDCHAR
STARTCHAR uni02B9
ENCODING 697
SWIDTH 600 0
DWIDTH 10 0
BBX 3 4 4 7
BITMAP
1C
24
30
60
ENDCHAR
STARTCHAR uni02BB
ENCODING 699
SWIDTH 600 0
DWIDTH 10 0
BBX 4 5 4 6
BITMAP
0A
38
A0
F4
B4
ENDCHAR
STARTCHAR uni02BC
ENCODING 700
SWIDTH 600 0
DWIDTH 10 0
BBX 4 5 3 6
BITMAP
0E
1F
07
1D
64
ENDCHAR
STARTCHAR uni02BE
ENCODING 702
SWIDTH 600 0
DWIDTH 10 0
BBX 4 5 4 8
BITMAP
74
0D
09
1C
A0
ENDCHAR
STARTCHAR uni02BF
ENCODING 703
SWIDTH 600 0
DWIDTH 10 0
BBX 4 5 4 8
BITMAP
0A
34
60
70
2C
ENDCHAR
STARTCHAR uni02C1
ENCODING 705
SWIDTH 600 0
DWIDTH 10 0
BBX 5 7 4 7
BITMAP
2E00
9140
C000
D000
7000
2000
1000
ENDCHAR
STARTCHAR circumflex
ENCODING 710
SWIDTH 600 0
DWIDTH 10 0
BBX 5 3 3 9
BITMAP
0F00
3680
9080
ENDCHAR
STARTCHAR caron
ENCODING 711
SWIDTH 600 0
DWIDTH 10 0
BBX 6 3 3 9
BITMAP
6050
2680
1E00
ENDCHAR
STARTCHAR uni02C8
ENCODING 712
SWIDTH 600 0
DWIDTH 10 0
BBX 3 5 4 6
BITMAP
28
34
34
30
60
ENDCHAR
STARTCHAR uni02C9
ENCODING 713
SWIDTH 600 0
DWIDTH 10 0
BBX 5 1 3 10
BITMAP
7FC0
ENDCHAR
STARTCHAR uni02CA
ENCODING 714
SWIDTH 600 0
DWIDTH 10 0
BBX 3 3 5 9
BITMAP
18
74
80
ENDCHAR
STARTCHAR uni02CB
ENCODING 715
SWIDTH 600 0
DWIDTH 10 0
BBX 3 3 4 9
BITMAP
60
74
18
ENDCHAR
STARTCHAR uni02CC
ENCODING 716
SWIDTH 600 0
DWIDTH 10 0
BBX 3 5 2 -4
BITMAP
24
24
30
70
B0
ENDCHAR
STARTCHAR uni02D0
ENCODING 720
SWIDTH 600 0
DWIDTH 10 0
BBX 4 8 3 0
BITMAP
2D
14
00
00
00
00
60
F0
ENDCHAR
STARTCHAR uni02D1
ENCODING 721
SWIDTH 600 0
DWIDTH 10 0
BBX 3 2 4 6
BITMAP
B4
50
ENDCHAR
STARTCHAR breve
ENCODING 728
SWIDTH 600 0
DWIDTH 10 0
BBX 6 3 3 9
BITMAP
6050
71C0
2E40
ENDCHAR
STARTCHAR dotaccent
ENCODING 729
SWIDTH 600 0
DWIDTH 10 0
BBX 2 2 5 9
BITMAP
A0
E0
ENDCHAR
STARTCHAR ring
ENCODING 730
SWIDTH 600 0
DWIDTH 10 0
BBX 4 4 4 9
BITMAP
2D
96
95
78
ENDCHAR
STARTCHAR ogonek
ENCODING 731
SWIDTH 600 0
DWIDTH 10 0
BBX 3 4 2 -4
BITMAP
24
80
C0
B8
ENDCHAR
STARTCHAR tilde
ENCODING 732
SWIDTH 600 0
DWIDTH 10 0
BBX 6 3 3 9
BITMAP
1010
6D60
82C0
ENDCHAR
STARTCHAR hungarumlaut
ENCODING 733
SWIDTH 600 0
DWIDTH 10 0
BBX 5 3 4 9
BITMAP
1880
3280
9200
ENDCHAR
STARTCHAR uni02DE
ENCODING 734
SWIDTH 600 0
DWIDTH 10 0
BBX 4 3 3 4
BITMAP
18
9C
0B
ENDCHAR
STARTCHAR uni02E0
ENCODING 736
SWIDTH 600 0
DWIDTH 10 0
BBX 6 7 3 4
BITMAP
5050
2080
2200
2900
1800
2800
3800
ENDCHAR
STARTCHAR l.sups
ENCODING 737
SWIDTH 600 0
DWIDTH 10 0
BBX 4 8 4 6
BITMAP
7C
08
18
24
20
30
30
3D
ENDCHAR
STARTCHAR s.sups
ENCODING 738
SWIDTH 600 0
DWIDTH 10 0
BBX 5 5 3 6
BITMAP
2F40
3040
1500
9240
7E00
ENDCHAR
STARTCHAR x.sups
ENCODING 739
SWIDTH 600 0
DWIDTH 10 0
BBX 5 5 3 6
BITMAP
3180
1A00
1D00
2A00
9300
ENDCHAR
STARTCHAR uni02E4
ENCODING 740
SWIDTH 600 0
DWIDTH 10 0
BBX 5 8 4 6
BITMAP
2E00
9140
C000
D000
7000
2000
3000
2000
ENDCHAR
STARTCHAR uni0300
ENCODING 768
SWIDTH 600 0
DWIDTH 10 0
BBX 3 3 4 9
BITMAP
60
74
18
ENDCHAR
STARTCHAR uni0301
ENCODING 769
SWIDTH 600 0
DWIDTH 10 0
BBX 3 3 5 9
BITMAP
18
74
80
ENDCHAR
STARTCHAR uni0302
ENCODING 770
SWIDTH 600 0
DWIDTH 10 0
BBX 5 3 3 9
BITMAP
0F00
3680
9080
ENDCHAR
STARTCHAR uni0303
ENCODING 771
SWIDTH 600 0
DWIDTH 10 0
BBX 6 3 3 9
BITMAP
1010
6D60
82C0
ENDCHAR
STARTCHAR uni0304
ENCODING 772
SWIDTH 600 0
DWIDTH 10 0
BBX 5 1 3 10
BITMAP
7FC0
ENDCHAR
STARTCHAR uni0305
ENCODING 773
SWIDTH 600 0
DWIDTH 10 0
BBX 5 1 3 10
BITMAP
7FC0
ENDCHAR
STARTCHAR uni0306
ENCODING 774
SWIDTH 600 0
DWIDTH 10 0
BBX 6 3 3 9
BITMAP
6050
71C0
2E40
ENDCHAR
STARTCHAR uni0307
ENCODING 775
SWIDTH 600 0
DWIDTH 10 0
BBX 2 2 5 9
BITMAP
A0
E0
ENDCHAR
STARTCHAR uni0308
ENCODING 776
SWIDTH 600 0
DWIDTH 10 0
BBX 5 2 3 9
BITMAP
71C0
71C0
ENDCHAR
STARTCHAR uni0309
ENCODING 777
SWIDTH 600 0
DWIDTH 10 0
BBX 3 4 5 9
BITMAP
E0
34
70
90
ENDCHAR
STARTCHAR uni030A
ENCODING 778
SWIDTH 600 0
DWIDTH 10 0
BBX 4 4 4 9
BITMAP
2D
96
95
78
ENDCHAR
STARTCHAR uni030B
ENCODING 779
SWIDTH 600 0
DWIDTH 10 0
BBX 5 3 4 9
BITMAP
1880
3280
9200
ENDCHAR
STARTCHAR uni030C
ENCODING 780
SWIDTH 600 0
DWIDTH 10 0
BBX 6 3 3 9
BITMAP
6050
2680
1E00
ENDCHAR
STARTCHAR uni030F
ENCODING 783
SWIDTH 600 0
DWIDTH 10 0
BBX 4 3 3 9
BITMAP
89
96
52
ENDCHAR
STARTCHAR uni0310
ENCODING 784
SWIDTH 600 0
DWIDTH 10 0
BBX 6 5 3 9
BITMAP
0600
0B00
5160
61C0
2E40
ENDCHAR
STARTCHAR uni0311
ENCODING 785
SWIDTH 600 0
DWIDTH 10 0
BBX 5 3 3 9
BITMAP
1F40
61C0
9080
ENDCHAR
STARTCHAR uni0312
ENCODING 786
SWIDTH 600 0
DWIDTH 10 0
BBX 2 3 5 9
BITMAP
60
C0
D0
ENDCHAR
STARTCHAR uni0313
ENCODING 787
SWIDTH 600 0
DWIDTH 10 0
BBX 2 3 5 9
BITMAP
A0
60
80
ENDCHAR
STARTCHAR uni0318
ENCODING 792
SWIDTH 600 0
DWIDTH 10 0
BBX 3 3 2 -4
BITMAP
08
F8
14
ENDCHAR
STARTCHAR uni0319
ENCODING 793
SWIDTH 600 0
DWIDTH 10 0
BBX 4 3 1 -4
BITMAP
20
3E
60
ENDCHAR
STARTCHAR uni031A
ENCODING 794
SWIDTH 600 0
DWIDTH 10 0
BBX 3 3 5 8
BITMAP
BC
08
04
ENDCHAR
STARTCHAR uni031B
ENCODING 795
SWIDTH 600 0
DWIDTH 10 0
BBX 3 4 5 7
BITMAP
08
0C
28
A0
ENDCHAR
STARTCHAR uni031C
ENCODING 796
SWIDTH 600 0
DWIDTH 10 0
BBX 3 3 2 -4
BITMAP
74
90
60
ENDCHAR
STARTCHAR uni031D
ENCODING 797
SWIDTH 600 0
DWIDTH 10 0
BBX 4 2 1 -3
BITMAP
08
7E
ENDCHAR
STARTCHAR uni031E
ENCODING 798
SWIDTH 600 0
DWIDTH 10 0
BBX 3 2 2 -4
BITMAP
FC
60
ENDCHAR
STARTCHAR uni031F
ENCODING 799
SWIDTH 600 0
DWIDTH 10 0
BBX 4 3 1 -4
BITMAP
08
7E
18
ENDCHAR
STARTCHAR uni0320
ENCODING 800
SWIDTH 600 0
DWIDTH 10 0
BBX 4 1 1 -3
BITMAP
7E
ENDCHAR
STARTCHAR uni0323
ENCODING 803
SWIDTH 600 0
DWIDTH 10 0
BBX 2 2 2 -4
BITMAP
70
B0
ENDCHAR
STARTCHAR uni0324
ENCODING 804
SWIDTH 600 0
DWIDTH 10 0
BBX 5 2 1 -4
BITMAP
9240
9240
ENDCHAR
STARTCHAR uni0325
ENCODING 805
SWIDTH 600 0
DWIDTH 10 0
BBX 4 4 1 -4
BITMAP
2E
63
62
2D
ENDCHAR
STARTCHAR uni0326
ENCODING 806
SWIDTH 600 0
DWIDTH 10 0
BBX 4 3 1 -4
BITMAP
1D
0A
78
ENDCHAR
STARTCHAR uni0327
ENCODING 807
SWIDTH 600 0
DWIDTH 10 0
BBX 4 5 1 -5
BITMAP
08
1D
0A
09
74
ENDCHAR
STARTCHAR uni0328
ENCODING 808
SWIDTH 600 0
DWIDTH 10 0
BBX 3 4 2 -4
BITMAP
24
80
C0
B8
ENDCHAR
STARTCHAR uni0329
ENCODING 809
SWIDTH 600 0
DWIDTH 10 0
BBX 2 3 2 -4
BITMAP
30
60
60
ENDCHAR
STARTCHAR uni032A
ENCODING 810
SWIDTH 600 0
DWIDTH 10 0
BBX 5 3 1 -4
BITMAP
7F40
8240
4100
ENDCHAR
STARTCHAR uni032C
ENCODING 812
SWIDTH 600 0
DWIDTH 10 0
BBX 5 3 1 -4
BITMAP
8080
6740
2D00
ENDCHAR
STARTCHAR uni032E
ENCODING 814
SWIDTH 600 0
DWIDTH 10 0
BBX 5 3 1 -4
BITMAP
C0C0
9240
7E00
ENDCHAR
STARTCHAR uni032F
ENCODING 815
SWIDTH 600 0
DWIDTH 10 0
BBX 6 3 0 -4
BITMAP
0B80
2490
6060
ENDCHAR
STARTCHAR uni0330
ENCODING 816
SWIDTH 600 0
DWIDTH 10 0
BBX 6 3 0 -4
BITMAP
0400
2A20
61E0
ENDCHAR
STARTCHAR uni0331
ENCODING 817
SWIDTH 600 0
DWIDTH 10 0
BBX 5 1 1 -3
BITMAP
BF40
ENDCHAR
STARTCHAR uni0334
ENCODING 820
SWIDTH 600 0
DWIDTH 10 0
BBX 7 3 1 3
BITMAP
0404
3A24
61E0
ENDCHAR
STARTCHAR uni0339
ENCODING 825
SWIDTH 600 0
DWIDTH 10 0
BBX 3 3 2 -4
BITMAP
70
24
A0
ENDCHAR
STARTCHAR uni033A
ENCODING 826
SWIDTH 600 0
DWIDTH 10 0
BBX 5 3 1 -4
BITMAP
5040
9140
BF00
ENDCHAR
STARTCHAR uni033B
ENCODING 827
SWIDTH 600 0
DWIDTH 10 0
BBX 5 3 1 -4
BITMAP
7F40
8140
BF00
ENDCHAR
STARTCHAR uni033C
ENCODING 828
SWIDTH 600 0
DWIDTH 10 0
BBX 6 2 0 -3
BITMAP
2DE0
5620
ENDCHAR
STARTCHAR uni033D
ENCODING 829
SWIDTH 600 0
DWIDTH 10 0
BBX 3 3 4 8
BITMAP
28
38
54
ENDCHAR
STARTCHAR uni0342
ENCODING 834
SWIDTH 600 0
DWIDTH 10 0
BBX 6 3 3 9
BITMAP
1010
6D60
82C0
ENDCHAR
STARTCHAR uni0345
ENCODING 837
SWIDTH 600 0
DWIDTH 10 0
BBX 2 2 3 -3
BITMAP
C0
E0
ENDCHAR
STARTCHAR uni035F
ENCODING 863
SWIDTH 600 0
DWIDTH 10 0
BBX 16 1 -5 -3
BITMAP
7FFFFFFF
ENDCHAR
STARTCHAR uni0361
ENCODING 865
SWIDTH 600 0
DWIDTH 10 0
BBX 14 3 -1 9
BITMAP
01BFE900
6A401B80
90000060
ENDCHAR
STARTCHAR pi
ENCODING 960
SWIDTH 600 0
DWIDTH 10 0
BBX 9 8 1 0
BITMAP
BFFF40
181800
242800
342400
303000
607000
A06000
D07800
ENDCHAR
STARTCHAR a.sups
ENCODING 7491
SWIDTH 600 0
DWIDTH 10 0
BBX 5 5 3 6
BITMAP
2E80
A1C0
C180
C240
B940
ENDCHAR
STARTCHAR b.sups
ENCODING 7495
SWIDTH 600 0
DWIDTH 10 0
BBX 6 7 3 6
BITMAP
2400
3000
7B80
60D0
90C0
D180
AE00
ENDCHAR
STARTCHAR d.sups
ENCODING 7496
SWIDTH 600 0
DWIDTH 10 0
BBX 6 7 3 6
BITMAP
0060
0090
2E80
A1C0
C180
C240
BA00
ENDCHAR
STARTCHAR e.sups
ENCODING 7497
SWIDTH 600 0
DWIDTH 10 0
BBX 5 5 3 6
BITMAP
1F40
60C0
BFC0
9140
7E00
ENDCHAR
STARTCHAR g.sups
ENCODING 7501
SWIDTH 600 0
DWIDTH 10 0
BBX 6 7 2 4
BITMAP
0BA0
2870
3060
3090
2E90
51C0
6E40
ENDCHAR
STARTCHAR k.sups
ENCODING 7503
SWIDTH 600 0
DWIDTH 10 0
BBX 6 8 3 6
BITMAP
0400
1400
2400
3090
3240
7A00
6240
9180
ENDCHAR
STARTCHAR m.sups
ENCODING 7504
SWIDTH 600 0
DWIDTH 10 0
BBX 9 6 1 5
BITMAP
27DF00
28A240
30C200
20C300
618600
504100
ENDCHAR
STARTCHAR o.sups
ENCODING 7506
SWIDTH 600 0
DWIDTH 10 0
BBX 5 5 3 6
BITMAP
2F40
A1C0
C0C0
D280
7E00
ENDCHAR
STARTCHAR p.sups
ENCODING 7510
SWIDTH 600 0
DWIDTH 10 0
BBX 7 7 2 4
BITMAP
0AE0
1924
2424
2470
3B80
2000
6000
ENDCHAR
STARTCHAR t.sups
ENCODING 7511
SWIDTH 600 0
DWIDTH 10 0
BBX 6 7 3 6
BITMAP
0500
0800
7FD0
1800
1400
2400
1F40
ENDCHAR
STARTCHAR u.sups
ENCODING 7512
SWIDTH 600 0
DWIDTH 10 0
BBX 5 5 3 6
BITMAP
6080
90C0
8180
C680
BA40
ENDCHAR
STARTCHAR v.sups
ENCODING 7515
SWIDTH 600 0
DWIDTH 10 0
BBX 5 5 3 6
BITMAP
60C0
6280
3300
3900
2800
ENDCHAR
STARTCHAR c.sups
ENCODING 7580
SWIDTH 600 0
DWIDTH 10 0
BBX 5 5 3 6
BITMAP
1B80
7440
9000
A100
2E00
ENDCHAR
STARTCHAR f.sups
ENCODING 7584
SWIDTH 600 0
DWIDTH 10 0
BBX 5 9 4 5
BITMAP
0B80
1800
2400
FF40
3000
3000
6000
5000
4000
ENDCHAR
STARTCHAR z.sups
ENCODING 7611
SWIDTH 600 0
DWIDTH 10 0
BBX 5 5 3 6
BITMAP
7FC0
0200
0800
2000
FF40
ENDCHAR
STARTCHAR uni1E06
ENCODING 7686
SWIDTH 600 0
DWIDTH 10 0
BBX 9 13 0 -3
BITMAP
07FE00
0A0780
090280
0D0740
1EB900
1D5A00
280340
240340
341A00
7FE400
000000
000000
1FE000
ENDCHAR
STARTCHAR uni1E07
ENCODING 7687
SWIDTH 600 0
DWIDTH 10 0
BBX 9 14 0 -3
BITMAP
070000
060000
0A0000
0DBD00
0E4740
1C0280
180280
240340
340700
381D00
67E400
000000
000000
1FE000
ENDCHAR
STARTCHAR uni1E0C
ENCODING 7692
SWIDTH 600 0
DWIDTH 10 0
BBX 9 14 0 -4
BITMAP
0BF900
0D0B40
0D0280
1C01C0
1801C0
280280
340340
300700
706D00
BFE000
000000
000000
0B0000
0A0000
ENDCHAR
STARTCHAR uni1E0D
ENCODING 7693
SWIDTH 600 0
DWIDTH 10 0
BBX 9 15 1 -4
BITMAP
000240
000340
000700
0BE700
281E00
700D00
D00D00
C01C00
D01800
E0B800
6E6400
000000
000000
1D0000
1D0000
ENDCHAR
STARTCHAR uni1E0E
ENCODING 7694
SWIDTH 600 0
DWIDTH 10 0
BBX 9 13 0 -3
BITMAP
0BF900
0D0B40
0D0280
1C01C0
1801C0
280280
340340
300700
706D00
BFE000
000000
000000
3FD000
ENDCHAR
STARTCHAR uni1E0F
ENCODING 7695
SWIDTH 600 0
DWIDTH 10 0
BBX 9 14 1 -3
BITMAP
000240
000340
000700
0BE700
281E00
700D00
D00D00
C01C00
D01800
E0B800
6E6400
000000
000000
7F8000
ENDCHAR
STARTCHAR uni1E10
ENCODING 7696
SWIDTH 600 0
DWIDTH 10 0
BBX 9 15 0 -5
BITMAP
0BF900
0D0B40
0D0280
1C01C0
1801C0
280280
340340
300700
706D00
BFE000
020000
0B0000
024000
070000
290000
ENDCHAR
STARTCHAR uni1E11
ENCODING 7697
SWIDTH 600 0
DWIDTH 10 0
BBX 9 16 1 -5
BITMAP
000240
000340
000700
0BE700
281E00
700D00
D00D00
C01C00
D01800
E0B800
6E6400
080000
1D0000
090000
090000
740000
ENDCHAR
STARTCHAR uni1E16
ENCODING 7702
SWIDTH 600 0
DWIDTH 10 0
BBX 9 16 1 0
BITMAP
000600
001800
000000
01FE00
000000
000000
0FFF40
1C0000
180000
280000
3FF800
300000
700000
A00000
A00000
FFF800
ENDCHAR
STARTCHAR uni1E17
ENCODING 7703
SWIDTH 600 0
DWIDTH 10 0
BBX 8 14 1 0
BITMAP
0018
0020
0000
03FC
0000
0000
07E4
291C
6009
BFFD
D000
D000
B424
2FE0
ENDCHAR
STARTCHAR uni1E20
ENCODING 7712
SWIDTH 600 0
DWIDTH 10 0
BBX 8 13 1 0
BITMAP
01FE
0000
0000
02F9
1E06
3800
7000
9000
D0BE
D009
A00C
741C
1BE4
ENDCHAR
STARTCHAR uni1E21
ENCODING 7713
SWIDTH 600 0
DWIDTH 10 0
BBX 9 14 0 -3
BITMAP
00FF00
000000
000000
02F980
0E0780
280340
340300
340700
340A00
2D6A00
064900
000C00
507800
6F9000
ENDCHAR
STARTCHAR uni1E24
ENCODING 7716
SWIDTH 600 0
DWIDTH 10 0
BBX 10 14 0 -4
BITMAP
0A00D0
0D01C0
0C01C0
1C0280
2FFF40
240340
340700
700700
600A00
A00D00
000000
000000
070000
0B0000
ENDCHAR
STARTCHAR uni1E25
ENCODING 7717
SWIDTH 600 0
DWIDTH 10 0
BBX 9 15 0 -4
BITMAP
070000
060000
0A0000
0D6E00
0E4340
1D0240
180340
240300
340700
300A00
700900
000000
000000
034000
074000
ENDCHAR
STARTCHAR uni1E26
ENCODING 7718
SWIDTH 600 0
DWIDTH 10 0
BBX 10 13 0 0
BITMAP
009240
009240
000000
0A00D0
0D01C0
0C01C0
1C0280
2FFF40
240340
340700
700700
600A00
A00D00
ENDCHAR
STARTCHAR uni1E27
ENCODING 7719
SWIDTH 600 0
DWIDTH 10 0
BBX 9 14 0 0
BITMAP
1C6000
186000
000000
070000
060000
0A0000
0D6E00
0E4340
1D0240
180340
240300
340700
300A00
700900
ENDCHAR
STARTCHAR uni1E28
ENCODING 7720
SWIDTH 600 0
DWIDTH 10 0
BBX 12 15 -2 -5
BITMAP
00A00D
00D01C
00C01C
01C028
02FFF4
024034
034070
070070
0600A0
0A00D0
080000
0D0000
0A0000
090000
780000
ENDCHAR
STARTCHAR uni1E29
ENCODING 7721
SWIDTH 600 0
DWIDTH 10 0
BBX 10 16 -1 -5
BITMAP
01C000
018000
028000
035B80
0390D0
074090
0600D0
0900C0
0D01C0
0C0280
1C0240
140000
380000
1C0000
180000
E00000
ENDCHAR
STARTCHAR uni1E2A
ENCODING 7722
SWIDTH 600 0
DWIDTH 10 0
BBX 10 14 0 -4
BITMAP
0A00D0
0D01C0
0C01C0
1C0280
2FFF40
240340
340700
700700
600A00
A00D00
000000
303000
249000
1F8000
ENDCHAR
STARTCHAR uni1E2B
ENCODING 7723
SWIDTH 600 0
DWIDTH 10 0
BBX 9 15 0 -4
BITMAP
070000
060000
0A0000
0D6E00
0E4340
1D0240
180340
240300
340700
300A00
700900
000000
242400
186000
0B8000
ENDCHAR
STARTCHAR uni1E32
ENCODING 7730
SWIDTH 600 0
DWIDTH 10 0
BBX 10 14 0 -4
BITMAP
0700D0
0A0740
091D00
0D7400
1DE000
1F7400
282800
241C00
340A00
700700
000000
000000
02C000
028000
ENDCHAR
STARTCHAR uni1E33
ENCODING 7731
SWIDTH 600 0
DWIDTH 10 0
BBX 8 15 1 -4
BITMAP
0D00
1C00
1800
280A
3428
30E0
77C0
7DD0
B460
D034
C01C
0000
0000
0A00
0A00
ENDCHAR
STARTCHAR uni1E34
ENCODING 7732
SWIDTH 600 0
DWIDTH 10 0
BBX 10 13 0 -3
BITMAP
0700D0
0A0740
091D00
0D7400
1DE000
1F7400
282800
241C00
340A00
700700
000000
000000
0FF400
ENDCHAR
STARTCHAR uni1E35
ENCODING 7733
SWIDTH 600 0
DWIDTH 10 0
BBX 8 14 1 -3
BITMAP
0D00
1C00
1800
280A
3428
30E0
77C0
7DD0
B460
D034
C01C
0000
0000
3FC0
ENDCHAR
STARTCHAR uni1E36
ENCODING 7734
SWIDTH 600 0
DWIDTH 10 0
BBX 7 14 1 -4
BITMAP
0600
0A00
0D00
0D00
1C00
1800
2800
3400
3000
7FFC
0000
0000
0740
0740
ENDCHAR
STARTCHAR uni1E37
ENCODING 7735
SWIDTH 600 0
DWIDTH 10 0
BBX 5 15 2 -4
BITMAP
BF00
0700
0600
0900
0D00
0C00
1800
2800
2400
2840
1F80
0000
0000
0E00
1D00
ENDCHAR
STARTCHAR uni1E38
ENCODING 7736
SWIDTH 600 0
DWIDTH 10 0
BBX 7 17 1 -4
BITMAP
1FE0
0000
0000
0600
0A00
0D00
0D00
1C00
1800
2800
3400
3000
7FFC
0000
0000
0740
0740
ENDCHAR
STARTCHAR uni1E39
ENCODING 7737
SWIDTH 600 0
DWIDTH 10 0
BBX 6 18 2 -4
BITMAP
1FF0
0000
0000
BF00
0700
0600
0900
0D00
0C00
1800
2800
2400
2840
1F80
0000
0000
0E00
1D00
ENDCHAR
STARTCHAR uni1E3A
ENCODING 7738
SWIDTH 600 0
DWIDTH 10 0
BBX 7 13 1 -3
BITMAP
0600
0A00
0D00
0D00
1C00
1800
2800
3400
3000
7FFC
0000
0000
2FE0
ENDCHAR
STARTCHAR uni1E3B
ENCODING 7739
SWIDTH 600 0
DWIDTH 10 0
BBX 5 14 2 -3
BITMAP
BF00
0700
0600
0900
0D00
0C00
1800
2800
2400
2840
1F80
0000
0000
7F80
ENDCHAR
STARTCHAR uni1E3E
ENCODING 7742
SWIDTH 600 0
DWIDTH 10 0
BBX 10 14 0 0
BITMAP
000200
000A00
002400
000000
0B01D0
0F03C0
1E4AC0
1A4D80
2A6640
25B340
31D300
704700
600A00
900900
ENDCHAR
STARTCHAR uni1E3F
ENCODING 7743
SWIDTH 600 0
DWIDTH 10 0
BBX 9 12 0 0
BITMAP
000200
001D00
002400
000000
2AD780
28B5C0
34A1C0
309180
70D280
A0C340
A18300
D28700
ENDCHAR
STARTCHAR uni1E40
ENCODING 7744
SWIDTH 600 0
DWIDTH 10 0
BBX 10 13 0 0
BITMAP
001C00
001C00
000000
0B01D0
0F03C0
1E4AC0
1A4D80
2A6640
25B340
31D300
704700
600A00
900900
ENDCHAR
STARTCHAR uni1E41
ENCODING 7745
SWIDTH 600 0
DWIDTH 10 0
BBX 9 11 0 0
BITMAP
002C00
002800
000000
2AD780
28B5C0
34A1C0
309180
70D280
A0C340
A18300
D28700
ENDCHAR
STARTCHAR uni1E42
ENCODING 7746
SWIDTH 600 0
DWIDTH 10 0
BBX 10 14 0 -4
BITMAP
0B01D0
0F03C0
1E4AC0
1A4D80
2A6640
25B340
31D300
704700
600A00
900900
000000
000000
070000
0B0000
ENDCHAR
STARTCHAR uni1E43
ENCODING 7747
SWIDTH 600 0
DWIDTH 10 0
BBX 9 12 0 -4
BITMAP
2AD780
28B5C0
34A1C0
309180
70D280
A0C340
A18300
D28700
000000
000000
074000
074000
ENDCHAR
STARTCHAR uni1E44
ENCODING 7748
SWIDTH 600 0
DWIDTH 10 0
BBX 10 13 0 0
BITMAP
001C00
001C00
000000
0B00D0
0B40C0
0E8180
1DC280
18D240
28A340
347300
303A00
702E00
601D00
ENDCHAR
STARTCHAR uni1E45
ENCODING 7749
SWIDTH 600 0
DWIDTH 10 0
BBX 9 11 0 0
BITMAP
002C00
002800
000000
0C6E00
0E4340
1D0240
280340
240300
340700
300A00
700900
ENDCHAR
STARTCHAR uni1E46
ENCODING 7750
SWIDTH 600 0
DWIDTH 10 0
BBX 10 14 0 -4
BITMAP
0B00D0
0B40C0
0E8180
1DC280
18D240
28A340
347300
303A00
702E00
601D00
000000
000000
074000
074000
ENDCHAR
STARTCHAR uni1E47
ENCODING 7751
SWIDTH 600 0
DWIDTH 10 0
BBX 9 12 0 -4
BITMAP
0C6E00
0E4340
1D0240
280340
240300
340700
300A00
700900
000000
000000
034000
074000
ENDCHAR
STARTCHAR uni1E48
ENCODING 7752
SWIDTH 600 0
DWIDTH 10 0
BBX 10 13 0 -3
BITMAP
0B00D0
0B40C0
0E8180
1DC280
18D240
28A340
347300
303A00
702E00
601D00
000000
000000
1FE000
ENDCHAR
STARTCHAR uni1E49
ENCODING 7753
SWIDTH 600 0
DWIDTH 10 0
BBX 9 11 0 -3
BITMAP
0C6E00
0E4340
1D0240
280340
240300
340700
300A00
700900
000000
000000
1FE000
ENDCHAR
STARTCHAR uni1E52
ENCODING 7762
SWIDTH 600 0
DWIDTH 10 0
BBX 9 16 0 0
BITMAP
000240
000900
000000
00BF40
000000
000000
01BD00
0B4740
1C01C0
2801C0
3401C0
7001C0
700280
300700
281D00
0BE400
ENDCHAR
STARTCHAR uni1E53
ENCODING 7763
SWIDTH 600 0
DWIDTH 10 0
BBX 9 14 0 0
BITMAP
000600
000800
000000
01FF00
000000
000000
02F800
0E0B00
280340
340240
700340
300700
281D00
0BE000
ENDCHAR
STARTCHAR uni1E58
ENCODING 7768
SWIDTH 600 0
DWIDTH 10 0
BBX 9 13 0 0
BITMAP
001C00
001C00
000000
07FE00
0A0780
0D0280
0D0280
1C0B00
1FF800
287000
343400
301C00
700D00
ENDCHAR
STARTCHAR uni1E59
ENCODING 7769
SWIDTH 600 0
DWIDTH 10 0
BBX 8 11 1 0
BITMAP
0074
0074
0000
0C6E
1D80
1D00
2800
2400
3400
3000
7000
ENDCHAR
STARTCHAR uni1E5A
ENCODING 7770
SWIDTH 600 0
DWIDTH 10 0
BBX 9 14 0 -4
BITMAP
07FE00
0A0780
0D0280
0D0280
1C0B00
1FF800
287000
343400
301C00
700D00
000000
000000
038000
074000
ENDCHAR
STARTCHAR uni1E5B
ENCODING 7771
SWIDTH 600 0
DWIDTH 10 0
BBX 8 12 1 -4
BITMAP
0C6E
1D80
1D00
2800
2400
3400
3000
7000
0000
0000
E000
D000
ENDCHAR
STARTCHAR uni1E5C
ENCODING 7772
SWIDTH 600 0
DWIDTH 10 0
BBX 9 17 0 -4
BITMAP
00FF40
000000
000000
07FE00
0A0780
0D0280
0D0280
1C0B00
1FF800
287000
343400
301C00
700D00
000000
000000
038000
074000
ENDCHAR
STARTCHAR uni1E5D
ENCODING 7773
SWIDTH 600 0
DWIDTH 10 0
BBX 8 15 1 -4
BITMAP
02FD
0000
0000
0C6E
1D80
1D00
2800
2400
3400
3000
7000
0000
0000
E000
D000
ENDCHAR
STARTCHAR uni1E5E
ENCODING 7774
SWIDTH 600 0
DWIDTH 10 0
BBX 9 13 0 -3
BITMAP
07FE00
0A0780
0D0280
0D0280
1C0B00
1FF800
287000
343400
301C00
700D00
000000
000000
1FE000
ENDCHAR
STARTCHAR uni1E5F
ENCODING 7775
SWIDTH 600 0
DWIDTH 10 0
BBX 10 11 -1 -3
BITMAP
00C6E0
01D800
01D000
028000
024000
034000
030000
070000
000000
000000
7F8000
ENDCHAR
STARTCHAR uni1E60
ENCODING 7776
SWIDTH 600 0
DWIDTH 10 0
BBX 8 13 1 0
BITMAP
00A0
00A0
0000
07F4
1D1D
2800
1D00
0B80
01B0
0028
4028
D074
6F90
ENDCHAR
STARTCHAR uni1E61
ENCODING 7777
SWIDTH 600 0
DWIDTH 10 0
BBX 7 11 1 0
BITMAP
00A0
00E0
0000
0BE4
281C
3400
1E40
01B0
0028
E034
2FD0
ENDCHAR
STARTCHAR uni1E62
ENCODING 7778
SWIDTH 600 0
DWIDTH 10 0
BBX 8 14 1 -4
BITMAP
07F4
1D1D
2800
1D00
0B80
01B0
0028
4028
D074
6F90
0000
0000
0E00
1D00
ENDCHAR
STARTCHAR uni1E63
ENCODING 7779
SWIDTH 600 0
DWIDTH 10 0
BBX 7 12 1 -4
BITMAP
0BE4
281C
3400
1E40
01B0
0028
E034
2FD0
0000
0000
0E00
0D00
ENDCHAR
STARTCHAR uni1E6C
ENCODING 7788
SWIDTH 600 0
DWIDTH 10 0
BBX 9 14 1 -4
BITMAP
7FFFC0
00D000
01C000
018000
028000
034000
030000
070000
0A0000
0A0000
000000
000000
1D0000
2C0000
ENDCHAR
STARTCHAR uni1E6D
ENCODING 7789
SWIDTH 600 0
DWIDTH 10 0
BBX 8 15 1 -4
BITMAP
0240
0300
0700
BFFE
0A00
0D00
0C00
1C00
1800
1D14
0BE4
0000
0000
0740
0740
ENDCHAR
STARTCHAR uni1E6E
ENCODING 7790
SWIDTH 600 0
DWIDTH 10 0
BBX 9 13 1 -3
BITMAP
7FFFC0
00D000
01C000
018000
028000
034000
030000
070000
0A0000
0A0000
000000
000000
BF4000
ENDCHAR
STARTCHAR uni1E6F
ENCODING 7791
SWIDTH 600 0
DWIDTH 10 0
BBX 8 14 1 -3
BITMAP
0240
0300
0700
BFFE
0A00
0D00
0C00
1C00
1800
1D14
0BE4
0000
0000
2FE0
ENDCHAR
STARTCHAR uni1E7E
ENCODING 7806
SWIDTH 600 0
DWIDTH 10 0
BBX 8 14 2 -4
BITMAP
D00A
D00D
9028
A030
A0A0
61C0
6240
7700
3900
3800
0000
0000
7000
B000
ENDCHAR
STARTCHAR uni1E7F
ENCODING 7807
SWIDTH 600 0
DWIDTH 10 0
BBX 8 12 1 -4
BITMAP
A007
7009
3018
3434
28A0
18C0
1E40
0F00
0000
0000
1D00
1D00
ENDCHAR
STARTCHAR Wgrave
ENCODING 7808
SWIDTH 600 0
DWIDTH 10 0
BBX 9 14 1 0
BITMAP
018000
01D000
006000
000000
A000C0
A00180
904240
92C300
92C600
D9C900
DC9C00
D89800
F0A800
E0B400
ENDCHAR
STARTCHAR wgrave
ENCODING 7809
SWIDTH 600 0
DWIDTH 10 0
BBX 10 12 0 0
BITMAP
009000
007400
001800
000000
706060
70B090
71B1C0
727280
333300
363600
383900
383C00
ENDCHAR
STARTCHAR Wacute
ENCODING 7810
SWIDTH 600 0
DWIDTH 10 0
BBX 9 14 1 0
BITMAP
000800
003800
009000
000000
A000C0
A00180
904240
92C300
92C600
D9C900
DC9C00
D89800
F0A800
E0B400
ENDCHAR
STARTCHAR wacute
ENCODING 7811
SWIDTH 600 0
DWIDTH 10 0
BBX 10 12 0 0
BITMAP
000600
001D00
006000
000000
706060
70B090
71B1C0
727280
333300
363600
383900
383C00
ENDCHAR
STARTCHAR Wdieresis
ENCODING 7812
SWIDTH 600 0
DWIDTH 10 0
BBX 9 13 1 0
BITMAP
024900
024D00
000000
A000C0
A00180
904240
92C300
92C600
D9C900
DC9C00
D89800
F0A800
E0B400
ENDCHAR
STARTCHAR wdieresis
ENCODING 7813
SWIDTH 600 0
DWIDTH 10 0
BBX 10 11 0 0
BITMAP
01C700
018600
000000
706060
70B090
71B1C0
727280
333300
363600
383900
383C00
ENDCHAR
STARTCHAR uni1E8E
ENCODING 7822
SWIDTH 600 0
DWIDTH 10 0
BBX 8 13 2 0
BITMAP
0280
0280
0000
D00A
A01C
6034
3090
2680
1F00
0D00
1C00
1800
2800
ENDCHAR
STARTCHAR uni1E8F
ENCODING 7823
SWIDTH 600 0
DWIDTH 10 0
BBX 10 14 -1 -3
BITMAP
000E00
000D00
000000
060070
0700D0
034180
024340
018A00
01DC00
00E400
00A000
01C000
074000
7D0000
ENDCHAR
STARTCHAR uni1E90
ENCODING 7824
SWIDTH 600 0
DWIDTH 10 0
BBX 10 13 0 0
BITMAP
007D00
018200
000000
0FFFD0
000380
000A00
002800
007000
01D000
074000
0D0000
380000
BFFF00
ENDCHAR
STARTCHAR uni1E91
ENCODING 7825
SWIDTH 600 0
DWIDTH 10 0
BBX 9 12 0 0
BITMAP
007C00
00DA00
024200
000000
0FFF40
000A00
002800
00A000
028000
0A0000
280000
7FFE00
ENDCHAR
STARTCHAR uni1E92
ENCODING 7826
SWIDTH 600 0
DWIDTH 10 0
BBX 10 14 0 -4
BITMAP
0FFFD0
000380
000A00
002800
007000
01D000
074000
0D0000
380000
BFFF00
000000
000000
038000
038000
ENDCHAR
STARTCHAR uni1E93
ENCODING 7827
SWIDTH 600 0
DWIDTH 10 0
BBX 9 12 0 -4
BITMAP
0FFF40
000A00
002800
00A000
028000
0A0000
280000
7FFE00
000000
000000
038000
074000
ENDCHAR
STARTCHAR uni1E94
ENCODING 7828
SWIDTH 600 0
DWIDTH 10 0
BBX 10 13 0 -3
BITMAP
0FFFD0
000380
000A00
002800
007000
01D000
074000
0D0000
380000
BFFF00
000000
000000
1FF000
ENDCHAR
STARTCHAR uni1E95
ENCODING 7829
SWIDTH 600 0
DWIDTH 10 0
BBX 9 11 0 -3
BITMAP
0FFF40
000A00
002800
00A000
028000
0A0000
280000
7FFE00
000000
000000
1FE000
ENDCHAR
STARTCHAR uni1E96
ENCODING 7830
SWIDTH 600 0
DWIDTH 10 0
BBX 9 14 0 -3
BITMAP
070000
060000
0A0000
0D6E00
0E4340
1D0240
180340
240300
340700
300A00
700900
000000
000000
1FE000
ENDCHAR
STARTCHAR uni1E97
ENCODING 7831
SWIDTH 600 0
DWIDTH 10 0
BBX 8 13 1 0
BITMAP
0924
0D34
0240
0300
0700
BFFE
0A00
0D00
0C00
1C00
1800
1D14
0BE4
ENDCHAR
STARTCHAR uni1E9E
ENCODING 7838
SWIDTH 600 0
DWIDTH 10 0
BBX 9 10 0 0
BITMAP
01BE00
074280
0D0640
1C1D00
283800
280B40
340280
300280
724740
A1F900
ENDCHAR
STARTCHAR uni1EA0
ENCODING 7840
SWIDTH 600 0
DWIDTH 10 0
BBX 8 14 0 -4
BITMAP
0038
00AC
00CC
024D
0709
0909
1FFE
3406
A007
D007
0000
0000
0740
0740
ENDCHAR
STARTCHAR uni1EA1
ENCODING 7841
SWIDTH 600 0
DWIDTH 10 0
BBX 8 12 1 -4
BITMAP
0BE6
281E
7009
D00C
C01C
D018
E0B8
6E64
0000
0000
1D00
1D00
ENDCHAR
STARTCHAR uni1EA2
ENCODING 7842
SWIDTH 600 0
DWIDTH 10 0
BBX 8 14 0 0
BITMAP
0028
000D
0028
0000
0038
00AC
00CC
024D
0709
0909
1FFE
3406
A007
D007
ENDCHAR
STARTCHAR uni1EA3
ENCODING 7843
SWIDTH 600 0
DWIDTH 10 0
BBX 8 13 1 0
BITMAP
00A0
0024
0034
0090
0000
0BE6
281E
7009
D00C
C01C
D018
E0B8
6E64
ENDCHAR
STARTCHAR uni1EA4
ENCODING 7844
SWIDTH 600 0
DWIDTH 10 0
BBX 10 14 0 0
BITMAP
000060
002D80
009200
000000
003800
00AC00
00CC00
024D00
070900
090900
1FFE00
340600
A00700
D00700
ENDCHAR
STARTCHAR uni1EA5
ENCODING 7845
SWIDTH 600 0
DWIDTH 10 0
BBX 9 12 1 0
BITMAP
000180
00B600
024800
000000
0BE600
281E00
700900
D00C00
C01C00
D01800
E0B800
6E6400
ENDCHAR
STARTCHAR uni1EA6
ENCODING 7846
SWIDTH 600 0
DWIDTH 10 0
BBX 8 14 0 0
BITMAP
0200
00AD
0092
0000
0038
00AC
00CC
024D
0709
0909
1FFE
3406
A007
D007
ENDCHAR
STARTCHAR uni1EA7
ENCODING 7847
SWIDTH 600 0
DWIDTH 10 0
BBX 8 12 1 0
BITMAP
1800
09B4
0248
0000
0BE6
281E
7009
D00C
C01C
D018
E0B8
6E64
ENDCHAR
STARTCHAR uni1EA8
ENCODING 7848
SWIDTH 600 0
DWIDTH 10 0
BBX 10 15 0 0
BITMAP
0000D0
000060
002DD0
009200
000000
003800
00AC00
00CC00
024D00
070900
090900
1FFE00
340600
A00700
D00700
ENDCHAR
STARTCHAR uni1EA9
ENCODING 7849
SWIDTH 600 0
DWIDTH 10 0
BBX 9 13 1 0
BITMAP
000740
000280
00B600
024800
000000
0BE600
281E00
700900
D00C00
C01C00
D01800
E0B800
6E6400
ENDCHAR
STARTCHAR uni1EAA
ENCODING 7850
SWIDTH 600 0
DWIDTH 10 0
BBX 9 15 0 0
BITMAP
007880
008B40
002D00
009200
000000
003800
00AC00
00CC00
024D00
070900
090900
1FFE00
340600
A00700
D00700
ENDCHAR
STARTCHAR uni1EAB
ENCODING 7851
SWIDTH 600 0
DWIDTH 10 0
BBX 8 13 1 0
BITMAP
0191
026D
00B4
0248
0000
0BE6
281E
7009
D00C
C01C
D018
E0B8
6E64
ENDCHAR
STARTCHAR uni1EAC
ENCODING 7852
SWIDTH 600 0
DWIDTH 10 0
BBX 9 17 0 -4
BITMAP
002E00
009240
000000
003800
00AC00
00CC00
024D00
070900
090900
1FFE00
340600
A00700
D00700
000000
000000
074000
074000
ENDCHAR
STARTCHAR uni1EAD
ENCODING 7853
SWIDTH 600 0
DWIDTH 10 0
BBX 8 16 1 -4
BITMAP
00B4
029C
0609
0000
0BE6
281E
7009
D00C
C01C
D018
E0B8
6E64
0000
0000
1D00
1D00
ENDCHAR
STARTCHAR uni1EAE
ENCODING 7854
SWIDTH 600 0
DWIDTH 10 0
BBX 9 15 0 0
BITMAP
000200
000900
009280
007E00
000000
003800
00AC00
00CC00
024D00
070900
090900
1FFE00
340600
A00700
D00700
ENDCHAR
STARTCHAR uni1EAF
ENCODING 7855
SWIDTH 600 0
DWIDTH 10 0
BBX 8 13 1 0
BITMAP
0018
0226
0349
01F4
0000
0BE6
281E
7009
D00C
C01C
D018
E0B8
6E64
ENDCHAR
STARTCHAR uni1EB0
ENCODING 7856
SWIDTH 600 0
DWIDTH 10 0
BBX 9 15 0 0
BITMAP
002400
000800
009280
007E00
000000
003800
00AC00
00CC00
024D00
070900
090900
1FFE00
340600
A00700
D00700
ENDCHAR
STARTCHAR uni1EB1
ENCODING 7857
SWIDTH 600 0
DWIDTH 10 0
BBX 8 13 1 0
BITMAP
0090
0266
0349
01F4
0000
0BE6
281E
7009
D00C
C01C
D018
E0B8
6E64
ENDCHAR
STARTCHAR uni1EB2
ENCODING 7858
SWIDTH 600 0
DWIDTH 10 0
BBX 9 16 0 0
BITMAP
000D00
000600
000800
009280
007E00
000000
003800
00AC00
00CC00
024D00
070900
090900
1FFE00
340600
A00700
D00700
ENDCHAR
STARTCHAR uni1EB3
ENCODING 7859
SWIDTH 600 0
DWIDTH 10 0
BBX 8 14 1 0
BITMAP
0074
0028
0266
0349
01F4
0000
0BE6
281E
7009
D00C
C01C
D018
E0B8
6E64
ENDCHAR
STARTCHAR uni1EB4
ENCODING 7860
SWIDTH 600 0
DWIDTH 10 0
BBX 9 15 0 0
BITMAP
007880
008B40
009240
007E00
000000
003800
00AC00
00CC00
024D00
070900
090900
1FFE00
340600
A00700
D00700
ENDCHAR
STARTCHAR uni1EB5
ENCODING 7861
SWIDTH 600 0
DWIDTH 10 0
BBX 8 13 1 0
BITMAP
0192
026D
0309
01F4
0000
0BE6
281E
7009
D00C
C01C
D018
E0B8
6E64
ENDCHAR
STARTCHAR uni1EB6
ENCODING 7862
SWIDTH 600 0
DWIDTH 10 0
BBX 9 17 0 -4
BITMAP
008180
007E00
000000
003800
00AC00
00CC00
024D00
070900
090900
1FFE00
340600
A00700
D00700
000000
000000
074000
074000
ENDCHAR
STARTCHAR uni1EB7
ENCODING 7863
SWIDTH 600 0
DWIDTH 10 0
BBX 8 16 1 -4
BITMAP
0206
0349
01F4
0000
0BE6
281E
7009
D00C
C01C
D018
E0B8
6E64
0000
0000
1D00
1D00
ENDCHAR
STARTCHAR uni1EB8
ENCODING 7864
SWIDTH 600 0
DWIDTH 10 0
BBX 9 14 1 -4
BITMAP
0FFF40
1C0000
180000
280000
3FF800
300000
700000
A00000
A00000
FFF800
000000
000000
0A0000
0A0000
ENDCHAR
STARTCHAR uni1EB9
ENCODING 7865
SWIDTH 600 0
DWIDTH 10 0
BBX 8 12 1 -4
BITMAP
07E4
291C
6009
BFFD
D000
D000
B424
2FE0
0000
0000
0E00
0D00
ENDCHAR
STARTCHAR uni1EBA
ENCODING 7866
SWIDTH 600 0
DWIDTH 10 0
BBX 9 14 1 0
BITMAP
007400
001800
006400
000000
0FFF40
1C0000
180000
280000
3FF800
300000
700000
A00000
A00000
FFF800
ENDCHAR
STARTCHAR uni1EBB
ENCODING 7867
SWIDTH 600 0
DWIDTH 10 0
BBX 8 13 1 0
BITMAP
00A0
0034
0030
0090
0000
07E4
291C
6009
BFFD
D000
D000
B424
2FE0
ENDCHAR
STARTCHAR uni1EBC
ENCODING 7868
SWIDTH 600 0
DWIDTH 10 0
BBX 9 13 1 0
BITMAP
01F580
021E00
000000
0FFF40
1C0000
180000
280000
3FF800
300000
700000
A00000
A00000
FFF800
ENDCHAR
STARTCHAR uni1EBD
ENCODING 7869
SWIDTH 600 0
DWIDTH 10 0
BBX 8 12 1 0
BITMAP
0141
0696
092D
0000
07E4
291C
6009
BFFD
D000
D000
B424
2FE0
ENDCHAR
STARTCHAR uni1EBE
ENCODING 7870
SWIDTH 600 0
DWIDTH 10 0
BBX 10 14 1 0
BITMAP
000090
007E40
008500
000000
0FFF40
1C0000
180000
280000
3FF800
300000
700000
A00000
A00000
FFF800
ENDCHAR
STARTCHAR uni1EBF
ENCODING 7871
SWIDTH 600 0
DWIDTH 10 0
BBX 9 12 1 0
BITMAP
000180
01F600
021800
000000
07E400
291C00
600900
BFFD00
D00000
D00000
B42400
2FE000
ENDCHAR
STARTCHAR uni1EC0
ENCODING 7872
SWIDTH 600 0
DWIDTH 10 0
BBX 9 14 1 0
BITMAP
020000
02BC00
008500
000000
0FFF40
1C0000
180000
280000
3FF800
300000
700000
A00000
A00000
FFF800
ENDCHAR
STARTCHAR uni1EC1
ENCODING 7873
SWIDTH 600 0
DWIDTH 10 0
BBX 8 12 1 0
BITMAP
1400
09F0
0218
0000
07E4
291C
6009
BFFD
D000
D000
B424
2FE0
ENDCHAR
STARTCHAR uni1EC2
ENCODING 7874
SWIDTH 600 0
DWIDTH 10 0
BBX 10 15 1 0
BITMAP
000280
000090
007D80
008500
000000
0FFF40
1C0000
180000
280000
3FF800
300000
700000
A00000
A00000
FFF800
ENDCHAR
STARTCHAR uni1EC3
ENCODING 7875
SWIDTH 600 0
DWIDTH 10 0
BBX 9 13 1 0
BITMAP
000740
000240
01F600
021800
000000
07E400
291C00
600900
BFFD00
D00000
D00000
B42400
2FE000
ENDCHAR
STARTCHAR uni1EC4
ENCODING 7876
SWIDTH 600 0
DWIDTH 10 0
BBX 9 15 1 0
BITMAP
00B540
009B00
007C00
008500
000000
0FFF40
1C0000
180000
280000
3FF800
300000
700000
A00000
A00000
FFF800
ENDCHAR
STARTCHAR uni1EC5
ENCODING 7877
SWIDTH 600 0
DWIDTH 10 0
BBX 8 13 1 0
BITMAP
0195
026C
01F4
0258
0000
07E4
291C
6009
BFFD
D000
D000
B424
2FE0
ENDCHAR
STARTCHAR uni1EC6
ENCODING 7878
SWIDTH 600 0
DWIDTH 10 0
BBX 9 17 1 -4
BITMAP
007C00
018600
000000
0FFF40
1C0000
180000
280000
3FF800
300000
700000
A00000
A00000
FFF800
000000
000000
0A0000
0A0000
ENDCHAR
STARTCHAR uni1EC7
ENCODING 7879
SWIDTH 600 0
DWIDTH 10 0
BBX 8 16 1 -4
BITMAP
00F4
0298
0508
0000
07E4
291C
6009
BFFD
D000
D000
B424
2FE0
0000
0000
0E00
0D00
ENDCHAR
STARTCHAR uni1EC8
ENCODING 7880
SWIDTH 600 0
DWIDTH 10 0
BBX 9 14 0 0
BITMAP
002800
000D00
002800
000000
07FFC0
003400
007000
006000
00A000
00D000
00C000
01C000
028000
7FFC00
ENDCHAR
STARTCHAR uni1EC9
ENCODING 7881
SWIDTH 600 0
DWIDTH 10 0
BBX 7 13 1 0
BITMAP
01D0
0070
0060
0080
0000
7F80
0280
0240
0300
0700
0600
0700
02F4
ENDCHAR
STARTCHAR uni1ECA
ENCODING 7882
SWIDTH 600 0
DWIDTH 10 0
BBX 9 14 0 -4
BITMAP
07FFC0
003400
007000
006000
00A000
00D000
00C000
01C000
028000
7FFC00
000000
000000
070000
0B0000
ENDCHAR
STARTCHAR uni1ECB
ENCODING 7883
SWIDTH 600 0
DWIDTH 10 0
BBX 7 15 1 -4
BITMAP
01D0
01D0
0000
7F80
0280
0240
0300
0700
0600
0700
02F4
0000
0000
0280
0380
ENDCHAR
STARTCHAR uni1ECC
ENCODING 7884
SWIDTH 600 0
DWIDTH 10 0
BBX 9 14 0 -4
BITMAP
01BD00
0B4740
1C01C0
2801C0
3401C0
7001C0
700280
300700
281D00
0BE400
000000
000000
070000
0B0000
ENDCHAR
STARTCHAR uni1ECD
ENCODING 7885
SWIDTH 600 0
DWIDTH 10 0
BBX 9 12 0 -4
BITMAP
02F800
0E0B00
280340
340240
700340
300700
281D00
0BE000
000000
000000
070000
0B0000
ENDCHAR
STARTCHAR uni1ECE
ENCODING 7886
SWIDTH 600 0
DWIDTH 10 0
BBX 9 14 0 0
BITMAP
002800
000D00
002800
000000
01BD00
0B4740
1C01C0
2801C0
3401C0
7001C0
700280
300700
281D00
0BE400
ENDCHAR
STARTCHAR uni1ECF
ENCODING 7887
SWIDTH 600 0
DWIDTH 10 0
BBX 9 13 0 0
BITMAP
003800
000D00
001C00
002400
000000
02F800
0E0B00
280340
340240
700340
300700
281D00
0BE000
ENDCHAR
STARTCHAR uni1ED0
ENCODING 7888
SWIDTH 600 0
DWIDTH 10 0
BBX 10 14 0 0
BITMAP
000060
002D80
009200
000000
01BD00
0B4740
1C01C0
2801C0
3401C0
7001C0
700280
300700
281D00
0BE400
ENDCHAR
STARTCHAR uni1ED1
ENCODING 7889
SWIDTH 600 0
DWIDTH 10 0
BBX 10 12 0 0
BITMAP
000050
007D80
018600
000000
02F800
0E0B00
280340
340240
700340
300700
281D00
0BE000
ENDCHAR
STARTCHAR uni1ED2
ENCODING 7890
SWIDTH 600 0
DWIDTH 10 0
BBX 9 14 0 0
BITMAP
020000
00AD00
009200
000000
01BD00
0B4740
1C01C0
2801C0
3401C0
7001C0
700280
300700
281D00
0BE400
ENDCHAR
STARTCHAR uni1ED3
ENCODING 7891
SWIDTH 600 0
DWIDTH 10 0
BBX 9 12 0 0
BITMAP
090000
027C00
018600
000000
02F800
0E0B00
280340
340240
700340
300700
281D00
0BE000
ENDCHAR
STARTCHAR uni1ED4
ENCODING 7892
SWIDTH 600 0
DWIDTH 10 0
BBX 10 15 0 0
BITMAP
0000D0
000060
002DD0
009200
000000
01BD00
0B4740
1C01C0
2801C0
3401C0
7001C0
700280
300700
281D00
0BE400
ENDCHAR
STARTCHAR uni1ED5
ENCODING 7893
SWIDTH 600 0
DWIDTH 10 0
BBX 10 13 0 0
BITMAP
000180
000090
007D80
018600
000000
02F800
0E0B00
280340
340240
700340
300700
281D00
0BE000
ENDCHAR
STARTCHAR uni1ED6
ENCODING 7894
SWIDTH 600 0
DWIDTH 10 0
BBX 9 15 0 0
BITMAP
007880
008B40
002D00
009200
000000
01BD00
0B4740
1C01C0
2801C0
3401C0
7001C0
700280
300700
281D00
0BE400
ENDCHAR
STARTCHAR uni1ED7
ENCODING 7895
SWIDTH 600 0
DWIDTH 10 0
BBX 9 13 0 0
BITMAP
006540
009B00
007C00
008600
000000
02F800
0E0B00
280340
340240
700340
300700
281D00
0BE000
ENDCHAR
STARTCHAR uni1ED8
ENCODING 7896
SWIDTH 600 0
DWIDTH 10 0
BBX 9 17 0 -4
BITMAP
002E00
009240
000000
01BD00
0B4740
1C01C0
2801C0
3401C0
7001C0
700280
300700
281D00
0BE400
000000
000000
070000
0B0000
ENDCHAR
STARTCHAR uni1ED9
ENCODING 7897
SWIDTH 600 0
DWIDTH 10 0
BBX 9 16 0 -4
BITMAP
003C00
00DA00
024200
000000
02F800
0E0B00
280340
340240
700340
300700
281D00
0BE000
000000
000000
070000
0B0000
ENDCHAR
STARTCHAR uni1EDA
ENCODING 7898
SWIDTH 600 0
DWIDTH 10 0
BBX 10 14 0 0
BITMAP
000200
000A00
002420
000030
01BE90
0B4740
1C01C0
2801C0
3401C0
7001C0
700280
300700
281D00
0BE400
ENDCHAR
STARTCHAR uni1EDB
ENCODING 7899
SWIDTH 600 0
DWIDTH 10 0
BBX 10 12 0 0
BITMAP
000600
001D00
002050
000090
02FA40
0E0B00
280340
340240
700340
300700
281D00
0BE400
ENDCHAR
STARTCHAR uni1EDC
ENCODING 7900
SWIDTH 600 0
DWIDTH 10 0
BBX 10 14 0 0
BITMAP
006000
003400
000820
000030
01BE90
0B4740
1C01C0
2801C0
3401C0
7001C0
700280
300700
281D00
0BE400
ENDCHAR
STARTCHAR uni1EDD
ENCODING 7901
SWIDTH 600 0
DWIDTH 10 0
BBX 10 12 0 0
BITMAP
006000
007400
001850
000090
02FA40
0E0B00
280340
340240
700340
300700
281D00
0BE400
ENDCHAR
STARTCHAR uni1EDE
ENCODING 7902
SWIDTH 600 0
DWIDTH 10 0
BBX 10 14 0 0
BITMAP
002800
000D00
002820
000030
01BE90
0B4740
1C01C0
2801C0
3401C0
7001C0
700280
300700
281D00
0BE400
ENDCHAR
STARTCHAR uni1EDF
ENCODING 7903
SWIDTH 600 0
DWIDTH 10 0
BBX 10 13 0 0
BITMAP
003800
000D00
001C00
002450
000090
02FA40
0E0B00
280340
340240
700340
300700
281D00
0BE400
ENDCHAR
STARTCHAR uni1EE0
ENCODING 7904
SWIDTH 600 0
DWIDTH 10 0
BBX 10 13 0 0
BITMAP
02F580
021E20
000030
01BE90
0B4740
1C01C0
2801C0
3401C0
7001C0
700280
300700
281D00
0BE400
ENDCHAR
STARTCHAR uni1EE1
ENCODING 7905
SWIDTH 600 0
DWIDTH 10 0
BBX 10 12 0 0
BITMAP
004000
03A300
062D50
000090
02FA40
0E0B00
280340
340240
700340
300700
281D00
0BE400
ENDCHAR
STARTCHAR uni1EE2
ENCODING 7906
SWIDTH 600 0
DWIDTH 10 0
BBX 10 16 0 -4
BITMAP
000020
000030
01BE90
0B4740
1C01C0
2801C0
3401C0
7001C0
700280
300700
281D00
0BE400
000000
000000
070000
0B0000
ENDCHAR
STARTCHAR uni1EE3
ENCODING 7907
SWIDTH 600 0
DWIDTH 10 0
BBX 10 14 0 -4
BITMAP
000050
000090
02FA40
0E0B00
280340
340240
700340
300700
281D00
0BE400
000000
000000
070000
0B0000
ENDCHAR
STARTCHAR uni1EE4
ENCODING 7908
SWIDTH 600 0
DWIDTH 10 0
BBX 9 14 1 -4
BITMAP
280340
340300
300700
700A00
A00900
900D00
D01C00
D02800
A07400
2F9000
000000
000000
1C0000
2C0000
ENDCHAR
STARTCHAR uni1EE5
ENCODING 7909
SWIDTH 600 0
DWIDTH 10 0
BBX 8 12 1 -4
BITMAP
300A
7009
A00D
A00C
D01C
C028
D1A8
7E24
0000
0000
1D00
1D00
ENDCHAR
STARTCHAR uni1EE6
ENCODING 7910
SWIDTH 600 0
DWIDTH 10 0
BBX 9 14 1 0
BITMAP
00A000
003400
00A000
000000
280340
340300
300700
700A00
A00900
900D00
D01C00
D02800
A07400
2F9000
ENDCHAR
STARTCHAR uni1EE7
ENCODING 7911
SWIDTH 600 0
DWIDTH 10 0
BBX 8 13 1 0
BITMAP
00E0
0034
0070
0090
0000
300A
7009
A00D
A00C
D01C
C028
D1A8
7E24
ENDCHAR
STARTCHAR uni1EE8
ENCODING 7912
SWIDTH 600 0
DWIDTH 10 0
BBX 11 14 1 0
BITMAP
000800
002824
009024
000060
280380
340300
300700
700A00
A00A00
900D00
D01D00
D02C00
A07400
2F9000
ENDCHAR
STARTCHAR uni1EE9
ENCODING 7913
SWIDTH 600 0
DWIDTH 10 0
BBX 10 12 1 0
BITMAP
001800
007450
008090
0001D0
300B40
700A00
A00D00
A00C00
D01C00
C02800
D1A800
7E2400
ENDCHAR
STARTCHAR uni1EEA
ENCODING 7914
SWIDTH 600 0
DWIDTH 10 0
BBX 11 14 1 0
BITMAP
018000
00D024
002024
000060
280380
340300
300700
700A00
A00A00
900D00
D01D00
D02C00
A07400
2F9000
ENDCHAR
STARTCHAR uni1EEB
ENCODING 7915
SWIDTH 600 0
DWIDTH 10 0
BBX 10 12 1 0
BITMAP
028000
01D050
006090
0001D0
300B40
700A00
A00D00
A00C00
D01C00
C02800
D1A800
7E2400
ENDCHAR
STARTCHAR uni1EEC
ENCODING 7916
SWIDTH 600 0
DWIDTH 10 0
BBX 11 14 1 0
BITMAP
00A000
003424
00A024
000060
280380
340300
300700
700A00
A00A00
900D00
D01D00
D02C00
A07400
2F9000
ENDCHAR
STARTCHAR uni1EED
ENCODING 7917
SWIDTH 600 0
DWIDTH 10 0
BBX 10 13 1 0
BITMAP
00E000
003400
007050
009090
0001D0
300B40
700A00
A00D00
A00C00
D01C00
C02800
D1A800
7E2400
ENDCHAR
STARTCHAR uni1EEE
ENCODING 7918
SWIDTH 600 0
DWIDTH 10 0
BBX 11 13 1 0
BITMAP
03E324
052D24
000060
280380
340300
300700
700A00
A00A00
900D00
D01D00
D02C00
A07400
2F9000
ENDCHAR
STARTCHAR uni1EEF
ENCODING 7919
SWIDTH 600 0
DWIDTH 10 0
BBX 10 12 1 0
BITMAP
010100
0ADA50
087890
0001D0
300B40
700A00
A00D00
A00C00
D01C00
C02800
D1A800
7E2400
ENDCHAR
STARTCHAR uni1EF0
ENCODING 7920
SWIDTH 600 0
DWIDTH 10 0
BBX 11 17 1 -4
BITMAP
000024
000024
000060
280380
340300
300700
700A00
A00A00
900D00
D01D00
D02C00
A07400
2F9000
000000
000000
1C0000
2C0000
ENDCHAR
STARTCHAR uni1EF1
ENCODING 7921
SWIDTH 600 0
DWIDTH 10 0
BBX 10 15 1 -4
BITMAP
000050
000090
0001D0
300B40
700A00
A00D00
A00C00
D01C00
C02800
D1A800
7E2400
000000
000000
1D0000
1D0000
ENDCHAR
STARTCHAR Ygrave
ENCODING 7922
SWIDTH 600 0
DWIDTH 10 0
BBX 8 14 2 0
BITMAP
0900
0740
0180
0000
D00A
A01C
6034
3090
2680
1F00
0D00
1C00
1800
2800
ENDCHAR
STARTCHAR ygrave
ENCODING 7923
SWIDTH 600 0
DWIDTH 10 0
BBX 10 15 -1 -3
BITMAP
002400
001D00
000600
000000
060070
0700D0
034180
024340
018A00
01DC00
00E400
00A000
01C000
074000
7D0000
ENDCHAR
STARTCHAR uni1EF4
ENCODING 7924
SWIDTH 600 0
DWIDTH 10 0
BBX 8 14 2 -4
BITMAP
D00A
A01C
6034
3090
2680
1F00
0D00
1C00
1800
2800
0000
0000
7000
B000
ENDCHAR
STARTCHAR uni1EF5
ENCODING 7925
SWIDTH 600 0
DWIDTH 10 0
BBX 10 12 -1 -4
BITMAP
060070
0700D0
034180
024340
018A00
01DC00
00E400
00A000
01C000
074000
7D0B00
000A00
ENDCHAR
STARTCHAR uni1EF6
ENCODING 7926
SWIDTH 600 0
DWIDTH 10 0
BBX 8 14 2 0
BITMAP
0380
01C0
0240
0000
D00A
A01C
6034
3090
2680
1F00
0D00
1C00
1800
2800
ENDCHAR
STARTCHAR uni1EF7
ENCODING 7927
SWIDTH 600 0
DWIDTH 10 0
BBX 10 16 -1 -3
BITMAP
000E00
000700
000700
000900
000000
060070
0700D0
034180
024340
018A00
01DC00
00E400
00A000
01C000
074000
7D0000
ENDCHAR
STARTCHAR uni1EF8
ENCODING 7928
SWIDTH 600 0
DWIDTH 10 0
BBX 8 13 2 0
BITMAP
1F4C
24B4
0000
D00A
A01C
6034
3090
2680
1F00
0D00
1C00
1800
2800
ENDCHAR
STARTCHAR uni1EF9
ENCODING 7929
SWIDTH 600 0
DWIDTH 10 0
BBX 10 15 -1 -3
BITMAP
001010
00AD60
008780
000000
060070
0700D0
034180
024340
018A00
01DC00
00E400
00A000
01C000
074000
7D0000
ENDCHAR
STARTCHAR uni2007
ENCODING 8199
SWIDTH 600 0
DWIDTH 10 0
BBX 1 1 0 0
BITMAP
00
ENDCHAR
STARTCHAR uni2010
ENCODING 8208
SWIDTH 600 0
DWIDTH 10 0
BBX 8 1 1 5
BITMAP
BFFD
ENDCHAR
STARTCHAR figuredash
ENCODING 8210
SWIDTH 600 0
DWIDTH 10 0
BBX 7 1 1 4
BITMAP
FFFC
ENDCHAR
STARTCHAR endash
ENCODING 8211
SWIDTH 600 0
DWIDTH 10 0
BBX 7 1 1 4
BITMAP
FFFC
ENDCHAR
STARTCHAR emdash
ENCODING 8212
SWIDTH 600 0
DWIDTH 10 0
BBX 11 1 -1 4
BITMAP
7FFFF4
ENDCHAR
STARTCHAR uni2015
ENCODING 8213
SWIDTH 600 0
DWIDTH 10 0
BBX 11 1 -1 4
BITMAP
7FFFF4
ENDCHAR
STARTCHAR uni2016
ENCODING 8214
SWIDTH 600 0
DWIDTH 10 0
BBX 5 16 2 -4
BITMAP
60C0
60C0
60C0
60C0
60C0
60C0
60C0
60C0
60C0
60C0
60C0
60C0
60C0
60C0
60C0
60C0
ENDCHAR
STARTCHAR underscoredbl
ENCODING 8215
SWIDTH 600 0
DWIDTH 10 0
BBX 9 3 -1 -4
BITMAP
7FFF40
000000
BFFF00
ENDCHAR
STARTCHAR quoteleft
ENCODING 8216
SWIDTH 600 0
DWIDTH 10 0
BBX 4 5 4 6
BITMAP
0A
38
A0
F4
B4
ENDCHAR
STARTCHAR quoteright
ENCODING 8217
SWIDTH 600 0
DWIDTH 10 0
BBX 4 5 3 6
BITMAP
0E
1F
07
1D
64
ENDCHAR
STARTCHAR quotesinglbase
ENCODING 8218
SWIDTH 600 0
DWIDTH 10 0
BBX 4 5 2 -3
BITMAP
1E
1F
0A
1D
60
ENDCHAR
STARTCHAR quotereversed
ENCODING 8219
SWIDTH 600 0
DWIDTH 10 0
BBX 4 5 3 6
BITMAP
2D
7D
70
38
09
ENDCHAR
STARTCHAR quotedblleft
ENCODING 8220
SWIDTH 600 0
DWIDTH 10 0
BBX 8 5 2 6
BITMAP
0609
2874
6090
B8F4
74B4
ENDCHAR
STARTCHAR quotedblright
ENCODING 8221
SWIDTH 600 0
DWIDTH 10 0
BBX 8 5 1 6
BITMAP
0B1E
0F5F
070A
1D2C
6460
ENDCHAR
STARTCHAR quotedblbase
ENCODING 8222
SWIDTH 600 0
DWIDTH 10 0
BBX 8 5 1 -3
BITMAP
0B1E
0F5F
070A
1D2C
6460
ENDCHAR
STARTCHAR dagger
ENCODING 8224
SWIDTH 600 0
DWIDTH 10 0
BBX 5 14 3 -2
BITMAP
0900
0900
0800
FFC0
1800
1800
2400
2000
3000
6000
6000
9000
D000
4000
ENDCHAR
STARTCHAR daggerdbl
ENCODING 8225
SWIDTH 600 0
DWIDTH 10 0
BBX 7 14 1 -2
BITMAP
00A0
0090
0090
0FFC
0080
0180
0240
0240
0300
0200
7FE0
0500
0900
0D00
ENDCHAR
STARTCHAR bullet
ENCODING 8226
SWIDTH 600 0
DWIDTH 10 0
BBX 5 5 2 2
BITMAP
1F40
7FC0
BFC0
BF80
2E00
ENDCHAR
STARTCHAR ellipsis
ENCODING 8230
SWIDTH 600 0
DWIDTH 10 0
BBX 8 2 0 0
BITMAP
A2CB
E38B
ENDCHAR
STARTCHAR uni202F
ENCODING 8239
SWIDTH 600 0
DWIDTH 10 0
BBX 1 1 0 0
BITMAP
00
ENDCHAR
STARTCHAR perthousand
ENCODING 8240
SWIDTH 600 0
DWIDTH 10 0
BBX 10 10 0 0
BITMAP
0B8000
188000
248190
1F5A40
069000
140000
2D2E00
926240
C69200
787D00
ENDCHAR
STARTCHAR uni2032
ENCODING 8242
SWIDTH 600 0
DWIDTH 10 0
BBX 3 4 4 7
BITMAP
1C
24
30
60
ENDCHAR
STARTCHAR uni2033
ENCODING 8243
SWIDTH 600 0
DWIDTH 10 0
BBX 6 4 3 7
BITMAP
24D0
31C0
6240
9200
ENDCHAR
STARTCHAR uni2035
ENCODING 8245
SWIDTH 600 0
DWIDTH 10 0
BBX 3 4 4 7
BITMAP
70
34
24
08
ENDCHAR
STARTCHAR guilsinglleft
ENCODING 8249
SWIDTH 600 0
DWIDTH 10 0
BBX 4 6 3 1
BITMAP
05
28
A0
D0
70
24
ENDCHAR
STARTCHAR guilsinglright
ENCODING 8250
SWIDTH 600 0
DWIDTH 10 0
BBX 4 6 2 1
BITMAP
18
0D
07
0A
28
60
ENDCHAR
STARTCHAR exclamdbl
ENCODING 8252
SWIDTH 600 0
DWIDTH 10 0
BBX 8 10 1 0
BITMAP
090A
0D0D
1C0C
1818
2424
2020
0000
0000
B0B0
E0E0
ENDCHAR
STARTCHAR uni203D
ENCODING 8253
SWIDTH 600 0
DWIDTH 10 0
BBX 7 10 2 0
BITMAP
1BD0
6474
0630
0990
0A00
0C00
0000
0000
2800
3800
ENDCHAR
STARTCHAR uni203E
ENCODING 8254
SWIDTH 600 0
DWIDTH 10 0
BBX 8 1 2 9
BITMAP
FFFD
ENDCHAR
STARTCHAR uni203F
ENCODING 8255
SWIDTH 600 0
DWIDTH 10 0
BBX 15 3 -4 -4
BITMAP
50000014
1E401690
01BFE400
ENDCHAR
STARTCHAR fraction
ENCODING 8260
SWIDTH 600 0
DWIDTH 10 0
BBX 11 9 -1 1
BITMAP
000018
000060
000180
000100
000000
014000
060000
280000
600000
ENDCHAR
STARTCHAR uni2047
ENCODING 8263
SWIDTH 600 0
DWIDTH 10 0
BBX 10 10 0 0
BITMAP
1F8BD0
14D4A0
00C0A0
024180
090600
280C00
000000
000000
742C00
743800
ENDCHAR
STARTCHAR uni2048
ENCODING 8264
SWIDTH 600 0
DWIDTH 10 0
BBX 9 10 0 0
BITMAP
1F8280
14D240
00C340
024300
090600
280900
000000
000000
741D00
742D00
ENDCHAR
STARTCHAR uni2049
ENCODING 8265
SWIDTH 600 0
DWIDTH 10 0
BBX 10 10 0 0
BITMAP
034BD0
0704A0
0600A0
090180
080600
0C0C00
000000
000000
382C00
783800
ENDCHAR
STARTCHAR zero.sups
ENCODING 8304
SWIDTH 600 0
DWIDTH 10 0
BBX 5 7 3 6
BITMAP
1F00
6180
90C0
C180
C180
9300
7D00
ENDCHAR
STARTCHAR i.sups
ENCODING 8305
SWIDTH 600 0
DWIDTH 10 0
BBX 5 8 3 6
BITMAP
0600
0000
0000
BD00
0800
0800
1800
1F40
ENDCHAR
STARTCHAR four.sups
ENCODING 8308
SWIDTH 600 0
DWIDTH 10 0
BBX 5 7 3 6
BITMAP
0600
0800
2500
5200
FF80
0600
0500
ENDCHAR
STARTCHAR five.sups
ENCODING 8309
SWIDTH 600 0
DWIDTH 10 0
BBX 5 6 3 6
BITMAP
1FC0
2000
3E00
1240
8240
7E00
ENDCHAR
STARTCHAR six.sups
ENCODING 8310
SWIDTH 600 0
DWIDTH 10 0
BBX 5 7 3 6
BITMAP
1B80
3440
6000
AE00
9240
9240
2E00
ENDCHAR
STARTCHAR seven.sups
ENCODING 8311
SWIDTH 600 0
DWIDTH 10 0
BBX 5 6 4 6
BITMAP
FF40
0500
1800
2000
6000
9000
ENDCHAR
STARTCHAR eight.sups
ENCODING 8312
SWIDTH 600 0
DWIDTH 10 0
BBX 5 7 3 6
BITMAP
1F40
3180
2580
2E00
9200
D240
7E00
ENDCHAR
STARTCHAR nine.sups
ENCODING 8313
SWIDTH 600 0
DWIDTH 10 0
BBX 5 7 3 6
BITMAP
1E00
2280
5180
6280
2E40
4200
B800
ENDCHAR
STARTCHAR parenleft.sups
ENCODING 8317
SWIDTH 600 0
DWIDTH 10 0
BBX 4 9 4 5
BITMAP
05
18
24
20
60
50
50
60
20
ENDCHAR
STARTCHAR parenright.sups
ENCODING 8318
SWIDTH 600 0
DWIDTH 10 0
BBX 4 9 3 5
BITMAP
08
09
05
05
09
08
18
24
60
ENDCHAR
STARTCHAR n.sups
ENCODING 8319
SWIDTH 600 0
DWIDTH 10 0
BBX 6 6 3 5
BITMAP
2B80
74D0
60C0
90C0
C180
4140
ENDCHAR
STARTCHAR zero.subs
ENCODING 8320
SWIDTH 600 0
DWIDTH 10 0
BBX 6 7 1 -3
BITMAP
0B80
2890
3060
6050
6090
3180
1E00
ENDCHAR
STARTCHAR one.subs
ENCODING 8321
SWIDTH 600 0
DWIDTH 10 0
BBX 6 6 1 -3
BITMAP
0B80
0240
0300
0300
0600
7FD0
ENDCHAR
STARTCHAR two.subs
ENCODING 8322
SWIDTH 600 0
DWIDTH 10 0
BBX 6 7 1 -3
BITMAP
0B80
0490
0090
0180
0600
1800
7F80
ENDCHAR
STARTCHAR three.subs
ENCODING 8323
SWIDTH 600 0
DWIDTH 10 0
BBX 5 7 2 -3
BITMAP
2E00
1240
0740
2D00
0700
8700
7D00
ENDCHAR
STARTCHAR four.subs
ENCODING 8324
SWIDTH 600 0
DWIDTH 10 0
BBX 6 7 1 -3
BITMAP
0140
0600
0880
2480
7FD0
0140
0240
ENDCHAR
STARTCHAR five.subs
ENCODING 8325
SWIDTH 600 0
DWIDTH 10 0
BBX 5 6 2 -3
BITMAP
2F80
2000
7E00
1300
8700
7D00
ENDCHAR
STARTCHAR six.subs
ENCODING 8326
SWIDTH 600 0
DWIDTH 10 0
BBX 5 7 2 -3
BITMAP
1F40
7400
9000
EE00
D240
9300
7D00
ENDCHAR
STARTCHAR seven.subs
ENCODING 8327
SWIDTH 600 0
DWIDTH 10 0
BBX 5 6 2 -3
BITMAP
7FC0
0240
0900
1800
2400
3000
ENDCHAR
STARTCHAR eight.subs
ENCODING 8328
SWIDTH 600 0
DWIDTH 10 0
BBX 5 7 2 -3
BITMAP
2E00
6240
2240
7E00
D600
C700
BD00
ENDCHAR
STARTCHAR nine.subs
ENCODING 8329
SWIDTH 600 0
DWIDTH 10 0
BBX 5 7 2 -3
BITMAP
2E00
6240
9240
9240
7E40
4600
B800
ENDCHAR
STARTCHAR parenleft.subs
ENCODING 8333
SWIDTH 600 0
DWIDTH 10 0
BBX 3 9 3 -4
BITMAP
08
14
30
60
90
90
90
90
50
ENDCHAR
STARTCHAR parenright.subs
ENCODING 8334
SWIDTH 600 0
DWIDTH 10 0
BBX 4 9 2 -4
BITMAP
08
08
09
09
08
0C
14
20
50
ENDCHAR
STARTCHAR uni0259.sups
ENCODING 8340
SWIDTH 600 0
DWIDTH 10 0
BBX 5 5 3 6
BITMAP
2F40
11C0
FFC0
C280
7E00
ENDCHAR
STARTCHAR colonmonetary
ENCODING 8353
SWIDTH 600 0
DWIDTH 10 0
BBX 8 14 1 -2
BITMAP
0011
0025
01BD
0A8B
2C94
3460
7120
A250
A180
7480
3968
1FE0
1200
1100
ENDCHAR
STARTCHAR franc
ENCODING 8355
SWIDTH 600 0
DWIDTH 10 0
BBX 10 10 0 0
BITMAP
02FFD0
034000
030000
070000
0BFE00
090000
0D0000
7FE000
1C0000
280000
ENDCHAR
STARTCHAR lira
ENCODING 8356
SWIDTH 600 0
DWIDTH 10 0
BBX 9 10 0 0
BITMAP
00BE00
028180
030000
1FFD00
034000
2FFC00
034000
060000
180000
7FFE00
ENDCHAR
STARTCHAR uni20A6
ENCODING 8358
SWIDTH 600 0
DWIDTH 10 0
BBX 9 10 0 0
BITMAP
034140
068240
09C300
3FFFC0
0C9600
7FFF80
186900
182800
242800
302800
ENDCHAR
STARTCHAR peseta
ENCODING 8359
SWIDTH 600 0
DWIDTH 10 0
BBX 9 10 1 0
BITMAP
0FF800
1C0900
BFFF40
280D00
246800
3FD000
300000
600000
A00000
900000
ENDCHAR
STARTCHAR uni20A9
ENCODING 8361
SWIDTH 600 0
DWIDTH 10 0
BBX 10 10 0 0
BITMAP
091090
0D34C0
0C6580
0CA640
7FFFC0
196600
1A2500
1A2800
192800
1C3800
ENDCHAR
STARTCHAR dong
ENCODING 8363
SWIDTH 600 0
DWIDTH 10 0
BBX 9 11 1 0
BITMAP
000900
01FF40
000C00
0BE800
282800
702400
603400
70B000
2FB000
000000
FFF000
ENDCHAR
STARTCHAR Euro
ENCODING 8364
SWIDTH 600 0
DWIDTH 10 0
BBX 10 10 0 0
BITMAP
006F80
029090
0A0000
3FFE00
0C0000
7FF800
1C0000
0D0000
0A0700
02F900
ENDCHAR
STARTCHAR uni20AE
ENCODING 8366
SWIDTH 600 0
DWIDTH 10 0
BBX 9 10 1 0
BITMAP
2FFF40
00D000
01C000
01E800
0B8000
27A400
1B4000
570000
060000
0A0000
ENDCHAR
STARTCHAR uni20B1
ENCODING 8369
SWIDTH 600 0
DWIDTH 10 0
BBX 9 10 1 0
BITMAP
0FF400
0C1D00
7FFF80
180900
BFFF40
242800
3FE000
700000
A00000
900000
ENDCHAR
STARTCHAR uni20B2
ENCODING 8370
SWIDTH 600 0
DWIDTH 10 0
BBX 8 14 1 -2
BITMAP
0024
0030
02F9
1E06
3800
7000
A000
90BD
900C
A01C
7428
1FE0
0600
0600
ENDCHAR
STARTCHAR uni20B4
ENCODING 8372
SWIDTH 600 0
DWIDTH 10 0
BBX 8 10 1 0
BITMAP
06F8
091D
001C
7FFE
0780
BFFD
3400
6000
7464
1F90
ENDCHAR
STARTCHAR uni20B5
ENCODING 8373
SWIDTH 600 0
DWIDTH 10 0
BBX 8 14 1 -2
BITMAP
0014
0024
01BD
0A67
2C60
3450
7080
A080
A080
7180
3A68
1BE0
0200
0100
ENDCHAR
STARTCHAR uni20B8
ENCODING 8376
SWIDTH 600 0
DWIDTH 10 0
BBX 8 10 2 0
BITMAP
BFFD
0000
FFFC
0700
0A00
0900
0D00
1C00
1800
2800
ENDCHAR
STARTCHAR uni20B9
ENCODING 8377
SWIDTH 600 0
DWIDTH 10 0
BBX 9 10 1 0
BITMAP
1FFF40
006400
2FFE00
002400
01B000
7F8000
0A0000
074000
028000
00D000
ENDCHAR
STARTCHAR uni20BA
ENCODING 8378
SWIDTH 600 0
DWIDTH 10 0
BBX 8 10 1 0
BITMAP
0700
0A14
0B90
6D60
1E40
B805
2809
341C
35B4
7E80
ENDCHAR
STARTCHAR uni20BD
ENCODING 8381
SWIDTH 600 0
DWIDTH 10 0
BBX 10 10 0 0
BITMAP
00FF80
01C1D0
0280A0
028090
0342C0
7FFE00
070000
BFFF00
0A0000
0D0000
ENDCHAR
STARTCHAR uni2105
ENCODING 8453
SWIDTH 600 0
DWIDTH 10 0
BBX 10 10 0 0
BITMAP
2E0060
A10180
C00600
D00400
7D0000
001F40
096180
249180
909240
407D00
ENDCHAR
STARTCHAR uni2113
ENCODING 8467
SWIDTH 600 0
DWIDTH 10 0
BBX 8 11 1 0
BITMAP
00B8
01C9
0249
030C
0724
0A90
0B40
1D00
6C00
0D10
0BD0
ENDCHAR
STARTCHAR uni2116
ENCODING 8470
SWIDTH 600 0
DWIDTH 10 0
BBX 11 10 -1 0
BITMAP
0B0A78
0B0D8C
0E1948
1A5A58
1A65E0
267400
2572F0
31A000
61E000
90D000
ENDCHAR
STARTCHAR uni2117
ENCODING 8471
SWIDTH 600 0
DWIDTH 10 0
BBX 10 10 0 0
BITMAP
01BE00
0A4280
240080
21FD50
514950
92F880
930080
520240
241900
0BE400
ENDCHAR
STARTCHAR uni2120
ENCODING 8480
SWIDTH 600 0
DWIDTH 10 0
BBX 9 5 1 6
BITMAP
7C61C0
95A280
24A980
4C9940
B98240
ENDCHAR
STARTCHAR trademark
ENCODING 8482
SWIDTH 600 0
DWIDTH 10 0
BBX 10 5 1 6
BITMAP
BF70D0
146680
249A80
208C80
208180
ENDCHAR
STARTCHAR uni2126
ENCODING 8486
SWIDTH 600 0
DWIDTH 10 0
BBX 10 10 -1 0
BITMAP
006F80
02D1E0
070070
0D0030
1C0070
1C0070
1C0090
0C0180
0A0600
7F0FD0
ENDCHAR
STARTCHAR estimated
ENCODING 8494
SWIDTH 600 0
DWIDTH 10 0
BBX 9 10 0 0
BITMAP
06F800
190600
380380
7803C0
BFFFC0
B80000
780000
380100
1D0900
06F400
ENDCHAR
STARTCHAR uni2150
ENCODING 8528
SWIDTH 600 0
DWIDTH 10 0
BBX 11 10 -1 0
BITMAP
0B4018
030060
030180
060100
090000
014FF0
060090
280240
600300
000600
ENDCHAR
STARTCHAR uni2151
ENCODING 8529
SWIDTH 600 0
DWIDTH 10 0
BBX 11 10 -1 0
BITMAP
0B4018
030060
030180
060100
090000
014B80
0618A0
280FA0
601090
001F40
ENDCHAR
STARTCHAR uni2152
ENCODING 8530
SWIDTH 600 0
DWIDTH 10 0
BBX 9 10 1 0
BITMAP
2E0000
090000
0C0640
086900
1A4000
507800
F58800
324800
325800
61F400
ENDCHAR
STARTCHAR onethird
ENCODING 8531
SWIDTH 600 0
DWIDTH 10 0
BBX 11 10 -1 0
BITMAP
0B4018
030060
030180
060100
090000
0147D0
060490
280380
601490
000B80
ENDCHAR
STARTCHAR twothirds
ENCODING 8532
SWIDTH 600 0
DWIDTH 10 0
BBX 11 10 -1 0
BITMAP
0B8018
158060
024180
190100
3F8000
0147D0
060490
280380
601490
000B80
ENDCHAR
STARTCHAR uni2155
ENCODING 8533
SWIDTH 600 0
DWIDTH 10 0
BBX 11 10 -1 0
BITMAP
0B4018
030060
030180
060100
090000
0147E0
060800
280FC0
601490
000F80
ENDCHAR
STARTCHAR uni2156
ENCODING 8534
SWIDTH 600 0
DWIDTH 10 0
BBX 11 10 -1 0
BITMAP
0B8018
158060
024180
190100
3F8000
0147E0
060800
280FC0
601490
000F80
ENDCHAR
STARTCHAR uni2157
ENCODING 8535
SWIDTH 600 0
DWIDTH 10 0
BBX 11 10 -1 0
BITMAP
0B8018
05C060
074180
118100
1F4000
0147E0
060800
280FC0
601490
000F80
ENDCHAR
STARTCHAR uni2158
ENCODING 8536
SWIDTH 600 0
DWIDTH 10 0
BBX 11 10 -1 0
BITMAP
020018
090060
254180
7FC100
020000
0147E0
060800
280FC0
601490
000F80
ENDCHAR
STARTCHAR uni2159
ENCODING 8537
SWIDTH 600 0
DWIDTH 10 0
BBX 11 10 -1 0
BITMAP
0B4018
030060
030180
060100
090000
0146E0
060D10
281BD0
601890
000B80
ENDCHAR
STARTCHAR uni215A
ENCODING 8538
SWIDTH 600 0
DWIDTH 10 0
BBX 11 10 -1 0
BITMAP
0FC018
180060
1F8180
25C100
2F4000
0146E0
060D10
281BD0
601890
000B80
ENDCHAR
STARTCHAR oneeighth
ENCODING 8539
SWIDTH 600 0
DWIDTH 10 0
BBX 11 10 -1 0
BITMAP
0B4018
030060
030180
060100
090000
0147D0
060D60
280BC0
601890
001F80
ENDCHAR
STARTCHAR threeeighths
ENCODING 8540
SWIDTH 600 0
DWIDTH 10 0
BBX 11 10 -1 0
BITMAP
0B8018
05C060
074180
118100
1F4000
0147D0
060D60
280BC0
601890
001F80
ENDCHAR
STARTCHAR fiveeighths
ENCODING 8541
SWIDTH 600 0
DWIDTH 10 0
BBX 11 10 -1 0
BITMAP
0FC018
180060
1F8180
25C100
2F4000
0147D0
060D60
280BC0
601890
001F80
ENDCHAR
STARTCHAR seveneighths
ENCODING 8542
SWIDTH 600 0
DWIDTH 10 0
BBX 11 10 -1 0
BITMAP
1FD018
018060
020180
090100
0C0000
0147D0
060D60
280BC0
601890
001F80
ENDCHAR
STARTCHAR uni2189
ENCODING 8585
SWIDTH 600 0
DWIDTH 10 0
BBX 11 10 -1 0
BITMAP
0B8018
249060
305180
31C100
1E4000
0147D0
060490
280380
601490
000B80
ENDCHAR
STARTCHAR uni2190
ENCODING 8592
SWIDTH 600 0
DWIDTH 10 0
BBX 9 9 0 0
BITMAP
004000
028000
0A0000
280000
BFFFC0
280000
0A0000
028000
004000
ENDCHAR
STARTCHAR arrowup
ENCODING 8593
SWIDTH 600 0
DWIDTH 10 0
BBX 9 9 0 0
BITMAP
009000
02F400
0A9D00
289340
609180
009000
009000
009000
009000
ENDCHAR
STARTCHAR uni2192
ENCODING 8594
SWIDTH 600 0
DWIDTH 10 0
BBX 9 9 0 0
BITMAP
005000
007400
000D00
000240
BFFFC0
000240
000D00
007400
005000
ENDCHAR
STARTCHAR arrowdown
ENCODING 8595
SWIDTH 600 0
DWIDTH 10 0
BBX 9 9 0 0
BITMAP
009000
009000
009000
009000
609180
289340
0A9D00
02F400
009000
ENDCHAR
STARTCHAR arrowboth
ENCODING 8596
SWIDTH 600 0
DWIDTH 10 0
BBX 10 7 0 1
BITMAP
080500
280340
600180
FFFFE0
600180
280340
080500
ENDCHAR
STARTCHAR arrowupdn
ENCODING 8597
SWIDTH 600 0
DWIDTH 10 0
BBX 7 10 1 -1
BITMAP
0240
0BE0
7668
0244
0240
0240
0244
7668
0BE0
0240
ENDCHAR
STARTCHAR uni2196
ENCODING 8598
SWIDTH 600 0
DWIDTH 10 0
BBX 7 8 1 0
BITMAP
1000
7AA8
7C00
5B00
52C0
60B0
602C
0004
ENDCHAR
STARTCHAR uni2197
ENCODING 8599
SWIDTH 600 0
DWIDTH 10 0
BBX 7 6 1 1
BITMAP
3ABC
007C
01CC
070C
1C0C
7008
ENDCHAR
STARTCHAR uni2198
ENCODING 8600
SWIDTH 600 0
DWIDTH 10 0
BBX 7 7 1 1
BITMAP
1000
740C
1D0C
074C
01DC
007C
3EBC
ENDCHAR
STARTCHAR uni2199
ENCODING 8601
SWIDTH 600 0
DWIDTH 10 0
BBX 7 7 1 1
BITMAP
0004
601C
6070
61C0
6700
7C00
7EB8
ENDCHAR
STARTCHAR arrowupdnbse
ENCODING 8616
SWIDTH 600 0
DWIDTH 10 0
BBX 8 11 1 -2
BITMAP
0240
0BE0
7668
5244
0240
0240
5244
7668
0BE0
0240
FFFE
ENDCHAR
STARTCHAR uni21D0
ENCODING 8656
SWIDTH 600 0
DWIDTH 10 0
BBX 9 8 0 0
BITMAP
01C000
060000
1FFFC0
600000
600000
1FFFC0
060000
01C000
ENDCHAR
STARTCHAR uni21D1
ENCODING 8657
SWIDTH 600 0
DWIDTH 10 0
BBX 9 9 0 0
BITMAP
009000
02B400
0A1D00
2A0B40
620980
020800
020800
020800
020800
ENDCHAR
STARTCHAR uni21D2
ENCODING 8658
SWIDTH 600 0
DWIDTH 10 0
BBX 9 8 0 0
BITMAP
006000
001800
BFFE00
000180
000180
BFFE00
001800
006000
ENDCHAR
STARTCHAR uni21D3
ENCODING 8659
SWIDTH 600 0
DWIDTH 10 0
BBX 9 9 0 0
BITMAP
020800
020800
020800
020800
620980
2A0B40
0A1D00
02B400
009000
ENDCHAR
STARTCHAR uni2200
ENCODING 8704
SWIDTH 600 0
DWIDTH 10 0
BBX 9 10 1 0
BITMAP
700280
700700
300A00
3FFC00
342400
246000
24D000
198000
1B0000
1E0000
ENDCHAR
STARTCHAR partialdiff
ENCODING 8706
SWIDTH 600 0
DWIDTH 10 0
BBX 9 10 0 0
BITMAP
00BE00
004740
000280
000180
06F680
1D0B40
340700
700900
346800
1F9000
ENDCHAR
STARTCHAR uni2203
ENCODING 8707
SWIDTH 600 0
DWIDTH 10 0
BBX 9 10 0 0
BITMAP
0FFF80
000340
000300
000700
0FFE00
000900
000D00
001C00
001C00
FFF800
ENDCHAR
STARTCHAR uni2206
ENCODING 8710
SWIDTH 600 0
DWIDTH 10 0
BBX 9 10 -1 0
BITMAP
000E00
002B00
007300
009340
018240
034280
0A0180
0C01C0
2401C0
7FFFC0
ENDCHAR
STARTCHAR product
ENCODING 8719
SWIDTH 600 0
DWIDTH 10 0
BBX 9 11 0 -1
BITMAP
7FFF80
700280
700280
700280
700280
700280
700280
700280
700280
700280
700280
ENDCHAR
STARTCHAR summation
ENCODING 8721
SWIDTH 600 0
DWIDTH 10 0
BBX 8 12 1 -2
BITMAP
BFFD
7000
2800
0D00
0700
0180
0280
0700
0D00
2800
6000
FFFE
ENDCHAR
STARTCHAR minus
ENCODING 8722
SWIDTH 600 0
DWIDTH 10 0
BBX 8 1 1 5
BITMAP
BFFD
ENDCHAR
STARTCHAR uni2215
ENCODING 8725
SWIDTH 600 0
DWIDTH 10 0
BBX 11 9 -1 1
BITMAP
000018
000060
000180
000100
000000
014000
060000
280000
600000
ENDCHAR
STARTCHAR uni2219
ENCODING 8729
SWIDTH 600 0
DWIDTH 10 0
BBX 3 3 2 4
BITMAP
2C
7C
38
ENDCHAR
STARTCHAR radical
ENCODING 8730
SWIDTH 600 0
DWIDTH 10 0
BBX 8 15 1 -1
BITMAP
0001
0002
0003
0006
0005
0008
000C
1018
A414
1820
0820
0520
0250
0290
01C0
ENDCHAR
STARTCHAR infinity
ENCODING 8734
SWIDTH 600 0
DWIDTH 10 0
BBX 10 5 0 3
BITMAP
6E1F80
92A090
C1C060
D2A090
7D1F80
ENDCHAR
STARTCHAR orthogonal
ENCODING 8735
SWIDTH 600 0
DWIDTH 10 0
BBX 8 7 1 2
BITMAP
9000
9000
9000
9000
9000
9000
BFFD
ENDCHAR
STARTCHAR intersection
ENCODING 8745
SWIDTH 600 0
DWIDTH 10 0
BBX 7 7 1 2
BITMAP
0BE0
3428
600C
600C
600C
600C
600C
ENDCHAR
STARTCHAR integral
ENCODING 8747
SWIDTH 600 0
DWIDTH 10 0
BBX 4 16 3 -3
BITMAP
0B
28
24
34
34
24
24
28
18
18
18
1C
1C
18
28
F0
ENDCHAR
STARTCHAR uni2237
ENCODING 8759
SWIDTH 600 0
DWIDTH 10 0
BBX 8 9 1 1
BITMAP
1D0E
3D2E
281D
0000
0000
0000
B074
F4B8
E074
ENDCHAR
STARTCHAR approxequal
ENCODING 8776
SWIDTH 600 0
DWIDTH 10 0
BBX 7 6 1 2
BITMAP
2E48
91F4
0000
0000
2E48
91F4
ENDCHAR
STARTCHAR notequal
ENCODING 8800
SWIDTH 600 0
DWIDTH 10 0
BBX 8 8 1 1
BITMAP
0014
0020
BFFD
0180
0200
BFFD
1800
2000
ENDCHAR
STARTCHAR equivalence
ENCODING 8801
SWIDTH 600 0
DWIDTH 10 0
BBX 8 7 1 2
BITMAP
BFFD
0000
0000
BFFD
0000
0000
BFFD
ENDCHAR
STARTCHAR lessequal
ENCODING 8804
SWIDTH 600 0
DWIDTH 10 0
BBX 8 9 1 0
BITMAP
0004
00B8
1A40
B400
1A40
00B8
0004
0000
BFFD
ENDCHAR
STARTCHAR greaterequal
ENCODING 8805
SWIDTH 600 0
DWIDTH 10 0
BBX 8 9 1 0
BITMAP
4000
7900
06E4
002D
06E4
7900
4000
0000
BFFD
ENDCHAR
STARTCHAR house
ENCODING 8962
SWIDTH 600 0
DWIDTH 10 0
BBX 9 10 0 0
BITMAP
00E000
036400
0A0D00
1C0700
340280
700180
700180
700180
700180
7FFF80
ENDCHAR
STARTCHAR revlogicalnot
ENCODING 8976
SWIDTH 600 0
DWIDTH 10 0
BBX 8 4 1 2
BITMAP
BFFD
9000
9000
9000
ENDCHAR
STARTCHAR uni231C
ENCODING 8988
SWIDTH 600 0
DWIDTH 10 0
BBX 7 12 2 -1
BITMAP
07FC
0900
0900
0C00
0C00
1800
1400
2400
3000
3000
6000
5000
ENDCHAR
STARTCHAR uni231D
ENCODING 8989
SWIDTH 600 0
DWIDTH 10 0
BBX 5 12 3 -1
BITMAP
FF40
0300
0300
0600
0500
0900
0C00
0C00
1800
1400
2400
2000
ENDCHAR
STARTCHAR uni231E
ENCODING 8990
SWIDTH 600 0
DWIDTH 10 0
BBX 5 11 2 -1
BITMAP
0900
0800
0C00
1800
1800
2400
2000
3000
2000
6000
BF80
ENDCHAR
STARTCHAR uni231F
ENCODING 8991
SWIDTH 600 0
DWIDTH 10 0
BBX 7 12 0 -1
BITMAP
0004
000C
0018
0018
0024
0024
0030
0060
0060
0090
0090
7FC0
ENDCHAR
STARTCHAR integraltp
ENCODING 8992
SWIDTH 600 0
DWIDTH 10 0
BBX 3 19 4 -6
BITMAP
2C
60
90
90
90
90
90
90
90
90
90
90
90
90
90
90
90
90
90
ENDCHAR
STARTCHAR integralbt
ENCODING 8993
SWIDTH 600 0
DWIDTH 10 0
BBX 4 19 2 -3
BITMAP
05
09
09
09
09
09
09
09
09
09
09
09
09
09
09
09
09
0C
74
ENDCHAR
STARTCHAR uni2500
ENCODING 9472
SWIDTH 600 0
DWIDTH 10 0
BBX 12 1 -1 4
BITMAP
BFFFFD
ENDCHAR
STARTCHAR uni2501
ENCODING 9473
SWIDTH 600 0
DWIDTH 10 0
BBX 12 3 -1 3
BITMAP
BFFFFD
BFFFFD
BFFFFD
ENDCHAR
STARTCHAR uni2502
ENCODING 9474
SWIDTH 600 0
DWIDTH 10 0
BBX 2 22 4 -6
BITMAP
90
90
90
90
90
90
90
90
90
90
90
90
90
90
90
90
90
90
90
90
90
90
ENDCHAR
STARTCHAR uni2503
ENCODING 9475
SWIDTH 600 0
DWIDTH 10 0
BBX 3 22 3 -6
BITMAP
7C
7C
7C
7C
7C
7C
7C
7C
7C
7C
7C
7C
7C
7C
7C
7C
7C
7C
7C
7C
7C
7C
ENDCHAR
STARTCHAR uni2504
ENCODING 9476
SWIDTH 600 0
DWIDTH 10 0
BBX 9 1 0 4
BITMAP
79F3C0
ENDCHAR
STARTCHAR uni2505
ENCODING 9477
SWIDTH 600 0
DWIDTH 10 0
BBX 9 3 0 3
BITMAP
79F3C0
79F3C0
79F3C0
ENDCHAR
STARTCHAR uni2506
ENCODING 9478
SWIDTH 600 0
DWIDTH 10 0
BBX 2 17 4 -4
BITMAP
90
90
90
90
00
00
90
90
90
90
40
00
50
90
90
90
90
ENDCHAR
STARTCHAR uni2507
ENCODING 9479
SWIDTH 600 0
DWIDTH 10 0
BBX 3 17 3 -4
BITMAP
7C
7C
7C
7C
00
00
7C
7C
7C
7C
00
00
00
7C
7C
7C
7C
ENDCHAR
STARTCHAR uni2508
ENCODING 9480
SWIDTH 600 0
DWIDTH 10 0
BBX 10 1 0 4
BITMAP
B7BED0
ENDCHAR
STARTCHAR uni2509
ENCODING 9481
SWIDTH 600 0
DWIDTH 10 0
BBX 10 3 0 3
BITMAP
B7BED0
B7BED0
B7BED0
ENDCHAR
STARTCHAR uni250A
ENCODING 9482
SWIDTH 600 0
DWIDTH 10 0
BBX 2 18 4 -4
BITMAP
90
90
90
90
00
90
90
90
90
00
90
90
90
90
90
90
90
90
ENDCHAR
STARTCHAR uni250B
ENCODING 9483
SWIDTH 600 0
DWIDTH 10 0
BBX 3 18 3 -4
BITMAP
7C
7C
7C
7C
00
7C
7C
7C
7C
00
7C
7C
7C
7C
7C
7C
7C
7C
ENDCHAR
STARTCHAR uni250C
ENCODING 9484
SWIDTH 600 0
DWIDTH 10 0
BBX 7 12 4 -7
BITMAP
BFF4
9000
9000
9000
9000
9000
9000
9000
9000
9000
9000
5000
ENDCHAR
STARTCHAR uni250D
ENCODING 9485
SWIDTH 600 0
DWIDTH 10 0
BBX 7 13 4 -7
BITMAP
BFF4
BFF4
BFF4
9000
9000
9000
9000
9000
9000
9000
9000
9000
9000
ENDCHAR
STARTCHAR uni250E
ENCODING 9486
SWIDTH 600 0
DWIDTH 10 0
BBX 8 12 3 -7
BITMAP
7FFD
7C00
7C00
7C00
7C00
7C00
7C00
7C00
7C00
7C00
7C00
6800
ENDCHAR
STARTCHAR uni250F
ENCODING 9487
SWIDTH 600 0
DWIDTH 10 0
BBX 8 13 3 -7
BITMAP
7FFD
7FFD
7FFD
7C00
7C00
7C00
7C00
7C00
7C00
7C00
7C00
7C00
7C00
ENDCHAR
STARTCHAR uni2510
ENCODING 9488
SWIDTH 600 0
DWIDTH 10 0
BBX 7 12 -1 -7
BITMAP
BFF4
0024
0024
0024
0024
0024
0024
0024
0024
0024
0024
0014
ENDCHAR
STARTCHAR uni2511
ENCODING 9489
SWIDTH 600 0
DWIDTH 10 0
BBX 7 13 -1 -7
BITMAP
BFF4
BFF4
BFF4
0024
0024
0024
0024
0024
0024
0024
0024
0024
0024
ENDCHAR
STARTCHAR uni2512
ENCODING 9490
SWIDTH 600 0
DWIDTH 10 0
BBX 7 12 -1 -7
BITMAP
BFFC
007C
007C
007C
007C
007C
007C
007C
007C
007C
007C
0068
ENDCHAR
STARTCHAR uni2513
ENCODING 9491
SWIDTH 600 0
DWIDTH 10 0
BBX 7 13 -1 -7
BITMAP
BFFC
BFFC
BFFC
007C
007C
007C
007C
007C
007C
007C
007C
007C
007C
ENDCHAR
STARTCHAR uni2514
ENCODING 9492
SWIDTH 600 0
DWIDTH 10 0
BBX 7 12 4 4
BITMAP
5000
9000
9000
9000
9000
9000
9000
9000
9000
9000
9000
BFF4
ENDCHAR
STARTCHAR uni2515
ENCODING 9493
SWIDTH 600 0
DWIDTH 10 0
BBX 7 13 4 3
BITMAP
9000
9000
9000
9000
9000
9000
9000
9000
9000
9000
BFF4
BFF4
BFF4
ENDCHAR
STARTCHAR uni2516
ENCODING 9494
SWIDTH 600 0
DWIDTH 10 0
BBX 8 12 3 4
BITMAP
6800
7C00
7C00
7C00
7C00
7C00
7C00
7C00
7C00
7C00
7C00
7FFD
ENDCHAR
STARTCHAR uni2517
ENCODING 9495
SWIDTH 600 0
DWIDTH 10 0
BBX 8 13 3 3
BITMAP
7C00
7C00
7C00
7C00
7C00
7C00
7C00
7C00
7C00
7C00
7FFD
7FFD
7FFD
ENDCHAR
STARTCHAR uni2518
ENCODING 9496
SWIDTH 600 0
DWIDTH 10 0
BBX 7 12 -1 4
BITMAP
0014
0024
0024
0024
0024
0024
0024
0024
0024
0024
0024
BFF4
ENDCHAR
STARTCHAR uni2519
ENCODING 9497
SWIDTH 600 0
DWIDTH 10 0
BBX 7 13 -1 3
BITMAP
0024
0024
0024
0024
0024
0024
0024
0024
0024
0024
BFF4
BFF4
BFF4
ENDCHAR
STARTCHAR uni251A
ENCODING 9498
SWIDTH 600 0
DWIDTH 10 0
BBX 7 12 -1 4
BITMAP
0068
007C
007C
007C
007C
007C
007C
007C
007C
007C
007C
BFFC
ENDCHAR
STARTCHAR uni251B
ENCODING 9499
SWIDTH 600 0
DWIDTH 10 0
BBX 7 13 -1 3
BITMAP
007C
007C
007C
007C
007C
007C
007C
007C
007C
007C
BFFC
BFFC
BFFC
ENDCHAR
STARTCHAR uni251C
ENCODING 9500
SWIDTH 600 0
DWIDTH 10 0
BBX 7 23 4 -7
BITMAP
5000
9000
9000
9000
9000
9000
9000
9000
9000
9000
9000
BFF4
9000
9000
9000
9000
9000
9000
9000
9000
9000
9000
5000
ENDCHAR
STARTCHAR uni251D
ENCODING 9501
SWIDTH 600 0
DWIDTH 10 0
BBX 7 23 4 -7
BITMAP
9000
9000
9000
9000
9000
9000
9000
9000
9000
9000
BFF4
BFF4
BFF4
9000
9000
9000
9000
9000
9000
9000
9000
9000
9000
ENDCHAR
STARTCHAR uni251E
ENCODING 9502
SWIDTH 600 0
DWIDTH 10 0
BBX 8 23 3 -7
BITMAP
6800
7C00
7C00
7C00
7C00
7C00
7C00
7C00
7C00
7C00
7C00
7FFD
2400
2400
2400
2400
2400
2400
2400
2400
2400
2400
1400
ENDCHAR
STARTCHAR uni251F
ENCODING 9503
SWIDTH 600 0
DWIDTH 10 0
BBX 8 23 3 -7
BITMAP
1400
2400
2400
2400
2400
2400
2400
2400
2400
2400
2400
7FFD
7C00
7C00
7C00
7C00
7C00
7C00
7C00
7C00
7C00
7C00
6800
ENDCHAR
STARTCHAR uni2520
ENCODING 9504
SWIDTH 600 0
DWIDTH 10 0
BBX 8 23 3 -7
BITMAP
6800
7C00
7C00
7C00
7C00
7C00
7C00
7C00
7C00
7C00
7C00
7FFD
7C00
7C00
7C00
7C00
7C00
7C00
7C00
7C00
7C00
7C00
6800
ENDCHAR
STARTCHAR uni2521
ENCODING 9505
SWIDTH 600 0
DWIDTH 10 0
BBX 8 23 3 -7
BITMAP
7C00
7C00
7C00
7C00
7C00
7C00
7C00
7C00
7C00
7C00
7FFD
7FFD
7FFD
2400
2400
2400
2400
2400
2400
2400
2400
2400
2400
ENDCHAR
STARTCHAR uni2522
ENCODING 9506
SWIDTH 600 0
DWIDTH 10 0
BBX 8 23 3 -7
BITMAP
2400
2400
2400
2400
2400
2400
2400
2400
2400
2400
7FFD
7FFD
7FFD
7C00
7C00
7C00
7C00
7C00
7C00
7C00
7C00
7C00
7C00
ENDCHAR
STARTCHAR uni2523
ENCODING 9507
SWIDTH 600 0
DWIDTH 10 0
BBX 8 23 3 -7
BITMAP
7C00
7C00
7C00
7C00
7C00
7C00
7C00
7C00
7C00
7C00
7FFD
7FFD
7FFD
7C00
7C00
7C00
7C00
7C00
7C00
7C00
7C00
7C00
7C00
ENDCHAR
STARTCHAR uni2524
ENCODING 9508
SWIDTH 600 0
DWIDTH 10 0
BBX 7 23 -1 -7
BITMAP
0014
0024
0024
0024
0024
0024
0024
0024
0024
0024
0024
BFF4
0024
0024
0024
0024
0024
0024
0024
0024
0024
0024
0014
ENDCHAR
STARTCHAR uni2525
ENCODING 9509
SWIDTH 600 0
DWIDTH 10 0
BBX 7 23 -1 -7
BITMAP
0024
0024
0024
0024
0024
0024
0024
0024
0024
0024
BFF4
BFF4
BFF4
0024
0024
0024
0024
0024
0024
0024
0024
0024
0024
ENDCHAR
STARTCHAR uni2526
ENCODING 9510
SWIDTH 600 0
DWIDTH 10 0
BBX 7 23 -1 -7
BITMAP
0068
007C
007C
007C
007C
007C
007C
007C
007C
007C
007C
BFFC
0024
0024
0024
0024
0024
0024
0024
0024
0024
0024
0014
ENDCHAR
STARTCHAR uni2527
ENCODING 9511
SWIDTH 600 0
DWIDTH 10 0
BBX 7 23 -1 -7
BITMAP
0014
0024
0024
0024
0024
0024
0024
0024
0024
0024
0024
BFFC
007C
007C
007C
007C
007C
007C
007C
007C
007C
007C
0068
ENDCHAR
STARTCHAR uni2528
ENCODING 9512
SWIDTH 600 0
DWIDTH 10 0
BBX 7 23 -1 -7
BITMAP
0068
007C
007C
007C
007C
007C
007C
007C
007C
007C
007C
BFFC
007C
007C
007C
007C
007C
007C
007C
007C
007C
007C
0068
ENDCHAR
STARTCHAR uni2529
ENCODING 9513
SWIDTH 600 0
DWIDTH 10 0
BBX 7 23 -1 -7
BITMAP
007C
007C
007C
007C
007C
007C
007C
007C
007C
007C
BFFC
BFFC
BFFC
0024
0024
0024
0024
0024
0024
0024
0024
0024
0024
ENDCHAR
STARTCHAR uni252A
ENCODING 9514
SWIDTH 600 0
DWIDTH 10 0
BBX 7 23 -1 -7
BITMAP
0024
0024
0024
0024
0024
0024
0024
0024
0024
0024
BFFC
BFFC
BFFC
007C
007C
007C
007C
007C
007C
007C
007C
007C
007C
ENDCHAR
STARTCHAR uni252B
ENCODING 9515
SWIDTH 600 0
DWIDTH 10 0
BBX 7 23 -1 -7
BITMAP
007C
007C
007C
007C
007C
007C
007C
007C
007C
007C
BFFC
BFFC
BFFC
007C
007C
007C
007C
007C
007C
007C
007C
007C
007C
ENDCHAR
STARTCHAR uni252C
ENCODING 9516
SWIDTH 600 0
DWIDTH 10 0
BBX 12 12 -1 -7
BITMAP
BFFFFD
002400
002400
002400
002400
002400
002400
002400
002400
002400
002400
001400
ENDCHAR
STARTCHAR uni252D
ENCODING 9517
SWIDTH 600 0
DWIDTH 10 0
BBX 12 13 -1 -7
BITMAP
BFF400
BFFFFD
BFF400
002400
002400
002400
002400
002400
002400
002400
002400
002400
002400
ENDCHAR
STARTCHAR uni252E
ENCODING 9518
SWIDTH 600 0
DWIDTH 10 0
BBX 12 13 -1 -7
BITMAP
002FFD
BFFFFD
002FFD
002400
002400
002400
002400
002400
002400
002400
002400
002400
002400
ENDCHAR
STARTCHAR uni252F
ENCODING 9519
SWIDTH 600 0
DWIDTH 10 0
BBX 12 13 -1 -7
BITMAP
BFFFFD
BFFFFD
BFFFFD
002400
002400
002400
002400
002400
002400
002400
002400
002400
002400
ENDCHAR
STARTCHAR uni2530
ENCODING 9520
SWIDTH 600 0
DWIDTH 10 0
BBX 12 12 -1 -7
BITMAP
BFFFFD
007C00
007C00
007C00
007C00
007C00
007C00
007C00
007C00
007C00
007C00
006800
ENDCHAR
STARTCHAR uni2531
ENCODING 9521
SWIDTH 600 0
DWIDTH 10 0
BBX 12 13 -1 -7
BITMAP
BFFC00
BFFFFD
BFFC00
007C00
007C00
007C00
007C00
007C00
007C00
007C00
007C00
007C00
007C00
ENDCHAR
STARTCHAR uni2532
ENCODING 9522
SWIDTH 600 0
DWIDTH 10 0
BBX 12 13 -1 -7
BITMAP
007FFD
BFFFFD
007FFD
007C00
007C00
007C00
007C00
007C00
007C00
007C00
007C00
007C00
007C00
ENDCHAR
STARTCHAR uni2533
ENCODING 9523
SWIDTH 600 0
DWIDTH 10 0
BBX 12 13 -1 -7
BITMAP
BFFFFD
BFFFFD
BFFFFD
007C00
007C00
007C00
007C00
007C00
007C00
007C00
007C00
007C00
007C00
ENDCHAR
STARTCHAR uni2534
ENCODING 9524
SWIDTH 600 0
DWIDTH 10 0
BBX 12 12 -1 4
BITMAP
001400
002400
002400
002400
002400
002400
002400
002400
002400
002400
002400
BFFFFD
ENDCHAR
STARTCHAR uni2535
ENCODING 9525
SWIDTH 600 0
DWIDTH 10 0
BBX 12 13 -1 3
BITMAP
002400
002400
002400
002400
002400
002400
002400
002400
002400
002400
BFF400
BFFFFD
BFF400
ENDCHAR
STARTCHAR uni2536
ENCODING 9526
SWIDTH 600 0
DWIDTH 10 0
BBX 12 13 -1 3
BITMAP
002400
002400
002400
002400
002400
002400
002400
002400
002400
002400
002FFD
BFFFFD
002FFD
ENDCHAR
STARTCHAR uni2537
ENCODING 9527
SWIDTH 600 0
DWIDTH 10 0
BBX 12 13 -1 3
BITMAP
002400
002400
002400
002400
002400
002400
002400
002400
002400
002400
BFFFFD
BFFFFD
BFFFFD
ENDCHAR
STARTCHAR uni2538
ENCODING 9528
SWIDTH 600 0
DWIDTH 10 0
BBX 12 12 -1 4
BITMAP
006800
007C00
007C00
007C00
007C00
007C00
007C00
007C00
007C00
007C00
007C00
BFFFFD
ENDCHAR
STARTCHAR uni2539
ENCODING 9529
SWIDTH 600 0
DWIDTH 10 0
BBX 12 13 -1 3
BITMAP
007C00
007C00
007C00
007C00
007C00
007C00
007C00
007C00
007C00
007C00
BFFC00
BFFFFD
BFFC00
ENDCHAR
STARTCHAR uni253A
ENCODING 9530
SWIDTH 600 0
DWIDTH 10 0
BBX 12 13 -1 3
BITMAP
007C00
007C00
007C00
007C00
007C00
007C00
007C00
007C00
007C00
007C00
007FFD
BFFFFD
007FFD
ENDCHAR
STARTCHAR uni253B
ENCODING 9531
SWIDTH 600 0
DWIDTH 10 0
BBX 12 13 -1 3
BITMAP
007C00
007C00
007C00
007C00
007C00
007C00
007C00
007C00
007C00
007C00
BFFFFD
BFFFFD
BFFFFD
ENDCHAR
STARTCHAR uni253C
ENCODING 9532
SWIDTH 600 0
DWIDTH 10 0
BBX 12 23 -1 -7
BITMAP
001400
002400
002400
002400
002400
002400
002400
002400
002400
002400
002400
BFFFFD
002400
002400
002400
002400
002400
002400
002400
002400
002400
002400
001400
ENDCHAR
STARTCHAR uni253D
ENCODING 9533
SWIDTH 600 0
DWIDTH 10 0
BBX 12 23 -1 -7
BITMAP
002400
002400
002400
002400
002400
002400
002400
002400
002400
002400
BFF400
BFFFFD
BFF400
002400
002400
002400
002400
002400
002400
002400
002400
002400
002400
ENDCHAR
STARTCHAR uni253E
ENCODING 9534
SWIDTH 600 0
DWIDTH 10 0
BBX 12 23 -1 -7
BITMAP
002400
002400
002400
002400
002400
002400
002400
002400
002400
002400
002FFD
BFFFFD
002FFD
002400
002400
002400
002400
002400
002400
002400
002400
002400
002400
ENDCHAR
STARTCHAR uni253F
ENCODING 9535
SWIDTH 600 0
DWIDTH 10 0
BBX 12 23 -1 -7
BITMAP
002400
002400
002400
002400
002400
002400
002400
002400
002400
002400
BFFFFD
BFFFFD
BFFFFD
002400
002400
002400
002400
002400
002400
002400
002400
002400
002400
ENDCHAR
STARTCHAR uni2540
ENCODING 9536
SWIDTH 600 0
DWIDTH 10 0
BBX 12 23 -1 -7
BITMAP
006800
007C00
007C00
007C00
007C00
007C00
007C00
007C00
007C00
007C00
007C00
BFFFFD
002400
002400
002400
002400
002400
002400
002400
002400
002400
002400
001400
ENDCHAR
STARTCHAR uni2541
ENCODING 9537
SWIDTH 600 0
DWIDTH 10 0
BBX 12 23 -1 -7
BITMAP
001400
002400
002400
002400
002400
002400
002400
002400
002400
002400
002400
BFFFFD
007C00
007C00
007C00
007C00
007C00
007C00
007C00
007C00
007C00
007C00
006800
ENDCHAR
STARTCHAR uni2542
ENCODING 9538
SWIDTH 600 0
DWIDTH 10 0
BBX 12 23 -1 -7
BITMAP
006800
007C00
007C00
007C00
007C00
007C00
007C00
007C00
007C00
007C00
007C00
BFFFFD
007C00
007C00
007C00
007C00
007C00
007C00
007C00
007C00
007C00
007C00
006800
ENDCHAR
STARTCHAR uni2543
ENCODING 9539
SWIDTH 600 0
DWIDTH 10 0
BBX 12 23 -1 -7
BITMAP
007C00
007C00
007C00
007C00
007C00
007C00
007C00
007C00
007C00
007C00
BFFC00
BFFFFD
BFFC00
002400
002400
002400
002400
002400
002400
002400
002400
002400
002400
ENDCHAR
STARTCHAR uni2544
ENCODING 9540
SWIDTH 600 0
DWIDTH 10 0
BBX 12 23 -1 -7
BITMAP
007C00
007C00
007C00
007C00
007C00
007C00
007C00
007C00
007C00
007C00
007FFD
BFFFFD
007FFD
002400
002400
002400
002400
002400
002400
002400
002400
002400
002400
ENDCHAR
STARTCHAR uni2545
ENCODING 9541
SWIDTH 600 0
DWIDTH 10 0
BBX 12 23 -1 -7
BITMAP
002400
002400
002400
002400
002400
002400
002400
002400
002400
002400
BFFC00
BFFFFD
BFFC00
007C00
007C00
007C00
007C00
007C00
007C00
007C00
007C00
007C00
007C00
ENDCHAR
STARTCHAR uni2546
ENCODING 9542
SWIDTH 600 0
DWIDTH 10 0
BBX 12 23 -1 -7
BITMAP
002400
002400
002400
002400
002400
002400
002400
002400
002400
002400
007FFD
BFFFFD
007FFD
007C00
007C00
007C00
007C00
007C00
007C00
007C00
007C00
007C00
007C00
ENDCHAR
STARTCHAR uni2547
ENCODING 9543
SWIDTH 600 0
DWIDTH 10 0
BBX 12 23 -1 -7
BITMAP
007C00
007C00
007C00
007C00
007C00
007C00
007C00
007C00
007C00
007C00
BFFFFD
BFFFFD
BFFFFD
002400
002400
002400
002400
002400
002400
002400
002400
002400
002400
ENDCHAR
STARTCHAR uni2548
ENCODING 9544
SWIDTH 600 0
DWIDTH 10 0
BBX 12 23 -1 -7
BITMAP
002400
002400
002400
002400
002400
002400
002400
002400
002400
002400
BFFFFD
BFFFFD
BFFFFD
007C00
007C00
007C00
007C00
007C00
007C00
007C00
007C00
007C00
007C00
ENDCHAR
STARTCHAR uni2549
ENCODING 9545
SWIDTH 600 0
DWIDTH 10 0
BBX 12 23 -1 -7
BITMAP
007C00
007C00
007C00
007C00
007C00
007C00
007C00
007C00
007C00
007C00
BFFC00
BFFFFD
BFFC00
007C00
007C00
007C00
007C00
007C00
007C00
007C00
007C00
007C00
007C00
ENDCHAR
STARTCHAR uni254A
ENCODING 9546
SWIDTH 600 0
DWIDTH 10 0
BBX 12 23 -1 -7
BITMAP
007C00
007C00
007C00
007C00
007C00
007C00
007C00
007C00
007C00
007C00
007FFD
BFFFFD
007FFD
007C00
007C00
007C00
007C00
007C00
007C00
007C00
007C00
007C00
007C00
ENDCHAR
STARTCHAR uni254B
ENCODING 9547
SWIDTH 600 0
DWIDTH 10 0
BBX 12 23 -1 -7
BITMAP
007C00
007C00
007C00
007C00
007C00
007C00
007C00
007C00
007C00
007C00
BFFFFD
BFFFFD
BFFFFD
007C00
007C00
007C00
007C00
007C00
007C00
007C00
007C00
007C00
007C00
ENDCHAR
STARTCHAR uni254C
ENCODING 9548
SWIDTH 600 0
DWIDTH 10 0
BBX 8 1 1 4
BITMAP
B83D
ENDCHAR
STARTCHAR uni254D
ENCODING 9549
SWIDTH 600 0
DWIDTH 10 0
BBX 8 3 1 3
BITMAP
B83D
B83D
B83D
ENDCHAR
STARTCHAR uni254E
ENCODING 9550
SWIDTH 600 0
DWIDTH 10 0
BBX 2 14 4 -2
BITMAP
90
90
90
90
90
00
00
00
00
90
90
90
90
90
ENDCHAR
STARTCHAR uni254F
ENCODING 9551
SWIDTH 600 0
DWIDTH 10 0
BBX 3 15 3 -3
BITMAP
7C
7C
7C
7C
7C
00
00
00
00
54
7C
7C
7C
7C
54
ENDCHAR
STARTCHAR uni2550
ENCODING 9552
SWIDTH 600 0
DWIDTH 10 0
BBX 12 4 -1 3
BITMAP
BFFFFD
000000
000000
BFFFFD
ENDCHAR
STARTCHAR uni2551
ENCODING 9553
SWIDTH 600 0
DWIDTH 10 0
BBX 4 22 3 -6
BITMAP
DA
DA
DA
DA
DA
DA
DA
DA
DA
DA
DA
DA
DA
DA
DA
DA
DA
DA
DA
DA
DA
DA
ENDCHAR
STARTCHAR uni2552
ENCODING 9554
SWIDTH 600 0
DWIDTH 10 0
BBX 7 14 4 -7
BITMAP
BFF4
9000
9000
BFF4
9000
9000
9000
9000
9000
9000
9000
9000
9000
4000
ENDCHAR
STARTCHAR uni2553
ENCODING 9555
SWIDTH 600 0
DWIDTH 10 0
BBX 8 12 3 -7
BITMAP
FFFD
DA00
DA00
DA00
DA00
DA00
DA00
DA00
DA00
DA00
DA00
8500
ENDCHAR
STARTCHAR uni2554
ENCODING 9556
SWIDTH 600 0
DWIDTH 10 0
BBX 8 14 3 -7
BITMAP
FFFD
D000
D000
DBFD
DA00
DA00
DA00
DA00
DA00
DA00
DA00
DA00
8A00
0500
ENDCHAR
STARTCHAR uni2555
ENCODING 9557
SWIDTH 600 0
DWIDTH 10 0
BBX 7 14 -1 -7
BITMAP
BFF4
0024
0024
BFF4
0024
0024
0024
0024
0024
0024
0024
0024
0024
0010
ENDCHAR
STARTCHAR uni2556
ENCODING 9558
SWIDTH 600 0
DWIDTH 10 0
BBX 8 12 -1 -7
BITMAP
BFFE
00DA
00DA
00DA
00DA
00DA
00DA
00DA
00DA
00DA
00DA
0085
ENDCHAR
STARTCHAR uni2557
ENCODING 9559
SWIDTH 600 0
DWIDTH 10 0
BBX 8 14 -1 -7
BITMAP
BFFE
000A
000A
BFDA
00DA
00DA
00DA
00DA
00DA
00DA
00DA
00DA
00D6
0040
ENDCHAR
STARTCHAR uni2558
ENCODING 9560
SWIDTH 600 0
DWIDTH 10 0
BBX 7 14 4 3
BITMAP
4000
9000
9000
9000
9000
9000
9000
9000
9000
9000
BFF4
9000
9000
BFF4
ENDCHAR
STARTCHAR uni2559
ENCODING 9561
SWIDTH 600 0
DWIDTH 10 0
BBX 8 12 3 4
BITMAP
8500
DA00
DA00
DA00
DA00
DA00
DA00
DA00
DA00
DA00
DA00
FFFD
ENDCHAR
STARTCHAR uni255A
ENCODING 9562
SWIDTH 600 0
DWIDTH 10 0
BBX 8 14 3 3
BITMAP
0500
8A00
DA00
DA00
DA00
DA00
DA00
DA00
DA00
DA00
DBFD
D000
D000
FFFD
ENDCHAR
STARTCHAR uni255B
ENCODING 9563
SWIDTH 600 0
DWIDTH 10 0
BBX 7 14 -1 3
BITMAP
0010
0024
0024
0024
0024
0024
0024
0024
0024
0024
BFF4
0024
0024
BFF4
ENDCHAR
STARTCHAR uni255C
ENCODING 9564
SWIDTH 600 0
DWIDTH 10 0
BBX 8 12 -1 4
BITMAP
0085
00DA
00DA
00DA
00DA
00DA
00DA
00DA
00DA
00DA
00DA
BFFE
ENDCHAR
STARTCHAR uni255D
ENCODING 9565
SWIDTH 600 0
DWIDTH 10 0
BBX 8 14 -1 3
BITMAP
0040
00D6
00DA
00DA
00DA
00DA
00DA
00DA
00DA
00DA
BFDA
000A
000A
BFFE
ENDCHAR
STARTCHAR uni255E
ENCODING 9566
SWIDTH 600 0
DWIDTH 10 0
BBX 7 24 4 -7
BITMAP
4000
9000
9000
9000
9000
9000
9000
9000
9000
9000
BFF4
9000
9000
BFF4
9000
9000
9000
9000
9000
9000
9000
9000
9000
4000
ENDCHAR
STARTCHAR uni255F
ENCODING 9567
SWIDTH 600 0
DWIDTH 10 0
BBX 8 23 3 -7
BITMAP
D500
DA00
DA00
DA00
DA00
DA00
DA00
DA00
DA00
DA00
DA00
DBFD
DA00
DA00
DA00
DA00
DA00
DA00
DA00
DA00
DA00
DA00
4500
ENDCHAR
STARTCHAR uni2560
ENCODING 9568
SWIDTH 600 0
DWIDTH 10 0
BBX 8 24 3 -7
BITMAP
0500
DA00
DA00
DA00
DA00
DA00
DA00
DA00
DA00
DA00
DBFD
D000
D000
DBFD
DA00
DA00
DA00
DA00
DA00
DA00
DA00
DA00
DA00
4500
ENDCHAR
STARTCHAR uni2561
ENCODING 9569
SWIDTH 600 0
DWIDTH 10 0
BBX 7 24 -1 -7
BITMAP
0010
0024
0024
0024
0024
0024
0024
0024
0024
0024
BFF4
0024
0024
BFF4
0024
0024
0024
0024
0024
0024
0024
0024
0024
0010
ENDCHAR
STARTCHAR uni2562
ENCODING 9570
SWIDTH 600 0
DWIDTH 10 0
BBX 8 23 -1 -7
BITMAP
008A
00DA
00DA
00DA
00DA
00DA
00DA
00DA
00DA
00DA
00DA
BFDA
00DA
00DA
00DA
00DA
00DA
00DA
00DA
00DA
00DA
00DA
0085
ENDCHAR
STARTCHAR uni2563
ENCODING 9571
SWIDTH 600 0
DWIDTH 10 0
BBX 8 24 -1 -7
BITMAP
0040
00DA
00DA
00DA
00DA
00DA
00DA
00DA
00DA
00DA
BFDA
000A
000A
BFDA
00DA
00DA
00DA
00DA
00DA
00DA
00DA
00DA
00DA
0045
ENDCHAR
STARTCHAR uni2564
ENCODING 9572
SWIDTH 600 0
DWIDTH 10 0
BBX 12 14 -1 -7
BITMAP
BFFFFD
000000
000000
BFFFFD
002400
002400
002400
002400
002400
002400
002400
002400
002400
001000
ENDCHAR
STARTCHAR uni2565
ENCODING 9573
SWIDTH 600 0
DWIDTH 10 0
BBX 12 12 -1 -7
BITMAP
BFFFFD
00DA00
00DA00
00DA00
00DA00
00DA00
00DA00
00DA00
00DA00
00DA00
00DA00
008500
ENDCHAR
STARTCHAR uni2566
ENCODING 9574
SWIDTH 600 0
DWIDTH 10 0
BBX 12 14 -1 -7
BITMAP
BFFFFD
000000
000000
BFDBFD
00DA00
00DA00
00DA00
00DA00
00DA00
00DA00
00DA00
00DA00
00DA00
004500
ENDCHAR
STARTCHAR uni2567
ENCODING 9575
SWIDTH 600 0
DWIDTH 10 0
BBX 12 14 -1 3
BITMAP
001000
002400
002400
002400
002400
002400
002400
002400
002400
002400
BFFFFD
000000
000000
BFFFFD
ENDCHAR
STARTCHAR uni2568
ENCODING 9576
SWIDTH 600 0
DWIDTH 10 0
BBX 12 12 -1 4
BITMAP
008500
00DA00
00DA00
00DA00
00DA00
00DA00
00DA00
00DA00
00DA00
00DA00
00DA00
BFFFFD
ENDCHAR
STARTCHAR uni2569
ENCODING 9577
SWIDTH 600 0
DWIDTH 10 0
BBX 12 14 -1 3
BITMAP
004500
00DA00
00DA00
00DA00
00DA00
00DA00
00DA00
00DA00
00DA00
00DA00
BFDBFD
000000
000000
BFFFFD
ENDCHAR
STARTCHAR uni256A
ENCODING 9578
SWIDTH 600 0
DWIDTH 10 0
BBX 12 24 -1 -7
BITMAP
001000
002400
002400
002400
002400
002400
002400
002400
002400
002400
BFFFFD
002400
002400
BFFFFD
002400
002400
002400
002400
002400
002400
002400
002400
002400
001000
ENDCHAR
STARTCHAR uni256B
ENCODING 9579
SWIDTH 600 0
DWIDTH 10 0
BBX 12 23 -1 -7
BITMAP
008500
00DA00
00DA00
00DA00
00DA00
00DA00
00DA00
00DA00
00DA00
00DA00
00DA00
BFFFFD
00DA00
00DA00
00DA00
00DA00
00DA00
00DA00
00DA00
00DA00
00DA00
00DA00
008500
ENDCHAR
STARTCHAR uni256C
ENCODING 9580
SWIDTH 600 0
DWIDTH 10 0
BBX 12 24 -1 -7
BITMAP
004500
00DA00
00DA00
00DA00
00DA00
00DA00
00DA00
00DA00
00DA00
00DA00
BFDBFD
000000
000000
BFDBFD
00DA00
00DA00
00DA00
00DA00
00DA00
00DA00
00DA00
00DA00
00DA00
004500
ENDCHAR
STARTCHAR uni256D
ENCODING 9581
SWIDTH 600 0
DWIDTH 10 0
BBX 7 12 4 -7
BITMAP
06F4
1E40
3400
A000
9000
9000
9000
9000
9000
9000
9000
5000
ENDCHAR
STARTCHAR uni256E
ENCODING 9582
SWIDTH 600 0
DWIDTH 10 0
BBX 7 12 -1 -7
BITMAP
B900
07C0
00A0
0070
0034
0024
0024
0024
0024
0024
0024
0014
ENDCHAR
STARTCHAR uni256F
ENCODING 9583
SWIDTH 600 0
DWIDTH 10 0
BBX 7 12 -1 4
BITMAP
0014
0024
0024
0024
0024
0024
0024
0034
0070
00A0
07C0
B900
ENDCHAR
STARTCHAR uni2570
ENCODING 9584
SWIDTH 600 0
DWIDTH 10 0
BBX 7 12 4 4
BITMAP
5000
9000
9000
9000
9000
9000
9000
9000
A000
3400
1E00
06F4
ENDCHAR
STARTCHAR uni2571
ENCODING 9585
SWIDTH 600 0
DWIDTH 10 0
BBX 10 19 0 -5
BITMAP
000060
0000D0
0001C0
000380
000700
000E00
001C00
003400
007000
00D000
01C000
034000
070000
0D0000
1C0000
340000
700000
D00000
C00000
ENDCHAR
STARTCHAR uni2572
ENCODING 9586
SWIDTH 600 0
DWIDTH 10 0
BBX 10 19 0 -5
BITMAP
C00000
D00000
700000
340000
1C0000
0D0000
070000
034000
01C000
00D000
007000
003400
001C00
000E00
000700
000380
0001C0
0000D0
000060
ENDCHAR
STARTCHAR uni2573
ENCODING 9587
SWIDTH 600 0
DWIDTH 10 0
BBX 10 19 0 -5
BITMAP
C00060
D000D0
7001C0
340380
1C0700
0D0E00
071C00
037400
01F000
00E000
01F000
037400
071C00
0D0E00
1C0700
340380
7001C0
D000D0
C00060
ENDCHAR
STARTCHAR uni2574
ENCODING 9588
SWIDTH 600 0
DWIDTH 10 0
BBX 7 1 -1 4
BITMAP
BFF4
ENDCHAR
STARTCHAR uni2575
ENCODING 9589
SWIDTH 600 0
DWIDTH 10 0
BBX 2 12 4 4
BITMAP
90
90
90
90
90
90
90
90
90
90
90
90
ENDCHAR
STARTCHAR uni2576
ENCODING 9590
SWIDTH 600 0
DWIDTH 10 0
BBX 7 1 4 4
BITMAP
BFF4
ENDCHAR
STARTCHAR uni2577
ENCODING 9591
SWIDTH 600 0
DWIDTH 10 0
BBX 2 12 4 -6
BITMAP
90
90
90
90
90
90
90
90
90
90
90
90
ENDCHAR
STARTCHAR uni2578
ENCODING 9592
SWIDTH 600 0
DWIDTH 10 0
BBX 7 3 -1 3
BITMAP
BFF4
BFF4
BFF4
ENDCHAR
STARTCHAR uni2579
ENCODING 9593
SWIDTH 600 0
DWIDTH 10 0
BBX 3 12 3 4
BITMAP
7C
7C
7C
7C
7C
7C
7C
7C
7C
7C
7C
7C
ENDCHAR
STARTCHAR uni257A
ENCODING 9594
SWIDTH 600 0
DWIDTH 10 0
BBX 7 3 4 3
BITMAP
BFF4
BFF4
BFF4
ENDCHAR
STARTCHAR uni257B
ENCODING 9595
SWIDTH 600 0
DWIDTH 10 0
BBX 3 12 3 -6
BITMAP
7C
7C
7C
7C
7C
7C
7C
7C
7C
7C
7C
7C
ENDCHAR
STARTCHAR uni257C
ENCODING 9596
SWIDTH 600 0
DWIDTH 10 0
BBX 12 3 -1 3
BITMAP
002AA8
BFFFFD
002AA8
ENDCHAR
STARTCHAR uni257D
ENCODING 9597
SWIDTH 600 0
DWIDTH 10 0
BBX 3 22 3 -6
BITMAP
24
24
24
24
24
24
24
24
24
24
78
7C
7C
7C
7C
7C
7C
7C
7C
7C
7C
7C
ENDCHAR
STARTCHAR uni257E
ENCODING 9598
SWIDTH 600 0
DWIDTH 10 0
BBX 12 3 -1 3
BITMAP
6AA400
BFFFFD
6AA400
ENDCHAR
STARTCHAR uni257F
ENCODING 9599
SWIDTH 600 0
DWIDTH 10 0
BBX 3 22 3 -6
BITMAP
7C
7C
7C
7C
7C
7C
7C
7C
7C
7C
7C
78
24
24
24
24
24
24
24
24
24
24
ENDCHAR
STARTCHAR uni2580
ENCODING 9600
SWIDTH 600 0
DWIDTH 10 0
BBX 10 11 0 5
BITMAP
FFFFE0
FFFFE0
FFFFE0
FFFFE0
FFFFE0
FFFFE0
FFFFE0
FFFFE0
FFFFE0
FFFFE0
FFFFE0
ENDCHAR
STARTCHAR uni2581
ENCODING 9601
SWIDTH 600 0
DWIDTH 10 0
BBX 10 2 0 -6
BITMAP
FFFFE0
FFFFE0
ENDCHAR
STARTCHAR uni2582
ENCODING 9602
SWIDTH 600 0
DWIDTH 10 0
BBX 10 5 0 -6
BITMAP
FFFFE0
FFFFE0
FFFFE0
FFFFE0
FFFFE0
ENDCHAR
STARTCHAR uni2583
ENCODING 9603
SWIDTH 600 0
DWIDTH 10 0
BBX 10 8 0 -6
BITMAP
FFFFE0
FFFFE0
FFFFE0
FFFFE0
FFFFE0
FFFFE0
FFFFE0
FFFFE0
ENDCHAR
STARTCHAR uni2584
ENCODING 9604
SWIDTH 600 0
DWIDTH 10 0
BBX 10 11 0 -6
BITMAP
FFFFE0
FFFFE0
FFFFE0
FFFFE0
FFFFE0
FFFFE0
FFFFE0
FFFFE0
FFFFE0
FFFFE0
FFFFE0
ENDCHAR
STARTCHAR uni2585
ENCODING 9605
SWIDTH 600 0
DWIDTH 10 0
BBX 10 14 0 -6
BITMAP
FFFFE0
FFFFE0
FFFFE0
FFFFE0
FFFFE0
FFFFE0
FFFFE0
FFFFE0
FFFFE0
FFFFE0
FFFFE0
FFFFE0
FFFFE0
FFFFE0
ENDCHAR
STARTCHAR uni2586
ENCODING 9606
SWIDTH 600 0
DWIDTH 10 0
BBX 10 16 0 -6
BITMAP
FFFFE0
FFFFE0
FFFFE0
FFFFE0
FFFFE0
FFFFE0
FFFFE0
FFFFE0
FFFFE0
FFFFE0
FFFFE0
FFFFE0
FFFFE0
FFFFE0
FFFFE0
FFFFE0
ENDCHAR
STARTCHAR uni2587
ENCODING 9607
SWIDTH 600 0
DWIDTH 10 0
BBX 10 19 0 -6
BITMAP
FFFFE0
FFFFE0
FFFFE0
FFFFE0
FFFFE0
FFFFE0
FFFFE0
FFFFE0
FFFFE0
FFFFE0
FFFFE0
FFFFE0
FFFFE0
FFFFE0
FFFFE0
FFFFE0
FFFFE0
FFFFE0
FFFFE0
ENDCHAR
STARTCHAR uni2588
ENCODING 9608
SWIDTH 600 0
DWIDTH 10 0
BBX 10 22 0 -6
BITMAP
FFFFE0
FFFFE0
FFFFE0
FFFFE0
FFFFE0
FFFFE0
FFFFE0
FFFFE0
FFFFE0
FFFFE0
FFFFE0
FFFFE0
FFFFE0
FFFFE0
FFFFE0
FFFFE0
FFFFE0
FFFFE0
FFFFE0
FFFFE0
FFFFE0
FFFFE0
ENDCHAR
STARTCHAR uni2589
ENCODING 9609
SWIDTH 600 0
DWIDTH 10 0
BBX 9 22 0 -6
BITMAP
FFFF40
FFFF40
FFFF40
FFFF40
FFFF40
FFFF40
FFFF40
FFFF40
FFFF40
FFFF40
FFFF40
FFFF40
FFFF40
FFFF40
FFFF40
FFFF40
FFFF40
FFFF40
FFFF40
FFFF40
FFFF40
FFFF40
ENDCHAR
STARTCHAR uni258A
ENCODING 9610
SWIDTH 600 0
DWIDTH 10 0
BBX 8 22 0 -6
BITMAP
FFFD
FFFD
FFFD
FFFD
FFFD
FFFD
FFFD
FFFD
FFFD
FFFD
FFFD
FFFD
FFFD
FFFD
FFFD
FFFD
FFFD
FFFD
FFFD
FFFD
FFFD
FFFD
ENDCHAR
STARTCHAR uni258B
ENCODING 9611
SWIDTH 600 0
DWIDTH 10 0
BBX 6 22 0 -6
BITMAP
FFF0
FFF0
FFF0
FFF0
FFF0
FFF0
FFF0
FFF0
FFF0
FFF0
FFF0
FFF0
FFF0
FFF0
FFF0
FFF0
FFF0
FFF0
FFF0
FFF0
FFF0
FFF0
ENDCHAR
STARTCHAR uni258C
ENCODING 9612
SWIDTH 600 0
DWIDTH 10 0
BBX 5 22 0 -6
BITMAP
FF80
FF80
FF80
FF80
FF80
FF80
FF80
FF80
FF80
FF80
FF80
FF80
FF80
FF80
FF80
FF80
FF80
FF80
FF80
FF80
FF80
FF80
ENDCHAR
STARTCHAR uni258D
ENCODING 9613
SWIDTH 600 0
DWIDTH 10 0
BBX 4 22 0 -6
BITMAP
FE
FE
FE
FE
FE
FE
FE
FE
FE
FE
FE
FE
FE
FE
FE
FE
FE
FE
FE
FE
FE
FE
ENDCHAR
STARTCHAR uni258E
ENCODING 9614
SWIDTH 600 0
DWIDTH 10 0
BBX 3 22 0 -6
BITMAP
F4
F4
F4
F4
F4
F4
F4
F4
F4
F4
F4
F4
F4
F4
F4
F4
F4
F4
F4
F4
F4
F4
ENDCHAR
STARTCHAR uni258F
ENCODING 9615
SWIDTH 600 0
DWIDTH 10 0
BBX 2 22 0 -6
BITMAP
D0
D0
D0
D0
D0
D0
D0
D0
D0
D0
D0
D0
D0
D0
D0
D0
D0
D0
D0
D0
D0
D0
ENDCHAR
STARTCHAR uni2590
ENCODING 9616
SWIDTH 600 0
DWIDTH 10 0
BBX 6 22 4 -6
BITMAP
7FE0
7FE0
7FE0
7FE0
7FE0
7FE0
7FE0
7FE0
7FE0
7FE0
7FE0
7FE0
7FE0
7FE0
7FE0
7FE0
7FE0
7FE0
7FE0
7FE0
7FE0
7FE0
ENDCHAR
STARTCHAR uni2591
ENCODING 9617
SWIDTH 600 0
DWIDTH 10 0
BBX 10 22 -1 -7
BITMAP
082450
000000
504100
081450
041000
504100
041050
041050
504100
041000
081450
504100
000000
082450
004100
004100
082450
000000
504100
081450
041000
504100
ENDCHAR
STARTCHAR uni2592
ENCODING 9618
SWIDTH 600 0
DWIDTH 10 0
BBX 10 22 -1 -7
BITMAP
0D24A0
196550
514200
0D34A0
081450
518200
0924A0
0924A0
518200
081450
0D34A0
514200
045150
0D38A0
504100
504100
0D38A0
045150
514200
0D34A0
081450
518200
ENDCHAR
STARTCHAR uni2593
ENCODING 9619
SWIDTH 600 0
DWIDTH 10 0
BBX 11 23 -1 -7
BITMAP
1E78F0
2E7DF4
59A650
A6DB50
2E7DF4
6EBDF0
A6D750
2E7DF0
2E7DF0
A6D750
6EBDF0
2E7DF4
A6DB50
6EAAA0
2F7DF4
AAAAA0
AAAAA0
2F7DF4
6EAAA0
A6DB50
2E7DF4
7FBEF0
A18700
ENDCHAR
STARTCHAR uni2594
ENCODING 9620
SWIDTH 600 0
DWIDTH 10 0
BBX 10 3 0 13
BITMAP
FFFFE0
FFFFE0
FFFFE0
ENDCHAR
STARTCHAR uni2595
ENCODING 9621
SWIDTH 600 0
DWIDTH 10 0
BBX 2 22 8 -6
BITMAP
A0
A0
A0
A0
A0
A0
A0
A0
A0
A0
A0
A0
A0
A0
A0
A0
A0
A0
A0
A0
A0
A0
ENDCHAR
STARTCHAR uni2596
ENCODING 9622
SWIDTH 600 0
DWIDTH 10 0
BBX 5 11 0 -6
BITMAP
FF80
FF80
FF80
FF80
FF80
FF80
FF80
FF80
FF80
FF80
FF80
ENDCHAR
STARTCHAR uni2597
ENCODING 9623
SWIDTH 600 0
DWIDTH 10 0
BBX 6 11 4 -6
BITMAP
7FE0
7FE0
7FE0
7FE0
7FE0
7FE0
7FE0
7FE0
7FE0
7FE0
7FE0
ENDCHAR
STARTCHAR uni2598
ENCODING 9624
SWIDTH 600 0
DWIDTH 10 0
BBX 5 11 0 5
BITMAP
FF80
FF80
FF80
FF80
FF80
FF80
FF80
FF80
FF80
FF80
FF80
ENDCHAR
STARTCHAR uni2599
ENCODING 9625
SWIDTH 600 0
DWIDTH 10 0
BBX 10 22 0 -6
BITMAP
FF8000
FF8000
FF8000
FF8000
FF8000
FF8000
FF8000
FF8000
FF8000
FF8000
FF8000
FFFFE0
FFFFE0
FFFFE0
FFFFE0
FFFFE0
FFFFE0
FFFFE0
FFFFE0
FFFFE0
FFFFE0
FFFFE0
ENDCHAR
STARTCHAR uni259A
ENCODING 9626
SWIDTH 600 0
DWIDTH 10 0
BBX 10 22 0 -6
BITMAP
FF8000
FF8000
FF8000
FF8000
FF8000
FF8000
FF8000
FF8000
FF8000
FF8000
FF8000
007FE0
007FE0
007FE0
007FE0
007FE0
007FE0
007FE0
007FE0
007FE0
007FE0
007FE0
ENDCHAR
STARTCHAR uni259B
ENCODING 9627
SWIDTH 600 0
DWIDTH 10 0
BBX 10 22 0 -6
BITMAP
FFFFE0
FFFFE0
FFFFE0
FFFFE0
FFFFE0
FFFFE0
FFFFE0
FFFFE0
FFFFE0
FFFFE0
FFFFE0
FF8000
FF8000
FF8000
FF8000
FF8000
FF8000
FF8000
FF8000
FF8000
FF8000
FF8000
ENDCHAR
STARTCHAR uni259C
ENCODING 9628
SWIDTH 600 0
DWIDTH 10 0
BBX 10 22 0 -6
BITMAP
FFFFE0
FFFFE0
FFFFE0
FFFFE0
FFFFE0
FFFFE0
FFFFE0
FFFFE0
FFFFE0
FFFFE0
FFFFE0
007FE0
007FE0
007FE0
007FE0
007FE0
007FE0
007FE0
007FE0
007FE0
007FE0
007FE0
ENDCHAR
STARTCHAR uni259D
ENCODING 9629
SWIDTH 600 0
DWIDTH 10 0
BBX 6 11 4 5
BITMAP
7FE0
7FE0
7FE0
7FE0
7FE0
7FE0
7FE0
7FE0
7FE0
7FE0
7FE0
ENDCHAR
STARTCHAR uni259E
ENCODING 9630
SWIDTH 600 0
DWIDTH 10 0
BBX 10 22 0 -6
BITMAP
007FE0
007FE0
007FE0
007FE0
007FE0
007FE0
007FE0
007FE0
007FE0
007FE0
007FE0
FF8000
FF8000
FF8000
FF8000
FF8000
FF8000
FF8000
FF8000
FF8000
FF8000
FF8000
ENDCHAR
STARTCHAR uni259F
ENCODING 9631
SWIDTH 600 0
DWIDTH 10 0
BBX 10 22 0 -6
BITMAP
007FE0
007FE0
007FE0
007FE0
007FE0
007FE0
007FE0
007FE0
007FE0
007FE0
007FE0
FFFFE0
FFFFE0
FFFFE0
FFFFE0
FFFFE0
FFFFE0
FFFFE0
FFFFE0
FFFFE0
FFFFE0
FFFFE0
ENDCHAR
STARTCHAR uni25A0
ENCODING 9632
SWIDTH 600 0
DWIDTH 10 0
BBX 8 7 1 2
BITMAP
BFFD
BFFD
BFFD
BFFD
BFFD
BFFD
BFFD
ENDCHAR
STARTCHAR uni25A1
ENCODING 9633
SWIDTH 600 0
DWIDTH 10 0
BBX 8 7 1 2
BITMAP
BFFD
8005
8005
8005
8005
8005
BFFD
ENDCHAR
STARTCHAR uni25AA
ENCODING 9642
SWIDTH 600 0
DWIDTH 10 0
BBX 5 4 2 2
BITMAP
7FC0
7FC0
7FC0
7FC0
ENDCHAR
STARTCHAR uni25AB
ENCODING 9643
SWIDTH 600 0
DWIDTH 10 0
BBX 5 5 2 2
BITMAP
BFC0
9080
9080
9080
BFC0
ENDCHAR
STARTCHAR filledrect
ENCODING 9644
SWIDTH 600 0
DWIDTH 10 0
BBX 10 1 0 4
BITMAP
FFFFE0
ENDCHAR
STARTCHAR triagup
ENCODING 9650
SWIDTH 600 0
DWIDTH 10 0
BBX 8 8 1 2
BITMAP
0100
0380
07C0
0FD0
1FF0
3FF4
7FFC
BFFD
ENDCHAR
STARTCHAR uni25B3
ENCODING 9651
SWIDTH 600 0
DWIDTH 10 0
BBX 8 8 1 2
BITMAP
0100
0240
0580
0850
1420
2014
5008
BFFD
ENDCHAR
STARTCHAR uni25B4
ENCODING 9652
SWIDTH 600 0
DWIDTH 10 0
BBX 5 5 2 2
BITMAP
0400
0E00
2F00
3F80
BFC0
ENDCHAR
STARTCHAR uni25B5
ENCODING 9653
SWIDTH 600 0
DWIDTH 10 0
BBX 6 5 2 2
BITMAP
0900
1600
2140
5080
BFD0
ENDCHAR
STARTCHAR uni25B6
ENCODING 9654
SWIDTH 600 0
DWIDTH 10 0
BBX 8 8 1 1
BITMAP
9000
F900
FFD0
FFFD
FFF8
FF40
F400
4000
ENDCHAR
STARTCHAR uni25B7
ENCODING 9655
SWIDTH 600 0
DWIDTH 10 0
BBX 8 8 1 1
BITMAP
9000
9500
8050
8019
81B8
9B40
F400
4000
ENDCHAR
STARTCHAR uni25B8
ENCODING 9656
SWIDTH 600 0
DWIDTH 10 0
BBX 5 5 2 2
BITMAP
6000
7E00
7FC0
7E00
6000
ENDCHAR
STARTCHAR uni25B9
ENCODING 9657
SWIDTH 600 0
DWIDTH 10 0
BBX 5 6 2 1
BITMAP
5000
A900
8180
8180
A900
5000
ENDCHAR
STARTCHAR triagrt
ENCODING 9658
SWIDTH 600 0
DWIDTH 10 0
BBX 10 8 0 1
BITMAP
A40000
BE4000
BFF900
BFFF90
BFFE40
BFE400
B90000
400000
ENDCHAR
STARTCHAR triagdn
ENCODING 9660
SWIDTH 600 0
DWIDTH 10 0
BBX 8 8 1 1
BITMAP
BFFD
7FFC
2FF4
1FF0
0FD0
07C0
0340
0100
ENDCHAR
STARTCHAR uni25BD
ENCODING 9661
SWIDTH 600 0
DWIDTH 10 0
BBX 8 8 1 1
BITMAP
BFFD
5008
2014
1420
0850
0580
0240
0100
ENDCHAR
STARTCHAR uni25BE
ENCODING 9662
SWIDTH 600 0
DWIDTH 10 0
BBX 5 5 2 1
BITMAP
BFC0
3F80
2F00
0E00
0400
ENDCHAR
STARTCHAR uni25BF
ENCODING 9663
SWIDTH 600 0
DWIDTH 10 0
BBX 6 5 2 2
BITMAP
BFD0
5080
2140
1600
0900
ENDCHAR
STARTCHAR uni25C0
ENCODING 9664
SWIDTH 600 0
DWIDTH 10 0
BBX 8 8 1 1
BITMAP
0006
00BE
0BFE
BFFE
6FFE
06FE
002E
0001
ENDCHAR
STARTCHAR uni25C1
ENCODING 9665
SWIDTH 600 0
DWIDTH 10 0
BBX 8 8 1 1
BITMAP
0006
0052
0502
A002
6D02
06E6
002E
0001
ENDCHAR
STARTCHAR uni25C2
ENCODING 9666
SWIDTH 600 0
DWIDTH 10 0
BBX 5 5 2 2
BITMAP
0180
1BC0
7FC0
1BC0
0180
ENDCHAR
STARTCHAR uni25C3
ENCODING 9667
SWIDTH 600 0
DWIDTH 10 0
BBX 5 6 2 1
BITMAP
0080
0A80
6480
6480
0A80
0080
ENDCHAR
STARTCHAR triaglf
ENCODING 9668
SWIDTH 600 0
DWIDTH 10 0
BBX 10 8 0 1
BITMAP
000190
002FD0
06FFD0
BFFFD0
6FFFD0
01BFD0
000BD0
000040
ENDCHAR
STARTCHAR uni25C6
ENCODING 9670
SWIDTH 600 0
DWIDTH 10 0
BBX 9 9 0 1
BITMAP
009000
02F400
0BFD00
2FFF40
7FFFC0
2FFF40
0BFD00
02F400
009000
ENDCHAR
STARTCHAR uni25C9
ENCODING 9673
SWIDTH 600 0
DWIDTH 10 0
BBX 9 9 0 1
BITMAP
06F800
1D0A00
26E640
27FC80
67FC80
23F880
25A240
1D0A00
06F800
ENDCHAR
STARTCHAR lozenge
ENCODING 9674
SWIDTH 600 0
DWIDTH 10 0
BBX 7 10 1 0
BITMAP
0380
0AD0
0C60
2434
7018
7018
2434
0C60
0AD0
0380
ENDCHAR
STARTCHAR uni25CB
ENCODING 9675
SWIDTH 600 0
DWIDTH 10 0
BBX 8 8 1 1
BITMAP
1BE0
3428
9009
C006
C006
9009
7428
1BE0
ENDCHAR
STARTCHAR uni25CC
ENCODING 9676
SWIDTH 600 0
DWIDTH 10 0
BBX 9 8 0 0
BITMAP
008000
090800
200200
000000
600140
200200
000000
099800
ENDCHAR
STARTCHAR uni25CF
ENCODING 9679
SWIDTH 600 0
DWIDTH 10 0
BBX 8 7 1 2
BITMAP
1BE0
3FF8
BFFD
BFFD
BFFD
3FF8
1BE0
ENDCHAR
STARTCHAR invbullet
ENCODING 9688
SWIDTH 600 0
DWIDTH 10 0
BBX 5 6 2 1
BITMAP
BFC0
9080
4000
4000
9080
BFC0
ENDCHAR
STARTCHAR invcircle
ENCODING 9689
SWIDTH 600 0
DWIDTH 10 0
BBX 8 7 1 2
BITMAP
E41D
8BD5
6FF5
3FF4
6FF5
9FF5
E65D
ENDCHAR
STARTCHAR uni25E6
ENCODING 9702
SWIDTH 600 0
DWIDTH 10 0
BBX 5 5 2 2
BITMAP
1F40
60C0
8080
9180
7E00
ENDCHAR
STARTCHAR uni2610
ENCODING 9744
SWIDTH 600 0
DWIDTH 10 0
BBX 11 11 -1 0
BITMAP
3FFFFC
50001C
50001C
50001C
50001C
50001C
50001C
50001C
50001C
50001C
7FFFF8
ENDCHAR
STARTCHAR uni2611
ENCODING 9745
SWIDTH 600 0
DWIDTH 10 0
BBX 12 12 -1 0
BITMAP
000002
000009
7FFFFC
50007C
5000DC
52025C
52461C
50C91C
50AC1C
50741C
50001C
7FFFF8
ENDCHAR
STARTCHAR uni2615
ENCODING 9749
SWIDTH 600 0
DWIDTH 10 0
BBX 12 10 -1 0
BITMAP
0AF900
390280
66F950
6D2A54
5BFD55
500055
20001C
2001E4
1D0700
06F800
ENDCHAR
STARTCHAR smileface
ENCODING 9786
SWIDTH 600 0
DWIDTH 10 0
BBX 10 10 0 0
BITMAP
06F800
290740
631D80
900090
800050
800050
990890
62F580
290740
06F800
ENDCHAR
STARTCHAR invsmileface
ENCODING 9787
SWIDTH 600 0
DWIDTH 10 0
BBX 9 9 0 1
BITMAP
06F800
1FFF00
3CE780
79A7C0
7CE7C0
7FFFC0
36F680
1D0B00
06F800
ENDCHAR
STARTCHAR sun
ENCODING 9788
SWIDTH 600 0
DWIDTH 10 0
BBX 10 10 0 0
BITMAP
109000
24A240
0FFE00
0D0A00
F803E0
180200
0D0900
2AFB40
209140
009000
ENDCHAR
STARTCHAR female
ENCODING 9792
SWIDTH 600 0
DWIDTH 10 0
BBX 8 12 1 -1
BITMAP
1BE0
742C
D009
C006
9009
742C
1BE0
0240
0240
3FF8
0240
0240
ENDCHAR
STARTCHAR male
ENCODING 9794
SWIDTH 600 0
DWIDTH 10 0
BBX 10 11 0 0
BITMAP
001AA0
0001E0
000760
1BED20
746820
D00C00
C00900
C00900
D00C00
746800
1BD000
ENDCHAR
STARTCHAR spade
ENCODING 9824
SWIDTH 600 0
DWIDTH 10 0
BBX 10 11 0 0
BITMAP
009000
02F400
0BFD00
2FFF40
7FFFC0
BFFFD0
BFFFD0
7FAFC0
04E100
06F800
1FFF00
ENDCHAR
STARTCHAR club
ENCODING 9827
SWIDTH 600 0
DWIDTH 10 0
BBX 10 11 0 0
BITMAP
02F400
07FC00
07FC00
03F800
6FFF80
BFFFD0
BFFFD0
7FAFC0
04E100
06F800
1FFF00
ENDCHAR
STARTCHAR heart
ENCODING 9829
SWIDTH 600 0
DWIDTH 10 0
BBX 10 11 0 0
BITMAP
2E1F40
BFBFC0
BFFFD0
BFFFD0
BFFFD0
7FFFC0
3FFF40
1FFE00
07FC00
02F400
009000
ENDCHAR
STARTCHAR diamond
ENCODING 9830
SWIDTH 600 0
DWIDTH 10 0
BBX 10 11 0 0
BITMAP
009000
02F400
07FC00
1FFE00
3FFF80
BFFFD0
3FFF80
1FFE00
07FC00
02F400
009000
ENDCHAR
STARTCHAR musicalnote
ENCODING 9834
SWIDTH 600 0
DWIDTH 10 0
BBX 8 11 1 0
BITMAP
0180
01F4
019C
0189
0185
0184
0180
0180
2F80
BF40
7D00
ENDCHAR
STARTCHAR musicalnotedbl
ENCODING 9835
SWIDTH 600 0
DWIDTH 10 0
BBX 10 12 0 0
BITMAP
005AD0
02FFD0
02EA90
024050
024050
024050
024050
024050
024BD0
6F6FD0
BF1F40
BD0000
ENDCHAR
STARTCHAR uni2713
ENCODING 10003
SWIDTH 600 0
DWIDTH 10 0
BBX 10 11 0 0
BITMAP
000090
000280
000700
000D00
002400
003000
D09000
60C000
264000
1B0000
0E0000
ENDCHAR
STARTCHAR uni2752
ENCODING 10066
SWIDTH 600 0
DWIDTH 10 0
BBX 8 8 1 1
BITMAP
7FFD
8009
8009
8009
8009
8009
8009
BFFC
ENDCHAR
STARTCHAR uni2764
ENCODING 10084
SWIDTH 600 0
DWIDTH 10 0
BBX 12 10 -1 0
BITMAP
2F86F4
BFEFFD
FFFFFE
FFFFFE
FFFFFE
7FFFFC
2FFFF4
07FF80
00BD00
002400
ENDCHAR
STARTCHAR uni27E6
ENCODING 10214
SWIDTH 600 0
DWIDTH 10 0
BBX 8 14 1 -3
BITMAP
02BF
0290
05C0
0980
0980
0940
0A40
1700
2600
2600
2500
2800
6C00
BFD0
ENDCHAR
STARTCHAR uni27E7
ENCODING 10215
SWIDTH 600 0
DWIDTH 10 0
BBX 8 14 0 -3
BITMAP
03FB
0026
0026
0029
0058
005C
0098
0098
00A4
0160
0170
0260
02A0
BFD0
ENDCHAR
STARTCHAR uni2E18
ENCODING 11800
SWIDTH 600 0
DWIDTH 10 0
BBX 6 11 1 -3
BITMAP
00E0
01E0
0000
0000
0180
0740
1A40
7240
A300
A060
2F80
ENDCHAR
STARTCHAR uni2E22
ENCODING 11810
SWIDTH 600 0
DWIDTH 10 0
BBX 6 7 3 4
BITMAP
1FF0
1400
2400
3000
3000
6000
6000
ENDCHAR
STARTCHAR uni2E23
ENCODING 11811
SWIDTH 600 0
DWIDTH 10 0
BBX 5 7 3 4
BITMAP
FF40
0300
0300
0600
0500
0900
0C00
ENDCHAR
STARTCHAR uni2E24
ENCODING 11812
SWIDTH 600 0
DWIDTH 10 0
BBX 5 7 2 -3
BITMAP
2400
3000
3000
6000
5000
9000
FF40
ENDCHAR
STARTCHAR uni2E25
ENCODING 11813
SWIDTH 600 0
DWIDTH 10 0
BBX 6 7 0 -3
BITMAP
0030
0060
0090
0090
00C0
00C0
BF80
ENDCHAR
STARTCHAR uniE0A0
ENCODING 57504
SWIDTH 600 0
DWIDTH 10 0
BBX 9 21 1 -4
BITMAP
700000
700000
700400
702D00
70BF00
706D40
701C00
701C00
701C00
701C00
602800
007400
02D000
1E4000
380000
700000
700000
700000
700000
700000
700000
ENDCHAR
STARTCHAR uniE0A1
ENCODING 57505
SWIDTH 600 0
DWIDTH 10 0
BBX 8 18 1 -3
BITMAP
9000
9000
9000
9000
9000
9000
9000
BFC0
0000
0000
0E0D
0F0D
0E8D
0DCD
0D99
0D39
0D2D
0D1D
ENDCHAR
STARTCHAR uniE0A2
ENCODING 57506
SWIDTH 600 0
DWIDTH 10 0
BBX 9 15 0 -1
BITMAP
02F400
0A1C00
090900
0C0900
0C0900
0C0900
3FFF80
7FFFC0
7E1FC0
7E0FC0
7E2FC0
7F6FC0
7F1FC0
7FFFC0
3FFF80
ENDCHAR
STARTCHAR uniE0B0
ENCODING 57520
SWIDTH 600 0
DWIDTH 10 0
BBX 10 21 0 -4
BITMAP
400000
D00000
F40000
FD0000
FF4000
FFC000
FFF000
FFF800
FFFE00
FFFF80
FFFFD0
FFFF80
FFFE00
FFF800
FFF000
FFC000
FF4000
FD0000
F40000
D00000
400000
ENDCHAR
STARTCHAR uniE0B1
ENCODING 57521
SWIDTH 600 0
DWIDTH 10 0
BBX 10 19 0 -3
BITMAP
900000
700000
1C0000
070000
01C000
007000
001800
000A00
000280
0000A0
000280
000A00
001800
007000
01C000
070000
1C0000
700000
900000
ENDCHAR
STARTCHAR uniE0B2
ENCODING 57522
SWIDTH 600 0
DWIDTH 10 0
BBX 10 21 0 -4
BITMAP
000010
0000A0
0002E0
0007E0
001FE0
007FE0
01FFE0
07FFE0
1FFFE0
3FFFE0
BFFFE0
3FFFE0
1FFFE0
07FFE0
01FFE0
007FE0
001FE0
0007E0
0002E0
0000A0
000010
ENDCHAR
STARTCHAR uniE0B3
ENCODING 57523
SWIDTH 600 0
DWIDTH 10 0
BBX 10 19 0 -3
BITMAP
000090
0001C0
000700
001C00
007000
01C000
074000
1D0000
740000
D00000
740000
1D0000
074000
01C000
007000
001C00
000700
0001C0
000090
ENDCHAR
STARTCHAR f_i
ENCODING 64257
SWIDTH 600 0
DWIDTH 10 0
BBX 9 12 1 0
BITMAP
000740
06E700
0D0000
1C0000
7F4D00
280C00
341C00
302800
702800
603400
A03000
907000
ENDCHAR
STARTCHAR f_l
ENCODING 64258
SWIDTH 600 0
DWIDTH 10 0
BBX 8 11 1 0
BITMAP
06E7
0D0A
1C09
7F4D
280C
341C
3028
7024
6034
A070
9038
ENDCHAR
STARTCHAR uniFE0E
ENCODING 65038
SWIDTH 600 0
DWIDTH 10 0
BBX 9 10 0 0
BITMAP
6AAA80
800080
400040
690A80
010400
020C00
010400
010400
010400
02A400
ENDCHAR
STARTCHAR uniFE0F
ENCODING 65039
SWIDTH 600 0
DWIDTH 10 0
BBX 10 10 0 0
BITMAP
06A400
040100
100040
9BBC90
411450
440150
450440
104040
090500
01A000
ENDCHAR
STARTCHAR uniFEFF
ENCODING 65279
SWIDTH 600 0
DWIDTH 10 0
BBX 1 1 0 0
BITMAP
00
ENDCHAR
STARTCHAR u1F3B5
ENCODING 127925
SWIDTH 600 0
DWIDTH 10 0
BBX 8 12 1 0
BITMAP
0040
01D0
01F4
019C
0189
0185
0184
0180
0180
2F80
BF40
7D00
ENDCHAR
STARTCHAR u1F3B6
ENCODING 127926
SWIDTH 600 0
DWIDTH 10 0
BBX 10 12 0 0
BITMAP
005AD0
02FFD0
02EA90
024050
024050
024050
024050
024050
024BD0
6F6FD0
BF1F40
BD0000
ENDCHAR
STARTCHAR u1F4A9
ENCODING 128169
SWIDTH 600 0
DWIDTH 10 0
BBX 10 11 0 0
BITMAP
006400
07FC00
0BFD00
1FFF40
389380
3B9A80
3FFF80
F803D0
F807E0
FE0BD0
2FFE40
ENDCHAR
STARTCHAR u1F512
ENCODING 128274
SWIDTH 600 0
DWIDTH 10 0
BBX 9 15 0 -1
BITMAP
02F400
0A1C00
090900
0C0900
0C0900
0C0900
3FFF80
7FFFC0
7E1FC0
7E0FC0
7E2FC0
7F6FC0
7F1FC0
7FFFC0
3FFF80
ENDCHAR
STARTCHAR u1F916
ENCODING 129302
SWIDTH 600 0
DWIDTH 10 0
BBX 11 10 -1 0
BITMAP
01BE40
0A4190
15BE20
322498
75A69C
72FF5C
340028
182420
0A41D0
01BE00
ENDCHAR
STARTCHAR .notdef
ENCODING -1
SWIDTH 600 0
DWIDTH 10 0
BBX 8 10 1 0
BITMAP
FFFE
E02E
D866
C996
C386
C7C6
C996
D83A
F01E
FFFE
ENDCHAR
STARTCHAR uni00470303
ENCODING -1
SWIDTH 600 0
DWIDTH 10 0
BBX 9 13 1 0
BITMAP
02F240
021E00
000000
02F900
1E0600
380000
700000
900000
D0BE00
D00900
A00C00
741C00
1BE400
ENDCHAR
STARTCHAR uni004C00B7004C
ENCODING -1
SWIDTH 600 0
DWIDTH 10 0
BBX 9 10 0 0
BITMAP
0C0300
1C0700
180A00
26C900
37DD00
329C00
701800
A02800
902400
FF3F80
ENDCHAR
STARTCHAR uni01320301
ENCODING -1
SWIDTH 600 0
DWIDTH 10 0
BBX 11 17 0 -3
BITMAP
006018
01D074
024090
000000
0701C0
0A0180
0A0280
0D0340
0C0300
1C0700
280A00
240A00
340D00
700C00
001C00
002800
01E000
ENDCHAR
STARTCHAR uni00670303
ENCODING -1
SWIDTH 600 0
DWIDTH 10 0
BBX 9 15 0 -3
BITMAP
001040
01E8C0
024B40
000000
02F980
0E0780
280340
340300
340700
340A00
2D6A00
064900
000C00
507800
6F9000
ENDCHAR
STARTCHAR uni006C00B7006C
ENCODING -1
SWIDTH 600 0
DWIDTH 10 0
BBX 9 11 0 0
BITMAP
FD3F40
0C0300
1C0600
180A00
26C900
37DC00
329C00
601800
A02800
A12800
2E1B80
ENDCHAR
STARTCHAR uni01330301
ENCODING -1
SWIDTH 600 0
DWIDTH 10 0
BBX 9 15 1 -3
BITMAP
018180
0B4740
180800
000000
181C00
282800
342400
303400
703000
607000
A0A000
D09000
00D000
01C000
0F4000
ENDCHAR
STARTCHAR uni014A.a
ENCODING -1
SWIDTH 600 0
DWIDTH 10 0
BBX 10 13 0 -3
BITMAP
0B00D0
0B40C0
0E81C0
1DC280
18D240
28A340
347300
302A00
701E00
600D00
000D00
001C00
00F400
ENDCHAR
STARTCHAR a.a
ENCODING -1
SWIDTH 600 0
DWIDTH 10 0
BBX 8 8 1 0
BITMAP
1BF4
241C
000D
0AFC
791C
D028
D1B8
BE24
ENDCHAR
STARTCHAR agrave.a
ENCODING -1
SWIDTH 600 0
DWIDTH 10 0
BBX 8 12 1 0
BITMAP
0180
00D0
0060
0000
1BF4
241C
000D
0AFC
791C
D028
D1B8
BE24
ENDCHAR
STARTCHAR aacute.a
ENCODING -1
SWIDTH 600 0
DWIDTH 10 0
BBX 8 12 1 0
BITMAP
0018
0074
0090
0000
1BF4
241C
000D
0AFC
791C
D028
D1B8
BE24
ENDCHAR
STARTCHAR acircumflex.a
ENCODING -1
SWIDTH 600 0
DWIDTH 10 0
BBX 8 12 1 0
BITMAP
00F0
0268
0508
0000
1BF4
241C
000D
0AFC
791C
D028
D1B8
BE24
ENDCHAR
STARTCHAR atilde.a
ENCODING -1
SWIDTH 600 0
DWIDTH 10 0
BBX 8 12 1 0
BITMAP
0141
06D6
082D
0000
1BF4
241C
000D
0AFC
791C
D028
D1B8
BE24
ENDCHAR
STARTCHAR adieresis.a
ENCODING -1
SWIDTH 600 0
DWIDTH 10 0
BBX 8 11 1 0
BITMAP
030C
071C
0000
1BF4
241C
000D
0AFC
791C
D028
D1B8
BE24
ENDCHAR
STARTCHAR amacron.a
ENCODING -1
SWIDTH 600 0
DWIDTH 10 0
BBX 8 11 1 0
BITMAP
03FC
0000
0000
1BF4
241C
000D
0AFC
791C
D028
D1B8
BE24
ENDCHAR
STARTCHAR abreve.a
ENCODING -1
SWIDTH 600 0
DWIDTH 10 0
BBX 8 12 1 0
BITMAP
0606
031C
02E4
0000
1BF4
241C
000D
0AFC
791C
D028
D1B8
BE24
ENDCHAR
STARTCHAR aring.a
ENCODING -1
SWIDTH 600 0
DWIDTH 10 0
BBX 8 13 1 0
BITMAP
00B4
0258
0258
01E0
0000
1BF4
241C
000D
0AFC
791C
D028
D1B8
BE24
ENDCHAR
STARTCHAR aringacute.a
ENCODING -1
SWIDTH 600 0
DWIDTH 10 0
BBX 8 14 1 0
BITMAP
0004
0024
01F4
0258
01E0
0000
1BF4
241C
000D
0AFC
791C
D028
D1B8
BE24
ENDCHAR
STARTCHAR uni01CE.a
ENCODING -1
SWIDTH 600 0
DWIDTH 10 0
BBX 8 12 1 0
BITMAP
0205
0268
01E0
0000
1BF4
241C
000D
0AFC
791C
D028
D1B8
BE24
ENDCHAR
STARTCHAR uni1EA1.a
ENCODING -1
SWIDTH 600 0
DWIDTH 10 0
BBX 8 12 1 -4
BITMAP
1BF4
241C
000D
0AFC
791C
D028
D1B8
BE24
0000
0000
0E00
1D00
ENDCHAR
STARTCHAR uni1EA3.a
ENCODING -1
SWIDTH 600 0
DWIDTH 10 0
BBX 8 13 1 0
BITMAP
00A0
0034
0070
0090
0000
1BF4
241C
000D
0AFC
791C
D028
D1B8
BE24
ENDCHAR
STARTCHAR uni1EA5.a
ENCODING -1
SWIDTH 600 0
DWIDTH 10 0
BBX 9 12 1 0
BITMAP
000180
01F600
021800
000000
1BF400
241C00
000D00
0AFC00
791C00
D02800
D1B800
BE2400
ENDCHAR
STARTCHAR uni1EA7.a
ENCODING -1
SWIDTH 600 0
DWIDTH 10 0
BBX 8 12 1 0
BITMAP
1400
09F0
0218
0000
1BF4
241C
000D
0AFC
791C
D028
D1B8
BE24
ENDCHAR
STARTCHAR uni1EA9.a
ENCODING -1
SWIDTH 600 0
DWIDTH 10 0
BBX 9 13 1 0
BITMAP
000740
000240
01F600
021800
000000
1BF400
241C00
000D00
0AFC00
791C00
D02800
D1B800
BE2400
ENDCHAR
STARTCHAR uni1EAB.a
ENCODING -1
SWIDTH 600 0
DWIDTH 10 0
BBX 8 13 1 0
BITMAP
0195
026C
01F0
0258
0000
1BF4
241C
000D
0AFC
791C
D028
D1B8
BE24
ENDCHAR
STARTCHAR uni1EAD.a
ENCODING -1
SWIDTH 600 0
DWIDTH 10 0
BBX 8 16 1 -4
BITMAP
00F0
0268
0508
0000
1BF4
241C
000D
0AFC
791C
D028
D1B8
BE24
0000
0000
0E00
1D00
ENDCHAR
STARTCHAR uni1EAF.a
ENCODING -1
SWIDTH 600 0
DWIDTH 10 0
BBX 8 13 1 0
BITMAP
0018
0666
031C
02E4
0000
1BF4
241C
000D
0AFC
791C
D028
D1B8
BE24
ENDCHAR
STARTCHAR uni1EB1.a
ENCODING -1
SWIDTH 600 0
DWIDTH 10 0
BBX 8 13 1 0
BITMAP
0080
0666
031C
02E4
0000
1BF4
241C
000D
0AFC
791C
D028
D1B8
BE24
ENDCHAR
STARTCHAR uni1EB3.a
ENCODING -1
SWIDTH 600 0
DWIDTH 10 0
BBX 8 14 1 0
BITMAP
0074
0024
0666
031C
02E4
0000
1BF4
241C
000D
0AFC
791C
D028
D1B8
BE24
ENDCHAR
STARTCHAR uni1EB5.a
ENCODING -1
SWIDTH 600 0
DWIDTH 10 0
BBX 8 13 1 0
BITMAP
0195
026C
0608
02F4
0000
1BF4
241C
000D
0AFC
791C
D028
D1B8
BE24
ENDCHAR
STARTCHAR uni1EB7.a
ENCODING -1
SWIDTH 600 0
DWIDTH 10 0
BBX 8 16 1 -4
BITMAP
0606
031C
02E4
0000
1BF4
241C
000D
0AFC
791C
D028
D1B8
BE24
0000
0000
0E00
1D00
ENDCHAR
STARTCHAR aogonek.a
ENCODING -1
SWIDTH 600 0
DWIDTH 10 0
BBX 8 12 1 -4
BITMAP
1BF4
241C
000D
0AFC
791C
D028
D1B8
BE24
0050
0140
0240
01E0
ENDCHAR
STARTCHAR g.a
ENCODING -1
SWIDTH 600 0
DWIDTH 10 0
BBX 9 11 0 -3
BITMAP
02FFC0
0A0A00
1C0600
1D1D00
0FE400
180000
280000
2BF800
901D00
D01D00
6FE400
ENDCHAR
STARTCHAR uni01F5.a
ENCODING -1
SWIDTH 600 0
DWIDTH 10 0
BBX 9 15 0 -3
BITMAP
000600
001D00
002400
000000
02FFC0
0A0A00
1C0600
1D1D00
0FE400
180000
280000
2BF800
901D00
D01D00
6FE400
ENDCHAR
STARTCHAR gcircumflex.a
ENCODING -1
SWIDTH 600 0
DWIDTH 10 0
BBX 9 15 0 -3
BITMAP
003C00
009A00
014200
000000
02FFC0
0A0A00
1C0600
1D1D00
0FE400
180000
280000
2BF800
901D00
D01D00
6FE400
ENDCHAR
STARTCHAR gbreve.a
ENCODING -1
SWIDTH 600 0
DWIDTH 10 0
BBX 9 15 0 -3
BITMAP
018180
00C700
00B900
000000
02FFC0
0A0A00
1C0600
1D1D00
0FE400
180000
280000
2BF800
901D00
D01D00
6FE400
ENDCHAR
STARTCHAR gdotaccent.a
ENCODING -1
SWIDTH 600 0
DWIDTH 10 0
BBX 9 14 0 -3
BITMAP
002800
003800
000000
02FFC0
0A0A00
1C0600
1D1D00
0FE400
180000
280000
2BF800
901D00
D01D00
6FE400
ENDCHAR
STARTCHAR uni0123.a
ENCODING -1
SWIDTH 600 0
DWIDTH 10 0
BBX 9 15 0 -3
BITMAP
001900
003400
002400
000000
02FFC0
0A0A00
1C0600
1D1D00
0FE400
180000
280000
2BF800
901D00
D01D00
6FE400
ENDCHAR
STARTCHAR gcaron.a
ENCODING -1
SWIDTH 600 0
DWIDTH 10 0
BBX 9 15 0 -3
BITMAP
008140
009A00
007800
000000
02FFC0
0A0A00
1C0600
1D1D00
0FE400
180000
280000
2BF800
901D00
D01D00
6FE400
ENDCHAR
STARTCHAR uni1E21.a
ENCODING -1
SWIDTH 600 0
DWIDTH 10 0
BBX 9 14 0 -3
BITMAP
00FF00
000000
000000
02FFC0
0A0A00
1C0600
1D1D00
0FE400
180000
280000
2BF800
901D00
D01D00
6FE400
ENDCHAR
STARTCHAR uni00670303.a
ENCODING -1
SWIDTH 600 0
DWIDTH 10 0
BBX 9 15 0 -3
BITMAP
005040
01B580
020B40
000000
02FFC0
0A0A00
1C0600
1D1D00
0FE400
180000
280000
2BF800
901D00
D01D00
6FE400
ENDCHAR
STARTCHAR iogonek.d
ENCODING -1
SWIDTH 600 0
DWIDTH 10 0
BBX 7 12 1 -4
BITMAP
7F80
0280
0240
0300
0700
0600
0700
02F4
0090
0240
0340
02E0
ENDCHAR
STARTCHAR uni0268.d
ENCODING -1
SWIDTH 600 0
DWIDTH 10 0
BBX 7 8 1 0
BITMAP
7F80
0280
0340
BFF8
0700
0600
0700
02F4
ENDCHAR
STARTCHAR uni029D.d
ENCODING -1
SWIDTH 600 0
DWIDTH 10 0
BBX 7 12 0 -4
BITMAP
0BFC
0018
0028
0024
0034
0070
0060
00A0
7ED0
D2D0
7E70
0020
ENDCHAR
STARTCHAR zero.a
ENCODING -1
SWIDTH 600 0
DWIDTH 10 0
BBX 8 10 1 0
BITMAP
06F4
1D1C
3809
A50A
D20A
C149
C08D
D078
A070
2F80
ENDCHAR
STARTCHAR one.a
ENCODING -1
SWIDTH 600 0
DWIDTH 10 0
BBX 8 10 0 0
BITMAP
0038
01F8
0774
0030
0070
00A0
0090
00D0
00C0
7FFE
ENDCHAR
STARTCHAR zero.onum
ENCODING -1
SWIDTH 600 0
DWIDTH 10 0
BBX 8 9 1 0
BITMAP
0BE4
281C
7009
934A
D349
C00D
D01C
A074
2F90
ENDCHAR
STARTCHAR one.onum
ENCODING -1
SWIDTH 600 0
DWIDTH 10 0
BBX 8 9 0 0
BITMAP
01B8
02B4
0030
0070
00A0
00A0
00D0
00C0
7FFE
ENDCHAR
STARTCHAR two.onum
ENCODING -1
SWIDTH 600 0
DWIDTH 10 0
BBX 8 9 0 0
BITMAP
06F8
0D0D
000A
0009
0028
00B0
0280
1D00
7FFE
ENDCHAR
STARTCHAR three.onum
ENCODING -1
SWIDTH 600 0
DWIDTH 10 0
BBX 8 10 0 -1
BITMAP
02F9
090B
0007
0019
02E4
0168
000D
000D
742C
1BE0
ENDCHAR
STARTCHAR four.onum
ENCODING -1
SWIDTH 600 0
DWIDTH 10 0
BBX 8 10 0 -1
BITMAP
000B
002A
00AA
018D
060C
181C
7018
FFFF
0024
0030
ENDCHAR
STARTCHAR five.onum
ENCODING -1
SWIDTH 600 0
DWIDTH 10 0
BBX 9 10 0 -1
BITMAP
07FF40
0A0000
090000
0C0000
1EF800
041E00
000A00
000A00
742C00
1BE400
ENDCHAR
STARTCHAR six.onum
ENCODING -1
SWIDTH 600 0
DWIDTH 10 0
BBX 8 10 1 0
BITMAP
02F9
1D06
3400
6000
97E4
F42C
D00C
901C
7474
1F90
ENDCHAR
STARTCHAR seven.onum
ENCODING -1
SWIDTH 600 0
DWIDTH 10 0
BBX 8 10 1 -1
BITMAP
7FFF
000D
0034
0090
0180
0340
0A00
0D00
1C00
2800
ENDCHAR
STARTCHAR eight.onum
ENCODING -1
SWIDTH 600 0
DWIDTH 10 0
BBX 8 10 1 0
BITMAP
06F4
1D1D
1809
080D
1FA8
75A0
D024
D01C
A078
2FD0
ENDCHAR
STARTCHAR nine.onum
ENCODING -1
SWIDTH 600 0
DWIDTH 10 0
BBX 9 10 0 -1
BITMAP
02F800
0E0B00
280340
240340
281B40
0BE700
000600
000D00
607800
2F9000
ENDCHAR
STARTCHAR zero.b
ENCODING -1
SWIDTH 600 0
DWIDTH 10 0
BBX 8 9 1 0
BITMAP
0BE4
281C
7809
950A
D209
C08D
D06C
A074
2F90
ENDCHAR
STARTCHAR one.b
ENCODING -1
SWIDTH 600 0
DWIDTH 10 0
BBX 8 9 0 0
BITMAP
0078
01F4
0670
0070
00A0
0090
00D0
00C0
7FFE
ENDCHAR
STARTCHAR zero.cap
ENCODING -1
SWIDTH 600 0
DWIDTH 10 0
BBX 8 10 1 0
BITMAP
06F4
1D1C
340A
A006
D28A
D38A
C00D
D018
7074
2F80
ENDCHAR
STARTCHAR one.cap
ENCODING -1
SWIDTH 600 0
DWIDTH 10 0
BBX 8 20 0 0
BITMAP
0014
02F8
0028
0024
0030
0030
0020
0010
0050
0040
007E
00BE
00BE
00BE
00BE
00FE
00FE
00FE
01FE
7FFE
ENDCHAR
STARTCHAR two.cap
ENCODING -1
SWIDTH 600 0
DWIDTH 10 0
BBX 8 10 0 0
BITMAP
01F9
0A0B
0003
0007
0009
0028
00A0
0280
1D00
7FFF
ENDCHAR
STARTCHAR three.cap
ENCODING -1
SWIDTH 600 0
DWIDTH 10 0
BBX 9 10 0 0
BITMAP
02FD00
060740
000340
001A00
02F400
001D00
000A00
000A00
741D00
1BE400
ENDCHAR
STARTCHAR four.cap
ENCODING -1
SWIDTH 600 0
DWIDTH 10 0
BBX 9 10 0 0
BITMAP
000B40
002B00
00A600
028A00
0A0900
280C00
BFFF80
001800
002800
002400
ENDCHAR
STARTCHAR five.cap
ENCODING -1
SWIDTH 600 0
DWIDTH 10 0
BBX 9 10 0 0
BITMAP
03FF80
070000
0A0000
090000
0EF800
050A00
000700
000600
741D00
1BE400
ENDCHAR
STARTCHAR six.cap
ENCODING -1
SWIDTH 600 0
DWIDTH 10 0
BBX 8 10 1 0
BITMAP
02F9
1E06
3400
6000
97E4
F42C
D00C
901C
7474
1FD0
ENDCHAR
STARTCHAR seven.cap
ENCODING -1
SWIDTH 600 0
DWIDTH 10 0
BBX 8 10 2 0
BITMAP
FFFD
0024
0090
0280
0700
0D00
1C00
2800
3400
7000
ENDCHAR
STARTCHAR eight.cap
ENCODING -1
SWIDTH 600 0
DWIDTH 10 0
BBX 8 10 1 0
BITMAP
06F4
1D1D
1809
0A1D
1FF4
75B4
D028
D01C
A074
2F90
ENDCHAR
STARTCHAR nine.cap
ENCODING -1
SWIDTH 600 0
DWIDTH 10 0
BBX 8 10 1 0
BITMAP
0BE4
281C
7009
600A
742E
1F99
001C
0028
91A0
7F40
ENDCHAR
STARTCHAR zero.c
ENCODING -1
SWIDTH 600 0
DWIDTH 10 0
BBX 8 10 1 0
BITMAP
06F4
1D1C
380A
A506
D20A
D18A
C09D
D038
7074
2F80
ENDCHAR
STARTCHAR one.c
ENCODING -1
SWIDTH 600 0
DWIDTH 10 0
BBX 8 11 0 0
BITMAP
0014
0078
02B4
0134
0030
0070
00A0
0090
00D0
00C0
7FFE
ENDCHAR
STARTCHAR at.case
ENCODING -1
SWIDTH 600 0
DWIDTH 10 0
BBX 10 10 0 0
BITMAP
00BF40
0741C0
1C0090
241BC0
20D580
618780
61FA40
300000
290400
0BE400
ENDCHAR
STARTCHAR asterisk.a
ENCODING -1
SWIDTH 600 0
DWIDTH 10 0
BBX 7 6 2 5
BITMAP
0240
0200
6BA4
0B40
1E80
2080
ENDCHAR
STARTCHAR hyphen.a
ENCODING -1
SWIDTH 600 0
DWIDTH 10 0
BBX 6 1 2 4
BITMAP
FFD0
ENDCHAR
STARTCHAR uni00AD.a
ENCODING -1
SWIDTH 600 0
DWIDTH 10 0
BBX 6 1 2 4
BITMAP
FFD0
ENDCHAR
STARTCHAR uni2010.a
ENCODING -1
SWIDTH 600 0
DWIDTH 10 0
BBX 6 1 2 4
BITMAP
FFD0
ENDCHAR
STARTCHAR dollar.a
ENCODING -1
SWIDTH 600 0
DWIDTH 10 0
BBX 7 13 1 -1
BITMAP
0008
0014
0BF0
287C
2894
0AC0
0280
0360
9618
7C68
1FE0
2400
2000
ENDCHAR
STARTCHAR period.sups
ENCODING -1
SWIDTH 600 0
DWIDTH 10 0
BBX 2 1 4 6
BITMAP
60
ENDCHAR
STARTCHAR comma.sups
ENCODING -1
SWIDTH 600 0
DWIDTH 10 0
BBX 2 3 4 4
BITMAP
60
60
80
ENDCHAR
STARTCHAR period.subs
ENCODING -1
SWIDTH 600 0
DWIDTH 10 0
BBX 2 1 3 -3
BITMAP
90
ENDCHAR
STARTCHAR comma.subs
ENCODING -1
SWIDTH 600 0
DWIDTH 10 0
BBX 3 3 2 -5
BITMAP
24
24
60
ENDCHAR
STARTCHAR zero.dnom
ENCODING -1
SWIDTH 600 0
DWIDTH 10 0
BBX 5 5 2 0
BITMAP
2E00
A180
C180
C340
7D00
ENDCHAR
STARTCHAR one.dnom
ENCODING -1
SWIDTH 600 0
DWIDTH 10 0
BBX 3 5 3 0
BITMAP
B4
24
30
30
60
ENDCHAR
STARTCHAR two.dnom
ENCODING -1
SWIDTH 600 0
DWIDTH 10 0
BBX 4 5 2 0
BITMAP
2E
13
06
24
FF
ENDCHAR
STARTCHAR three.dnom
ENCODING -1
SWIDTH 600 0
DWIDTH 10 0
BBX 4 5 2 0
BITMAP
1F
13
1E
47
7D
ENDCHAR
STARTCHAR four.dnom
ENCODING -1
SWIDTH 600 0
DWIDTH 10 0
BBX 5 5 2 0
BITMAP
0800
2500
5200
FF40
0900
ENDCHAR
STARTCHAR five.dnom
ENCODING -1
SWIDTH 600 0
DWIDTH 10 0
BBX 5 5 2 0
BITMAP
2F40
2000
3E00
9300
7D00
ENDCHAR
STARTCHAR six.dnom
ENCODING -1
SWIDTH 600 0
DWIDTH 10 0
BBX 5 5 2 0
BITMAP
1F40
6000
AE00
9200
7E00
ENDCHAR
STARTCHAR seven.dnom
ENCODING -1
SWIDTH 600 0
DWIDTH 10 0
BBX 4 5 3 0
BITMAP
FE
08
24
60
90
ENDCHAR
STARTCHAR eight.dnom
ENCODING -1
SWIDTH 600 0
DWIDTH 10 0
BBX 5 5 2 0
BITMAP
2F00
3240
3E00
9700
7E00
ENDCHAR
STARTCHAR nine.dnom
ENCODING -1
SWIDTH 600 0
DWIDTH 10 0
BBX 5 5 2 0
BITMAP
2E00
A240
7F40
4700
B900
ENDCHAR
STARTCHAR parenleft.dnom
ENCODING -1
SWIDTH 600 0
DWIDTH 10 0
BBX 3 8 3 -1
BITMAP
08
28
60
90
90
90
60
20
ENDCHAR
STARTCHAR parenright.dnom
ENCODING -1
SWIDTH 600 0
DWIDTH 10 0
BBX 4 8 2 -1
BITMAP
08
09
09
05
09
0C
24
60
ENDCHAR
STARTCHAR period.dnom
ENCODING -1
SWIDTH 600 0
DWIDTH 10 0
BBX 2 1 3 0
BITMAP
90
ENDCHAR
STARTCHAR comma.dnom
ENCODING -1
SWIDTH 600 0
DWIDTH 10 0
BBX 3 3 2 -2
BITMAP
28
18
60
ENDCHAR
STARTCHAR zero.numr
ENCODING -1
SWIDTH 600 0
DWIDTH 10 0
BBX 5 5 3 5
BITMAP
2E00
A280
C180
C340
7D00
ENDCHAR
STARTCHAR one.numr
ENCODING -1
SWIDTH 600 0
DWIDTH 10 0
BBX 3 5 4 5
BITMAP
B4
24
30
30
60
ENDCHAR
STARTCHAR two.numr
ENCODING -1
SWIDTH 600 0
DWIDTH 10 0
BBX 4 5 3 5
BITMAP
2E
53
05
24
FF
ENDCHAR
STARTCHAR three.numr
ENCODING -1
SWIDTH 600 0
DWIDTH 10 0
BBX 4 5 3 5
BITMAP
1E
13
1D
47
7D
ENDCHAR
STARTCHAR four.numr
ENCODING -1
SWIDTH 600 0
DWIDTH 10 0
BBX 5 5 3 5
BITMAP
0800
2500
5600
FF40
0900
ENDCHAR
STARTCHAR five.numr
ENCODING -1
SWIDTH 600 0
DWIDTH 10 0
BBX 5 5 3 5
BITMAP
2F40
2000
7E00
9300
7D00
ENDCHAR
STARTCHAR six.numr
ENCODING -1
SWIDTH 600 0
DWIDTH 10 0
BBX 5 5 3 5
BITMAP
1F40
6000
AE00
9300
7E00
ENDCHAR
STARTCHAR seven.numr
ENCODING -1
SWIDTH 600 0
DWIDTH 10 0
BBX 5 5 3 5
BITMAP
7F80
0200
0800
1800
2400
ENDCHAR
STARTCHAR eight.numr
ENCODING -1
SWIDTH 600 0
DWIDTH 10 0
BBX 5 5 3 5
BITMAP
2F00
3240
3E00
9700
7E00
ENDCHAR
STARTCHAR nine.numr
ENCODING -1
SWIDTH 600 0
DWIDTH 10 0
BBX 5 5 3 5
BITMAP
2E00
9240
7F40
4700
B900
ENDCHAR
STARTCHAR parenleft.numr
ENCODING -1
SWIDTH 600 0
DWIDTH 10 0
BBX 3 8 4 4
BITMAP
08
24
60
90
90
90
60
20
ENDCHAR
STARTCHAR parenright.numr
ENCODING -1
SWIDTH 600 0
DWIDTH 10 0
BBX 4 8 3 4
BITMAP
08
0C
09
09
09
0C
24
50
ENDCHAR
STARTCHAR period.numr
ENCODING -1
SWIDTH 600 0
DWIDTH 10 0
BBX 2 1 4 5
BITMAP
90
ENDCHAR
STARTCHAR comma.numr
ENCODING -1
SWIDTH 600 0
DWIDTH 10 0
BBX 3 3 3 3
BITMAP
28
18
60
ENDCHAR
STARTCHAR ordfeminine.a
ENCODING -1
SWIDTH 600 0
DWIDTH 10 0
BBX 5 5 3 6
BITMAP
1F40
1180
1180
8640
BA40
ENDCHAR
STARTCHAR q.sups
ENCODING -1
SWIDTH 600 0
DWIDTH 10 0
BBX 5 7 3 4
BITMAP
2E80
A1C0
C180
C240
BA40
0300
0200
ENDCHAR
STARTCHAR egrave.sups
ENCODING -1
SWIDTH 600 0
DWIDTH 10 0
BBX 5 9 3 6
BITMAP
0400
0600
0100
0000
1F40
60C0
BFC0
9140
7E00
ENDCHAR
STARTCHAR eacute.sups
ENCODING -1
SWIDTH 600 0
DWIDTH 10 0
BBX 5 9 3 6
BITMAP
0040
0240
0100
0000
1F40
60C0
BFC0
9140
7E00
ENDCHAR
STARTCHAR a.supa
ENCODING -1
SWIDTH 600 0
DWIDTH 10 0
BBX 5 5 3 6
BITMAP
1F40
1180
1180
8640
BA40
ENDCHAR
STARTCHAR g.supa
ENCODING -1
SWIDTH 600 0
DWIDTH 10 0
BBX 7 7 2 4
BITMAP
0BF8
1860
1F90
2000
2FE0
5060
7F80
ENDCHAR
STARTCHAR colon.sups
ENCODING -1
SWIDTH 600 0
DWIDTH 10 0
BBX 2 5 4 6
BITMAP
60
00
00
00
C0
ENDCHAR
STARTCHAR hyphen.sups
ENCODING -1
SWIDTH 600 0
DWIDTH 10 0
BBX 3 1 4 8
BITMAP
B8
ENDCHAR
STARTCHAR endash.sups
ENCODING -1
SWIDTH 600 0
DWIDTH 10 0
BBX 5 1 3 8
BITMAP
BF80
ENDCHAR
STARTCHAR emdash.sups
ENCODING -1
SWIDTH 600 0
DWIDTH 10 0
BBX 9 1 1 8
BITMAP
7FFF40
ENDCHAR
STARTCHAR slash.frac
ENCODING -1
SWIDTH 600 0
DWIDTH 10 0
BBX 11 9 -1 1
BITMAP
000018
000060
000180
000100
000000
014000
060000
280000
600000
ENDCHAR
STARTCHAR uni0300.cap
ENCODING -1
SWIDTH 600 0
DWIDTH 10 0
BBX 3 3 4 11
BITMAP
60
34
08
ENDCHAR
STARTCHAR uni0301.cap
ENCODING -1
SWIDTH 600 0
DWIDTH 10 0
BBX 3 3 5 11
BITMAP
08
28
90
ENDCHAR
STARTCHAR uni0302.cap
ENCODING -1
SWIDTH 600 0
DWIDTH 10 0
BBX 5 2 4 11
BITMAP
2E00
9240
ENDCHAR
STARTCHAR uni0303.cap
ENCODING -1
SWIDTH 600 0
DWIDTH 10 0
BBX 6 2 3 11
BITMAP
3E30
52D0
ENDCHAR
STARTCHAR uni0304.cap
ENCODING -1
SWIDTH 600 0
DWIDTH 10 0
BBX 5 1 4 12
BITMAP
BF40
ENDCHAR
STARTCHAR uni0305.cap
ENCODING -1
SWIDTH 600 0
DWIDTH 10 0
BBX 5 1 4 12
BITMAP
BF40
ENDCHAR
STARTCHAR uni0306.c
ENCODING -1
SWIDTH 600 0
DWIDTH 10 0
BBX 4 2 4 9
BITMAP
C7
B9
ENDCHAR
STARTCHAR uni0306.cap
ENCODING -1
SWIDTH 600 0
DWIDTH 10 0
BBX 5 2 4 11
BITMAP
8180
7E00
ENDCHAR
STARTCHAR uni0306.ccap
ENCODING -1
SWIDTH 600 0
DWIDTH 10 0
BBX 5 2 4 11
BITMAP
9240
7E00
ENDCHAR
STARTCHAR uni0307.cap
ENCODING -1
SWIDTH 600 0
DWIDTH 10 0
BBX 2 2 5 11
BITMAP
70
70
ENDCHAR
STARTCHAR uni0308.cap
ENCODING -1
SWIDTH 600 0
DWIDTH 10 0
BBX 5 2 4 11
BITMAP
9240
9240
ENDCHAR
STARTCHAR uni0309.cap
ENCODING -1
SWIDTH 600 0
DWIDTH 10 0
BBX 3 3 5 11
BITMAP
A0
34
A0
ENDCHAR
STARTCHAR uni0310.cap
ENCODING -1
SWIDTH 600 0
DWIDTH 10 0
BBX 5 4 4 11
BITMAP
0900
1D00
C580
7E00
ENDCHAR
STARTCHAR uni030A.cap
ENCODING -1
SWIDTH 600 0
DWIDTH 10 0
BBX 3 4 5 11
BITMAP
74
88
88
B4
ENDCHAR
STARTCHAR uni030B.cap
ENCODING -1
SWIDTH 600 0
DWIDTH 10 0
BBX 6 3 4 11
BITMAP
0850
25C0
6200
ENDCHAR
STARTCHAR uni030C.cap
ENCODING -1
SWIDTH 600 0
DWIDTH 10 0
BBX 5 2 4 11
BITMAP
9180
3D00
ENDCHAR
STARTCHAR uni030C.a
ENCODING -1
SWIDTH 600 0
DWIDTH 10 0
BBX 2 4 5 9
BITMAP
60
A0
90
C0
ENDCHAR
STARTCHAR uni030F.cap
ENCODING -1
SWIDTH 600 0
DWIDTH 10 0
BBX 5 3 3 11
BITMAP
9600
6340
2140
ENDCHAR
STARTCHAR uni0311.cap
ENCODING -1
SWIDTH 600 0
DWIDTH 10 0
BBX 5 2 4 12
BITMAP
6E00
D240
ENDCHAR
STARTCHAR uni0326.a
ENCODING -1
SWIDTH 600 0
DWIDTH 10 0
BBX 3 3 5 9
BITMAP
64
D0
80
ENDCHAR
STARTCHAR uni0327.cap
ENCODING -1
SWIDTH 600 0
DWIDTH 10 0
BBX 4 5 1 -5
BITMAP
08
1D
0A
09
74
ENDCHAR
STARTCHAR uni0328.cap
ENCODING -1
SWIDTH 600 0
DWIDTH 10 0
BBX 3 4 2 -4
BITMAP
24
90
C0
B8
ENDCHAR
STARTCHAR uni0342.cap
ENCODING -1
SWIDTH 600 0
DWIDTH 10 0
BBX 6 2 3 11
BITMAP
3E30
52D0
ENDCHAR
STARTCHAR uni03080301
ENCODING -1
SWIDTH 600 0
DWIDTH 10 0
BBX 4 3 4 10
BITMAP
06
08
86
ENDCHAR
STARTCHAR uni03080301.cap
ENCODING -1
SWIDTH 600 0
DWIDTH 10 0
BBX 4 3 4 12
BITMAP
02
09
92
ENDCHAR
STARTCHAR uni03080300
ENCODING -1
SWIDTH 600 0
DWIDTH 10 0
BBX 4 3 4 10
BITMAP
20
14
86
ENDCHAR
STARTCHAR uni03080300.cap
ENCODING -1
SWIDTH 600 0
DWIDTH 10 0
BBX 4 3 4 12
BITMAP
24
08
92
ENDCHAR
STARTCHAR uni03080303
ENCODING -1
SWIDTH 600 0
DWIDTH 10 0
BBX 5 4 4 10
BITMAP
B580
8B40
0000
8600
ENDCHAR
STARTCHAR uni03080304
ENCODING -1
SWIDTH 600 0
DWIDTH 10 0
BBX 5 3 4 10
BITMAP
BF40
0000
8600
ENDCHAR
STARTCHAR uni03080304.cap
ENCODING -1
SWIDTH 600 0
DWIDTH 10 0
BBX 5 3 4 12
BITMAP
BF80
0000
9200
ENDCHAR
STARTCHAR uni0308030C
ENCODING -1
SWIDTH 600 0
DWIDTH 10 0
BBX 5 3 4 10
BITMAP
5240
2D00
8600
ENDCHAR
STARTCHAR uni0308030C.cap
ENCODING -1
SWIDTH 600 0
DWIDTH 10 0
BBX 5 3 4 12
BITMAP
2140
2E00
9200
ENDCHAR
STARTCHAR uni03020301
ENCODING -1
SWIDTH 600 0
DWIDTH 10 0
BBX 7 3 3 9
BITMAP
0014
1F60
6180
ENDCHAR
STARTCHAR uni03020301.cap
ENCODING -1
SWIDTH 600 0
DWIDTH 10 0
BBX 6 3 4 11
BITMAP
0060
2D80
9200
ENDCHAR
STARTCHAR uni03020300
ENCODING -1
SWIDTH 600 0
DWIDTH 10 0
BBX 6 3 2 9
BITMAP
9000
27C0
1860
ENDCHAR
STARTCHAR uni03020300.cap
ENCODING -1
SWIDTH 600 0
DWIDTH 10 0
BBX 5 3 3 11
BITMAP
8000
2B40
2480
ENDCHAR
STARTCHAR uni03020309
ENCODING -1
SWIDTH 600 0
DWIDTH 10 0
BBX 7 4 3 9
BITMAP
0060
0024
1F60
6180
ENDCHAR
STARTCHAR uni03020309.cap
ENCODING -1
SWIDTH 600 0
DWIDTH 10 0
BBX 6 4 4 11
BITMAP
00D0
0060
2DD0
9200
ENDCHAR
STARTCHAR uni03020303
ENCODING -1
SWIDTH 600 0
DWIDTH 10 0
BBX 5 4 4 9
BITMAP
6540
9B00
7C00
8600
ENDCHAR
STARTCHAR uni03020303.cap
ENCODING -1
SWIDTH 600 0
DWIDTH 10 0
BBX 5 4 4 11
BITMAP
7880
8B40
2D00
9200
ENDCHAR
STARTCHAR uni03060301
ENCODING -1
SWIDTH 600 0
DWIDTH 10 0
BBX 6 4 3 9
BITMAP
0180
5650
61C0
2E40
ENDCHAR
STARTCHAR uni03060301.cap
ENCODING -1
SWIDTH 600 0
DWIDTH 10 0
BBX 5 4 4 11
BITMAP
0200
0900
9280
7E00
ENDCHAR
STARTCHAR uni03060300
ENCODING -1
SWIDTH 600 0
DWIDTH 10 0
BBX 6 4 3 9
BITMAP
0800
5550
61C0
2E40
ENDCHAR
STARTCHAR uni03060300.cap
ENCODING -1
SWIDTH 600 0
DWIDTH 10 0
BBX 5 4 4 11
BITMAP
2400
0800
9280
7E00
ENDCHAR
STARTCHAR uni03060309
ENCODING -1
SWIDTH 600 0
DWIDTH 10 0
BBX 6 5 3 9
BITMAP
0A00
0240
5650
61C0
2E40
ENDCHAR
STARTCHAR uni03060309.cap
ENCODING -1
SWIDTH 600 0
DWIDTH 10 0
BBX 5 5 4 11
BITMAP
0D00
0600
0800
9280
7E00
ENDCHAR
STARTCHAR uni03060303
ENCODING -1
SWIDTH 600 0
DWIDTH 10 0
BBX 6 4 3 9
BITMAP
1950
26C0
6080
2F40
ENDCHAR
STARTCHAR uni03060303.cap
ENCODING -1
SWIDTH 600 0
DWIDTH 10 0
BBX 5 4 4 11
BITMAP
7880
8B40
9240
7E00
ENDCHAR
STARTCHAR uni03020306
ENCODING -1
SWIDTH 600 0
DWIDTH 10 0
BBX 4 4 4 9
BITMAP
96
14
68
85
ENDCHAR
STARTCHAR uni03040301
ENCODING -1
SWIDTH 600 0
DWIDTH 10 0
BBX 5 4 3 10
BITMAP
0180
0200
0000
7FC0
ENDCHAR
STARTCHAR uni03040301.cap
ENCODING -1
SWIDTH 600 0
DWIDTH 10 0
BBX 5 4 4 12
BITMAP
0240
0900
0000
BF40
ENDCHAR
STARTCHAR space.frac
ENCODING -1
SWIDTH 600 0
DWIDTH 10 0
BBX 1 1 0 0
BITMAP
00
ENDCHAR
STARTCHAR nbspace.frac
ENCODING -1
SWIDTH 600 0
DWIDTH 10 0
BBX 1 1 0 0
BITMAP
00
ENDCHAR
STARTCHAR u1F3B5_uniFE0F
ENCODING -1
SWIDTH 600 0
DWIDTH 10 0
BBX 8 12 1 0
BITMAP
0040
01D0
01F4
019C
0189
0185
0184
0180
0180
2F80
BF40
7D00
ENDCHAR
STARTCHAR u1F3B6_uniFE0F
ENCODING -1
SWIDTH 600 0
DWIDTH 10 0
BBX 10 12 0 0
BITMAP
005AD0
02FFD0
02EA90
024050
024050
024050
024050
024050
024BD0
6F6FD0
BF1F40
BD0000
ENDCHAR
STARTCHAR uni2611_uniFE0F
ENCODING -1
SWIDTH 600 0
DWIDTH 10 0
BBX 12 13 -1 0
BITMAP
000002
00000A
3FFFFC
50007C
5000DC
50029C
53031C
528A1C
50CC1C
50A81C
50241C
50001C
7FFFF8
ENDCHAR
STARTCHAR uni2713_uniFE0F
ENCODING -1
SWIDTH 600 0
DWIDTH 10 0
BBX 10 11 0 0
BITMAP
000090
000280
000700
000D00
002400
003000
D09000
60C000
264000
1B0000
0E0000
ENDCHAR
STARTCHAR uni2665_uniFE0F
ENCODING -1
SWIDTH 600 0
DWIDTH 10 0
BBX 10 11 0 0
BITMAP
2E1F40
BFBFC0
BFFFD0
BFFFD0
BFFFD0
7FFFC0
3FFF40
1FFE00
07FC00
02F400
009000
ENDCHAR
STARTCHAR uni2663_uniFE0F
ENCODING -1
SWIDTH 600 0
DWIDTH 10 0
BBX 10 11 0 0
BITMAP
02F400
07FC00
07FC00
03F800
6FFF80
BFFFD0
BFFFD0
7FAFC0
04E100
06F800
1FFF00
ENDCHAR
STARTCHAR uni2666_uniFE0F
ENCODING -1
SWIDTH 600 0
DWIDTH 10 0
BBX 10 11 0 0
BITMAP
009000
02F400
07FC00
1FFE00
3FFF80
BFFFD0
3FFF80
1FFE00
07FC00
02F400
009000
ENDCHAR
STARTCHAR uni2660_uniFE0F
ENCODING -1
SWIDTH 600 0
DWIDTH 10 0
BBX 10 11 0 0
BITMAP
009000
02F400
0BFD00
2FFF40
7FFFC0
BFFFD0
BFFFD0
7FAFC0
04E100
06F800
1FFF00
ENDCHAR
STARTCHAR uni263A_uniFE0F
ENCODING -1
SWIDTH 600 0
DWIDTH 10 0
BBX 10 10 0 0
BITMAP
06A400
040100
100040
9BBC90
411450
440150
450440
104040
090500
01A000
ENDCHAR
STARTCHAR uni263B_uniFE0F
ENCODING -1
SWIDTH 600 0
DWIDTH 10 0
BBX 9 9 0 1
BITMAP
06F800
1FFF00
3CE780
79A7C0
7CE7C0
7FFFC0
36F680
1D0B00
06F800
ENDCHAR
STARTCHAR uni2764_uniFE0F
ENCODING -1
SWIDTH 600 0
DWIDTH 10 0
BBX 12 10 -1 0
BITMAP
2F86F4
BFEFFD
FFFFFE
FFFFFE
FFFFFE
7FFFFC
2FFFF4
07FF80
00BD00
002400
ENDCHAR
STARTCHAR uni2615_uniFE0F
ENCODING -1
SWIDTH 600 0
DWIDTH 10 0
BBX 12 10 -1 0
BITMAP
0AF900
390280
66F950
6D2A54
5BFD55
500055
20001C
2001E4
1D0700
06F800
ENDCHAR
STARTCHAR u1F4A9_uniFE0F
ENCODING -1
SWIDTH 600 0
DWIDTH 10 0
BBX 10 11 0 0
BITMAP
006400
07FC00
0BFD00
1FFF40
389380
3B9A80
3FFF80
F803D0
F807E0
FE0BD0
2FFE40
ENDCHAR
STARTCHAR u1F916_uniFE0F
ENCODING -1
SWIDTH 600 0
DWIDTH 10 0
BBX 11 10 -1 0
BITMAP
01BE40
0A4190
15BE20
322498
75A69C
72FF5C
340028
182420
0A41D0
01BE00
ENDCHAR
STARTCHAR u1F512_uniFE0F
ENCODING -1
SWIDTH 600 0
DWIDTH 10 0
BBX 9 15 0 -1
BITMAP
02F400
0A1C00
090900
0C0900
0C0900
0C0900
3FFF80
7FFFC0
7E1FC0
7E0FC0
7F1FC0
7F6FC0
7F2FC0
7F1FC0
3FFF80
ENDCHAR
ENDFONT
